<svg xmlns="http://www.w3.org/2000/svg" height="202" fill="none" viewBox="0 0 160 122">
  <g fill="#fff" clip-path="url(#logo-durex_svg__logo-durex_svg__clip0_48_30)"><path d="M101.26 45.23L51.5-27.19l-.26-.38-.75.52 49.66 72.28h1.11zm25.94-5.71l29.85-43.97.25-.38-.75-.52-30.47 44.87h1.11zm-26.91 37.99L6.49 215.65l-.26.38.76.52 94.4-139.04h-1.1zm23.15 0h-1.11l36.66 53.35.26.38.75-.52-36.56-53.2zM53.46 47.87H54v17.87c0 3.13-1.09 5.7-3.18 7.43-1.85 1.56-4.52 2.39-7.5 2.4h-.04c-2.96 0-5.6-.82-7.48-2.37-2.1-1.72-3.2-4.28-3.2-7.42V47.87h.27c2 0 4.83 0 4.84 4.15v13.11c0 3.85 1.89 5.8 5.57 5.8 3.72 0 5.58-1.96 5.58-5.82V51.97c0-1.4.34-2.45 1.02-3.12 1-1 2.57-.99 3.55-.98h.03zm-26.04-9.4l.24.02v36.39h-5v-2.73a13.19 13.19 0 01-8.96 3.5h-.04A13.53 13.53 0 014 71.75a14.4 14.4 0 01-.04-19.88 13.6 13.6 0 019.67-3.96h.03c3.57 0 6.88 1.25 9 3.4v-9.02a3.59 3.59 0 011.09-2.8c1.4-1.25 3.57-1.02 3.66-1.01h.01zM22.7 61.75c0-5.31-3.72-9.16-8.83-9.16-4.87 0-8.83 4.14-8.83 9.2a9.24 9.24 0 002.6 6.48 8.62 8.62 0 006.23 2.67c5.37 0 8.83-3.62 8.83-9.19zm51.25-12.5v-1.4l-.03-.23h-.23c-5.08-.27-8.16.82-9.8 3.49-.16-1.26-.6-2.1-1.4-2.61-.9-.59-2.14-.63-3.33-.64h-.28V74.9h5.06V61.1c0-5.3 2.38-8.34 6.73-8.55 2.16-.1 3.25-1.2 3.25-3.27l.03-.01zm44.14 25.62c-4.4-6.46-5-7.36-6.3-9.3l-6.14 9.3h-5.8l9.12-13.5-9.56-13.5h3.57a4.2 4.2 0 013.7 1.82c.8 1.17 4.25 6.25 5.1 7.55l8.84-13.08a3.97 3.97 0 013.68-2h3.6l-13.24 19.2 9.27 13.5h-5.84zm-18.55-17.6a5.43 5.43 0 01-.67 4.72c-.6.8-1.79 1.77-3.97 1.78l-16.64.04a8.8 8.8 0 008.57 7.05 8.24 8.24 0 007.34-4.2h5.25l-.04.13a13.54 13.54 0 01-12.69 8.7h-.04a13.58 13.58 0 01-9.72-3.9 13.86 13.86 0 01-3.94-9.9c0-7.92 5.85-13.91 13.64-13.93h.03c6.24 0 11.16 3.65 12.86 9.53l.02-.02zm-4.9.75c-.93-3.34-4.1-5.6-7.86-5.6h-.02a8.72 8.72 0 00-8.5 7l15.39-.03a1.04 1.04 0 00.89-.33 1.2 1.2 0 00.1-1.03"/><path d="M129.23 51.2c.25-.02.49-.1.68-.26a.94.94 0 00.27-.72.93.93 0 00-.3-.79 1.5 1.5 0 00-.94-.26h-1.4v3.65h.56v-1.57h.61l.98 1.57h.6l-1.06-1.62zm-.56-.41h-.6v-1.15h.76c.1-.01.19-.01.28 0 .1 0 .18.03.25.07.08.04.14.1.19.17.05.09.08.19.07.3a.56.56 0 01-.08.33.43.43 0 01-.2.18.9.9 0 01-.31.07c-.13.03-.27.03-.38.03h.02zm.05-2.97a3.15 3.15 0 00-2.99 1.9 3.2 3.2 0 002.25 4.4A3.15 3.15 0 00131.8 51a3.16 3.16 0 00-1.9-2.93 3.1 3.1 0 00-1.2-.25h.02zm0 5.83a2.63 2.63 0 01-2.5-1.57 2.67 2.67 0 011.86-3.68 2.63 2.63 0 013.2 2.6 2.62 2.62 0 01-2.57 2.65h.01z"/></g><defs><clipPath id="logo-durex_svg__logo-durex_svg__clip0_48_30"><path fill="#fff" d="M0 0h160v123H0z"/></clipPath></defs>
</svg>