<svg height="32" viewBox="0 0 32 32" width="32" xmlns="http://www.w3.org/2000/svg"><path d="m689 176c-8.836667 0-16 7.163333-16 16s7.163333 16 16 16 16-7.163333 16-16-7.163333-16-16-16zm6.508333 13.106667c.006667.136666.008334.273333.008334.406666 0 4.166667-3.168334 8.968334-8.965 8.968334-1.78 0-3.436667-.52-4.83-1.416667.245.03.496666.041667.751666.041667 1.476667 0 2.835-.501667 3.913334-1.348334-1.378334-.026666-2.541667-.936666-2.943334-2.186666.191667.035.388334.055.591667.055.286667 0 .566667-.038334.83-.11-1.441667-.29-2.528333-1.563334-2.528333-3.09v-.038334c.425.235.911666.378334 1.428333.395-.846667-.566666-1.401667-1.53-1.401667-2.625 0-.576666.155-1.12.426667-1.585 1.555 1.906667 3.875 3.16 6.495 3.295-.055-.231666-.081667-.471666-.081667-.72 0-1.738333 1.41-3.151666 3.151667-3.151666.905 0 1.725.383333 2.3.996666.718333-.143333 1.391667-.403333 2-.765-.235.735-.733333 1.353334-1.385 1.745.638333-.078333 1.245-.246666 1.81-.498333-.421667.631667-.956667 1.188333-1.571667 1.631667z" fill="#fff" transform="translate(-673 -176)"/></svg>