<svg height="32" viewBox="0 0 32 32" width="32" xmlns="http://www.w3.org/2000/svg"><path d="m628.671667 191.721667-3.743334-1.746667c-.326666-.151667-.595.018333-.595.38v3.29c0 .361667.268334.531667.595.38l3.741667-1.746667c.328333-.153333.328333-.403333.001667-.556666zm-2.671667-15.721667c-8.836667 0-16 7.163333-16 16s7.163333 16 16 16 16-7.163333 16-16-7.163333-16-16-16zm0 22.5c-8.19 0-8.333333-.738333-8.333333-6.5s.143333-6.5 8.333333-6.5 8.333333.738333 8.333333 6.5-.143333 6.5-8.333333 6.5z" fill="#fff" transform="translate(-610 -176)"/></svg>