<svg height="20" viewBox="0 0 19 20" width="19" xmlns="http://www.w3.org/2000/svg"><path d="m12.2474935 14.381377c-1.2528318.8433871-2.76185638 1.3356407-4.38589812 1.3356407-4.34183924 0-7.86159538-3.5183743-7.86159538-7.85850885 0-4.34013459 3.51975614-7.85850885 7.86159538-7.85850885 4.34183922 0 7.86159542 3.51837426 7.86159542 7.85850885 0 2.26451515-.9582011 4.30531825-2.4914208 5.73937765l5.3351717 5.3351718c.2440777.2440776.2440777.6398058 0 .8838834-.2440776.2440777-.6398058.2440777-.8838834 0zm-4.38589812.0782793c3.64714492 0 6.60374012-2.9554344 6.60374012-6.60114745 0-3.64571306-2.9565952-6.60114743-6.60374012-6.60114743-3.64714496 0-6.60374012 2.95543437-6.60374012 6.60114743 0 3.64571305 2.95659516 6.60114745 6.60374012 6.60114745z" fill="#fff"/></svg>