<svg height="32" viewBox="0 0 32 32" width="32" xmlns="http://www.w3.org/2000/svg"><path d="m822.496283 187.08525c.183639.495517.280709 1.01892.286967 1.547333.040083.878817.048517 1.142267.048517 3.367417s-.008517 2.488617-.048517 3.367417c-.006245.52842-.103315 1.051831-.286967 1.54735-.280366.726734-.854782 1.30115-1.581516 1.581516-.495522.183641-1.018931.28071-1.54735.286967-.8786.040067-1.142167.048517-3.367417.048517s-2.488817-.008517-3.367417-.048517c-.528419-.006257-1.051828-.103326-1.54735-.286967-.726734-.280366-1.30115-.854782-1.581516-1.581516-.183652-.495519-.280722-1.01893-.286967-1.54735-.040067-.878817-.048517-1.142417-.048517-3.367417s.008434-2.4886.048517-3.367417c.006257-.528419.103326-1.051828.286967-1.54735.280366-.726734.854782-1.30115 1.581516-1.581516.495522-.183641 1.018931-.28071 1.54735-.286967.878817-.040083 1.142284-.048517 3.367417-.048517s2.4886.008434 3.367417.048534c.528419.006256 1.051828.103326 1.54735.286966.726734.280367 1.30115.854783 1.581516 1.581517zm-6.496283 9.194033c1.134938.000005 2.223393-.450846 3.025915-1.253368s1.253373-1.890977 1.253368-3.025915c0-2.363383-1.9159-4.279283-4.279283-4.279283s-4.279283 1.9159-4.279283 4.279283 1.9159 4.279283 4.279283 4.279283zm4.448333-7.727616c.552285 0 1-.447716 1-1 0-.552285-.447715-1-1-1-.552284 0-1 .447715-1 1 0 .552284.447716 1 1 1zm-4.448333 6.22615c-1.534146 0-2.777817-1.243671-2.777817-2.777817s1.243671-2.777817 2.777817-2.777817 2.777817 1.243671 2.777817 2.777817-1.243671 2.777817-2.777817 2.777817zm0-18.777817c4.243471-.000022 8.313146 1.68568 11.313733 4.686267s4.686289 7.070262 4.686267 11.313733c0 8.836556-7.163444 16-16 16s-16-7.163444-16-16 7.163444-16 16-16zm8.283183 19.435833v.000034c.040584-.888867.05015-1.172684.05015-3.435867s-.009566-2.547-.050166-3.435883c-.013874-.691314-.144852-1.375272-.387367-2.0228-.432823-1.119401-1.317733-2.004311-2.437133-2.437134-.647529-.242515-1.331487-.373493-2.0228-.387366-.888867-.040584-1.172684-.05015-3.435867-.05015s-2.547.009566-3.435883.05015c-.691314.013873-1.375272.144851-2.0228.387366-1.119404.432827-2.004315 1.317743-2.437134 2.43715-.242515.647529-.373493 1.331487-.387366 2.0228-.040584.888867-.05015 1.172684-.05015 3.435867s.009566 2.547.050166 3.435883c.013874.691314.144852 1.375272.387367 2.0228.432823 1.119401 1.317733 2.004311 2.437133 2.437134.647529.242515 1.331487.373493 2.0228.387366.888867.040584 1.172684.05015 3.435867.05015s2.547-.009566 3.435883-.0502c.691314-.013873 1.375272-.144851 2.0228-.387366 1.119401-.432823 2.004311-1.317733 2.437134-2.437134.242515-.647528.373493-1.331486.387366-2.0228z" fill="#fff" transform="translate(-800 -176)"/></svg>