<svg width="152" height="52" viewBox="0 0 152 52" fill="none" xmlns="http://www.w3.org/2000/svg">
<path d="M0 0H142L115 42H0V0Z" fill="#D9D9D9"/>
<path d="M52 16C52 15.5858 51.6642 15.25 51.25 15.25H36.75C36.3358 15.25 36 15.5858 36 16C36 16.4142 36.3358 16.75 36.75 16.75H51.25C51.6642 16.75 52 16.4142 52 16Z" fill="#E00D0D"/>
<path d="M52 21C52 20.5858 51.6642 20.25 51.25 20.25H36.75C36.3358 20.25 36 20.5858 36 21C36 21.4142 36.3358 21.75 36.75 21.75H51.25C51.6642 21.75 52 21.4142 52 21Z" fill="#E00D0D"/>
<path d="M51.25 25.25C51.6642 25.25 52 25.5858 52 26C52 26.4142 51.6642 26.75 51.25 26.75H36.75C36.3358 26.75 36 26.4142 36 26C36 25.5858 36.3358 25.25 36.75 25.25H51.25Z" fill="#E00D0D"/>
<path d="M75.665 16.62C75.715 16.54 75.785 16.5 75.875 16.5H77.63C77.68 16.5 77.72 16.52 77.75 16.56C77.79 16.59 77.81 16.63 77.81 16.68V26.82C77.81 26.87 77.79 26.915 77.75 26.955C77.72 26.985 77.68 27 77.63 27H75.875C75.825 27 75.78 26.985 75.74 26.955C75.71 26.915 75.695 26.87 75.695 26.82V20.205C75.695 20.165 75.685 20.145 75.665 20.145C75.645 20.145 75.625 20.16 75.605 20.19L74.015 22.68C73.965 22.76 73.895 22.8 73.805 22.8H72.92C72.83 22.8 72.76 22.76 72.71 22.68L71.12 20.19C71.1 20.16 71.08 20.15 71.06 20.16C71.04 20.16 71.03 20.18 71.03 20.22V26.82C71.03 26.87 71.01 26.915 70.97 26.955C70.94 26.985 70.9 27 70.85 27H69.095C69.045 27 69 26.985 68.96 26.955C68.93 26.915 68.915 26.87 68.915 26.82V16.68C68.915 16.63 68.93 16.59 68.96 16.56C69 16.52 69.045 16.5 69.095 16.5H70.85C70.94 16.5 71.01 16.54 71.06 16.62L73.31 20.115C73.34 20.175 73.37 20.175 73.4 20.115L75.665 16.62ZM86.9277 18.135C86.9277 18.185 86.9077 18.23 86.8677 18.27C86.8377 18.3 86.7977 18.315 86.7477 18.315H81.8277C81.7777 18.315 81.7527 18.34 81.7527 18.39V20.715C81.7527 20.765 81.7777 20.79 81.8277 20.79H85.0527C85.1027 20.79 85.1427 20.81 85.1727 20.85C85.2127 20.88 85.2327 20.92 85.2327 20.97V22.425C85.2327 22.475 85.2127 22.52 85.1727 22.56C85.1427 22.59 85.1027 22.605 85.0527 22.605H81.8277C81.7777 22.605 81.7527 22.63 81.7527 22.68V25.11C81.7527 25.16 81.7777 25.185 81.8277 25.185H86.7477C86.7977 25.185 86.8377 25.205 86.8677 25.245C86.9077 25.275 86.9277 25.315 86.9277 25.365V26.82C86.9277 26.87 86.9077 26.915 86.8677 26.955C86.8377 26.985 86.7977 27 86.7477 27H79.8177C79.7677 27 79.7227 26.985 79.6827 26.955C79.6527 26.915 79.6377 26.87 79.6377 26.82V16.68C79.6377 16.63 79.6527 16.59 79.6827 16.56C79.7227 16.52 79.7677 16.5 79.8177 16.5H86.7477C86.7977 16.5 86.8377 16.52 86.8677 16.56C86.9077 16.59 86.9277 16.63 86.9277 16.68V18.135ZM94.4274 16.68C94.4274 16.63 94.4424 16.59 94.4724 16.56C94.5124 16.52 94.5574 16.5 94.6074 16.5H96.3624C96.4124 16.5 96.4524 16.52 96.4824 16.56C96.5224 16.59 96.5424 16.63 96.5424 16.68V26.82C96.5424 26.87 96.5224 26.915 96.4824 26.955C96.4524 26.985 96.4124 27 96.3624 27H94.6674C94.5674 27 94.4974 26.96 94.4574 26.88L90.5724 20.46C90.5524 20.43 90.5324 20.42 90.5124 20.43C90.4924 20.43 90.4824 20.45 90.4824 20.49L90.5124 26.82C90.5124 26.87 90.4924 26.915 90.4524 26.955C90.4224 26.985 90.3824 27 90.3324 27H88.5774C88.5274 27 88.4824 26.985 88.4424 26.955C88.4124 26.915 88.3974 26.87 88.3974 26.82V16.68C88.3974 16.63 88.4124 16.59 88.4424 16.56C88.4824 16.52 88.5274 16.5 88.5774 16.5H90.2724C90.3724 16.5 90.4424 16.54 90.4824 16.62L94.3524 23.01C94.3724 23.04 94.3924 23.055 94.4124 23.055C94.4324 23.045 94.4424 23.02 94.4424 22.98L94.4274 16.68ZM102.183 27.12C101.413 27.12 100.733 26.97 100.143 26.67C99.563 26.37 99.108 25.95 98.778 25.41C98.458 24.86 98.298 24.23 98.298 23.52V16.68C98.298 16.63 98.313 16.59 98.343 16.56C98.383 16.52 98.428 16.5 98.478 16.5H100.233C100.283 16.5 100.323 16.52 100.353 16.56C100.393 16.59 100.413 16.63 100.413 16.68V23.535C100.413 24.065 100.573 24.495 100.893 24.825C101.223 25.145 101.653 25.305 102.183 25.305C102.713 25.305 103.138 25.145 103.458 24.825C103.788 24.495 103.953 24.065 103.953 23.535V16.68C103.953 16.63 103.968 16.59 103.998 16.56C104.038 16.52 104.083 16.5 104.133 16.5H105.888C105.938 16.5 105.978 16.52 106.008 16.56C106.048 16.59 106.068 16.63 106.068 16.68V23.52C106.068 24.23 105.903 24.86 105.573 25.41C105.253 25.95 104.798 26.37 104.208 26.67C103.628 26.97 102.953 27.12 102.183 27.12Z" fill="#E00D0D"/>
</svg>
