<?xml version="1.0" encoding="UTF-8" standalone="no"?>
<svg width="124px" height="125px" viewBox="0 0 124 125" version="1.1" xmlns="http://www.w3.org/2000/svg" xmlns:xlink="http://www.w3.org/1999/xlink">
    <!-- Generator: Sketch 39.1 (31720) - http://www.bohemiancoding.com/sketch -->
    <title>Pan_American_Airlines_logo</title>
    <desc>Created with Sketch.</desc>
    <defs></defs>
    <g id="Page-2-Search-drop-down" stroke="none" stroke-width="1" fill="none" fill-rule="evenodd">
        <g id="Desktop" transform="translate(-646.000000, -443.000000)" fill="#000000">
            <g id="Pan_American_Airlines_logo" transform="translate(646.000000, 443.000000)">
                <g id="Pan_x5F_American_x5F_Airlines">
                    <path d="M19.3092527,107.160326 C16.3891209,104.264946 13.7047253,101.130435 11.375978,97.6487772 C10.988989,97.0699728 10.6817143,96.4279891 10.3158462,95.8077446 C9.96292308,95.2078804 9.56843956,94.6107337 9.22164835,94.0006793 C6.40507692,89.0434783 4.11107692,83.6365489 2.5201978,77.4653533 C0.980417582,71.4945652 0.213934066,63.6841033 0.981098901,56.3274457 C1.71283516,49.3118207 3.45496703,43.3097826 5.69991209,37.8152174 C7.34257143,33.7934783 9.57320879,30.0074728 11.8542637,26.5305707 C12.615978,25.3688859 13.4867033,24.2873641 14.3506154,23.2235054 C16.1009231,21.0679348 17.9520659,19.0516304 19.8890549,17.1209239 C20.8394945,16.173913 21.8648791,15.1902174 22.9325055,14.359375 C24.0253407,13.5088315 25.0868352,12.6372283 26.181033,11.8023098 C27.2725055,10.9701087 28.4743516,10.2221467 29.6687033,9.44972826 C33.1522857,7.19701087 37.1727473,5.21059783 41.2947253,3.65353261 C46.2485934,1.7826087 51.6957363,0.498641304 58.0837802,0.108016304 C65.3316484,-0.335597826 72.4814066,0.635869565 78.1888132,2.1875 C83.2373846,3.55978261 87.809033,5.59035326 91.8649231,7.88111413 C93.9374945,9.05163043 95.8404176,10.3709239 97.712,11.7336957 C98.6372308,12.4076087 99.4956923,13.1786685 100.413429,13.8817935 C101.32367,14.5794837 102.200527,15.3383152 103.046044,16.0978261 C106.460813,19.1650815 109.566264,22.6610054 112.175033,26.326087 C117.414374,33.6868207 121.626286,43.0951087 123.11633,54.1120924 C123.901209,59.9184783 123.843297,66.5822011 122.980066,72.1813859 C122.116154,77.7805707 120.724901,82.7744565 118.774286,87.3186141 C114.983429,96.1480978 109.344835,103.757473 102.533011,109.819973 C100.838571,111.328125 98.9778901,112.737772 97.0627033,114.047554 C96.1040879,114.702446 95.1788571,115.419837 94.1902637,116.025136 C89.2268571,119.063859 83.4533626,121.565897 77.1286813,123.184783 C72.0133407,124.493886 65.8392308,125.169837 59.6562637,124.923234 C50.5034286,124.558424 42.9414725,122.141984 36.3708352,119.127717 C34.1735824,118.119565 32.0601319,116.934783 30.1136044,115.718071 C26.1299341,113.226902 22.6184176,110.433424 19.3092527,107.160326 L19.3092527,107.160326 Z M60.1686154,1.9830163 C54.9326813,2.14605978 50.4870769,2.92255435 46.2179341,4.09646739 C45.8336703,4.20244565 44.6147912,4.46535326 44.5425714,4.74456522 C44.4778462,4.99524457 44.9152527,5.58899457 45.0896703,5.86956522 C46.6349011,8.34646739 48.4724176,10.2914402 50.7657363,12.0061141 C52.0459341,12.9633152 53.506,13.8152174 55.1772747,14.3586957 C56.8451429,14.9014946 58.7426154,15.3824728 60.8526593,15.3131793 C60.9684835,10.8960598 60.9194286,6.51358696 60.8185934,2.05095109 C60.6257802,1.89470109 60.3770989,1.97622283 60.1686154,1.9830163 L60.1686154,1.9830163 Z M77.641033,4.09646739 C73.3684835,2.92798913 68.1672967,1.93682065 62.9722418,1.9830163 C62.6738242,2.40625 62.8134945,2.98029891 62.8012308,3.4830163 C62.7256044,6.6875 62.835978,10.265625 62.835978,13.7112772 C62.835978,14.2663043 62.7453626,14.8580163 62.9722418,15.3478261 C65.0952308,15.419837 67.0022418,14.9701087 68.6823736,14.3933424 C73.251978,12.8247283 76.5284396,9.58084239 78.8374286,5.80163043 C79.0459121,5.46059783 79.3681758,5.1419837 79.3845275,4.71059783 C78.8721758,4.38654891 78.2480879,4.26222826 77.641033,4.09646739 L77.641033,4.09646739 Z M94.5997363,13.2336957 C94.7584835,13.0883152 95.2817363,12.6875 95.2497143,12.4150815 C95.234044,12.2798913 94.815033,12.0047554 94.5656703,11.8355978 C93.7494505,11.28125 92.9666154,10.8226902 92.1721978,10.3349185 C90.0103736,9.00883152 87.6884396,7.87567935 85.3338022,6.82336957 C84.1258242,6.28328804 82.8585714,5.68546196 81.606989,5.35733696 C81.4857143,5.32540761 81.5109231,5.42255435 81.4012308,5.39130435 C79.4710549,8.55027174 77.3521538,11.5067935 74.3577582,13.607337 C72.1155385,15.1813859 69.4318242,16.3899457 66.2882198,17.0169837 C65.1749451,17.2391304 64.0344176,17.2194293 62.9374945,17.4938859 C62.8598242,20.544837 62.823033,23.8559783 62.9715604,26.7330163 C66.5014725,26.8355978 69.7193407,26.3029891 72.6476484,25.6080163 C81.5054725,23.5067935 88.0059341,18.9932065 93.8468791,13.9476902 C94.0008571,13.7798913 94.2965495,13.5122283 94.5997363,13.2336957 L94.5997363,13.2336957 Z M59.2113626,17.2221467 C55.2515385,16.7425272 52.1937802,15.3634511 49.5012088,13.5400815 C48.0629451,12.5658967 46.7541319,11.1480978 45.6027033,9.79008152 C44.7646813,8.80027174 43.9225714,7.66508152 43.1758462,6.4830163 C42.8965055,6.04076087 42.6873407,5.25 42.1838462,5.42595109 C39.7529011,6.27513587 37.4963736,7.36413043 35.1063077,8.5625 C33.4241319,9.40557065 31.8843516,10.404212 30.2852967,11.392663 C30.0236703,11.5543478 28.8545275,12.1623641 28.8497582,12.517663 C28.8456703,12.7622283 29.3266813,13.1447011 29.4990549,13.3023098 C29.789978,13.5679348 30.1088352,13.7642663 30.2512308,13.9836957 C33.1788571,16.4911685 36.2897582,18.8233696 39.6541099,20.8702446 C43.0572967,22.9415761 46.9612527,24.4639946 51.3135165,25.5407609 C54.2186593,26.2601902 57.394967,26.7921196 60.8867253,26.7336957 C61.0202637,23.7819293 60.9725714,20.4211957 60.8867253,17.4605978 C60.3287253,17.2703804 59.7557363,17.2887228 59.2113626,17.2221467 L59.2113626,17.2221467 Z M58.1512308,28.5754076 C51.5444835,27.982337 46.0925714,26.3002717 41.2947253,23.9388587 C38.6689231,22.6290761 36.2277582,21.0108696 33.7382198,19.2336957 C31.6908571,17.7730978 29.7709011,16.0414402 27.8918242,14.3586957 C27.5974945,14.0951087 27.1301099,13.5747283 26.8316923,13.8131793 C23.8161758,15.9436141 21.1672088,18.4388587 18.7280879,21.1433424 C18.1523736,21.8125 17.4826374,22.4449728 16.8817143,23.1548913 C16.7202418,23.345788 16.3584615,23.7221467 16.3686813,23.9388587 C16.3795824,24.1732337 16.9805055,24.6616848 17.2584835,24.9273098 C18.2532088,25.8831522 19.3160659,26.7126359 20.336,27.484375 C24.6678242,30.7622283 29.5787692,33.3695652 35.1403736,35.2914402 C38.8521978,36.5740489 42.8617582,37.6460598 47.1758681,38.3254076 C51.4586374,39 56.2741978,39.576087 60.9214725,39.4850543 C61.0488791,36.0475543 61.0148132,32.1052989 60.9214725,28.8478261 C59.9976044,28.6392663 59.0635165,28.6569293 58.1512308,28.5754076 L58.1512308,28.5754076 Z M88.9590989,35.3600543 C92.6838681,34.1263587 96.038,32.4110054 99.2844835,30.5529891 C102.074484,28.9565217 104.566066,27.0095109 106.840989,24.8933424 C107.116242,24.6372283 107.728747,24.0951087 107.73011,23.8702446 C107.731473,23.6759511 107.369011,23.3342391 107.183011,23.1202446 C105.72567,21.4388587 104.239714,19.8552989 102.704022,18.4150815 C101.284154,17.0869565 99.4541319,15.4605978 97.7460659,14.2221467 C97.419033,13.984375 97.0456703,13.6052989 96.7547473,13.8125 C94.6705934,15.794837 92.4999121,17.6535326 90.1902418,19.4035326 C87.8785275,21.1548913 85.3188132,22.6657609 82.598989,24.0061141 C79.9002857,25.3362772 76.942,26.544837 73.7091429,27.3131793 C70.4394945,28.0903533 66.927978,28.6324728 63.006989,28.8131793 C62.8223516,29.6474185 62.9041099,30.560462 62.9041099,31.4728261 C62.9041099,33.3485054 62.9388571,35.1793478 62.9388571,36.8933424 C62.9388571,37.78125 62.8543736,38.6637228 63.0410549,39.484375 C72.7764176,39.5876359 81.5013846,37.8294837 88.9590989,35.3600543 L88.9590989,35.3600543 Z M108.926505,25.5754076 C103.698747,30.6555707 97.2493846,34.5421196 89.5736484,37.1671196 C83.8205934,39.1345109 77.4168791,40.5536685 70.3577363,41.15625 C67.9901538,41.3580163 65.5251429,41.3464674 63.006989,41.5658967 C62.8639121,44.1447011 62.9729231,47.0828804 62.9722418,49.8158967 C62.9722418,50.7391304 62.8904835,51.685462 63.0744396,52.5434783 C73.7636484,52.6569293 84.2893407,51.9449728 93.4714725,50.1915761 C98.0431209,49.3179348 102.431495,48.263587 106.601165,46.8505435 C110.166505,45.642663 113.598989,44.2228261 116.790286,42.622962 C117.187495,42.423913 118.018022,42.0794837 118.055495,41.8043478 C118.087516,41.5720109 117.783648,40.9850543 117.644659,40.6453804 C115.327495,34.9558424 112.664901,29.8369565 109.096835,25.5421196 L109.028022,25.5421196 C108.985099,25.5427989 108.981692,25.5849185 108.926505,25.5754076 L108.926505,25.5754076 Z M13.5650549,27.4504076 C13.1392308,28.0495924 12.7045495,28.6800272 12.3005275,29.2914402 C11.9074066,29.8858696 11.4284396,30.5380435 11.1381978,31.201087 C10.8227473,31.9205163 10.4119121,32.5434783 10.0433187,33.2126359 C9.31362637,34.5387228 8.60437363,35.9320652 8.02593407,37.3722826 C7.43795604,38.8376359 6.64558242,40.265625 6.28175824,41.8383152 C7.04074725,42.4972826 8.00685714,42.8566576 8.91505495,43.3043478 C11.6805275,44.6677989 14.5952088,45.8539402 17.702022,46.8498641 C25.945978,49.4932065 35.1962418,51.3485054 45.431011,51.997962 C50.5109231,52.3199728 55.7454945,52.7330163 60.9889231,52.5434783 C61.0570549,50.0455163 61.022989,46.9524457 61.022989,44.2248641 C61.022989,43.294837 61.0904396,42.3879076 60.9207912,41.5658967 C59.7720879,41.4069293 58.6227033,41.4232337 57.5012527,41.361413 C50.5776923,40.9789402 44.2966154,40.0163043 38.6961758,38.4293478 C30.2355604,36.0326087 22.9509011,32.4639946 17.1549231,27.3831522 C16.7931429,27.1589674 16.5103956,26.8070652 16.1295385,26.4626359 C15.8515604,26.2112772 15.3255824,25.6677989 15.0012747,25.6107337 C14.4657582,26.1447011 14.0310769,26.7941576 13.5650549,27.4504076 L13.5650549,27.4504076 Z M5.53026374,43.9850543 C5.49551648,43.9850543 5.48938462,44.0129076 5.46145055,44.0190217 C4.11584615,48.435462 2.95828571,53.5652174 2.72595604,59.0543478 C2.69189011,59.8505435 2.62512088,60.6596467 2.76002198,61.4408967 C3.90872527,61.6623641 5.07991209,61.4904891 6.24769231,61.5427989 C7.45567033,61.5978261 8.68681319,61.5427989 9.90637363,61.5427989 C27.1532747,61.5427989 43.8878242,61.560462 60.9548571,61.5088315 C60.9623516,61.470788 60.993011,61.4558424 61.0236703,61.4408967 C61.0856703,60.3552989 61.0577363,59.1684783 61.0577363,57.9972826 C61.0584176,56.8349185 61.1394945,55.6134511 60.9555385,54.6222826 C51.4266154,54.4408967 42.3425934,53.9904891 34.0121099,52.6786685 C25.6754945,51.3654891 18.0692527,49.3240489 11.2744615,46.5421196 C10.3901099,46.076087 9.47441758,45.6677989 8.47083516,45.2126359 C7.64303297,44.8369565 6.48887912,44.1616848 5.63314286,43.8824728 C5.58340659,43.9021739 5.54934066,43.9368207 5.53026374,43.9850543 L5.53026374,43.9850543 Z M121.475033,56.6677989 C121.096901,52.3947011 120.271824,48.3607337 119.08156,44.7357337 C118.958242,44.3607337 118.866264,43.9008152 118.602593,43.8831522 C118.43022,43.8722826 118.030286,44.1345109 117.782286,44.2581522 C117.094835,44.5998641 116.368549,44.9911685 115.730154,45.2805707 C112.815473,46.6039402 109.892615,47.7004076 106.840308,48.7927989 C102.744901,50.2581522 98.2393407,51.2880435 93.6424835,52.1338315 C84.9025275,53.7411685 75.2169011,54.5536685 65.0577582,54.5543478 C64.4070989,54.5543478 63.7223736,54.4755435 63.0744396,54.6569293 C62.9286374,55.1365489 62.9722418,55.6976902 62.9722418,56.2588315 C62.9722418,58.0502717 62.947033,59.8498641 63.0744396,61.4408967 C63.6045055,61.6365489 64.1986154,61.5427989 64.7504835,61.5427989 C69.0714066,61.5427989 73.3875604,61.5767663 77.7772967,61.5767663 C80.2395824,61.5767663 82.6446374,61.6243207 85.0265275,61.5427989 C87.4063736,61.4605978 89.7807692,61.6705163 92.1381319,61.5767663 C96.9271209,61.3858696 101.923231,61.6399457 106.875055,61.5427989 C111.808484,61.4456522 116.781429,61.6480978 121.68011,61.5088315 C121.821824,59.9599185 121.615385,58.2547554 121.475033,56.6677989 L121.475033,56.6677989 Z M39.3454725,63.4870924 C36.9724396,63.4870924 34.5844176,63.3763587 32.2338681,63.4870924 C29.8281319,63.6005435 27.3937802,63.3763587 24.9512527,63.453125 C22.5543736,63.5278533 20.120022,63.4870924 17.7367692,63.4870924 C15.3596484,63.4870924 12.9218901,63.4877717 10.4875385,63.4870924 C8.11450549,63.4870924 5.06832967,63.3505435 2.76002198,63.5557065 C2.60468132,64.3383152 2.69802198,65.1501359 2.76002198,65.9422554 C3.13610989,70.7561141 3.76224176,75.3451087 5.01654945,79.2724185 C5.22775824,79.9320652 5.35584615,80.6290761 5.70059341,81.2153533 C6.67828571,80.908288 7.56808791,80.357337 8.50421978,79.919837 C11.3371429,78.5951087 14.2286593,77.4028533 17.3252527,76.3396739 C25.5623956,73.513587 34.9455165,71.9436141 45.088989,71.0889946 C50.1954725,70.6589674 55.5240659,70.6528533 61.022989,70.4755435 C61.1796923,68.845788 61.0570549,66.9110054 61.0570549,65.2595109 C61.0577363,64.6616848 61.1367692,64.0686141 60.9548571,63.5550272 C53.7505934,63.4076087 46.2853846,63.4870924 39.3454725,63.4870924 L39.3454725,63.4870924 Z M119.424264,63.4870924 C113.900813,63.4870924 108.632857,63.4877717 103.114857,63.4870924 C89.9531429,63.4870924 76.5822637,63.4273098 63.1098681,63.5557065 C62.9265934,64.046875 63.006989,64.6419837 63.0076703,65.2262228 C63.0076703,65.8165761 63.006989,66.4361413 63.0076703,67.033288 C63.0076703,68.2513587 62.9531648,69.4599185 63.1098681,70.4429348 C63.7455385,70.6209239 64.4125495,70.5455163 65.0584396,70.5455163 C67.1296484,70.5455163 69.1742857,70.5889946 71.1787253,70.6820652 C76.4943736,70.9279891 81.6683077,71.2927989 86.5996923,71.875 C95.1924835,72.8899457 103.123714,74.8980978 110.123582,77.4320652 C112.175033,78.1745924 114.098396,79.0326087 115.969978,79.9211957 C116.919055,80.3716033 117.828615,80.904212 118.80767,81.2506793 C119.177626,80.7058424 119.307758,80.0183424 119.491714,79.3756793 C120.825055,74.7262228 121.753011,69.3838315 121.68011,63.5903533 C120.943604,63.4048913 120.17644,63.4870924 119.424264,63.4870924 L119.424264,63.4870924 Z M53.7063077,72.5896739 C52.4629011,72.5896739 51.2338022,72.7119565 50.0135604,72.7601902 C47.5580879,72.8580163 45.1250989,72.9673913 42.7643297,73.2377717 C38.0673187,73.7751359 33.5474505,74.2663043 29.2244835,75.1813859 C24.9383077,76.0889946 20.9151209,77.1745924 17.0867912,78.4884511 C15.1688791,79.1467391 13.3163736,79.8702446 11.5129231,80.6365489 C10.6265275,81.0129076 9.78169231,81.4925272 8.91505495,81.8980978 C8.04296703,82.3057065 7.1483956,82.6956522 6.38463736,83.2615489 C7.40593407,86.4347826 8.73246154,89.2044837 10.2824615,91.955163 C10.6653626,92.6351902 10.9821758,93.3389946 11.375978,94.0006793 C12.3557143,95.6440217 13.3708791,97.21875 14.5216264,98.7398098 C14.7328352,99.0183424 15.048967,99.5706522 15.3078681,99.5584239 C15.5013626,99.548913 16.0668571,98.8355978 16.2998681,98.6039402 C17.3082198,97.5978261 18.3847033,96.6963315 19.4107692,95.8763587 C23.716022,92.435462 28.8347692,89.5427989 34.4897143,87.5570652 C41.7437143,85.0101902 49.7798681,83.2486413 59.21,83.0230978 C59.8122857,83.0081522 60.452044,83.0591033 61.0563736,82.8865489 C61.1905934,79.3947011 61.1258681,75.8879076 61.0223077,72.5563859 C58.5981758,72.3607337 56.1195385,72.5896739 53.7063077,72.5896739 L53.7063077,72.5896739 Z M111.969956,95.9096467 C113.682791,93.388587 115.077451,90.6569293 116.414198,87.7955163 C117.085297,86.3586957 117.755714,84.8756793 118.158374,83.2955163 C117.804769,82.9572011 117.337385,82.7221467 116.893165,82.5115489 C113.644637,80.9694293 110.385209,79.4938859 106.772176,78.2839674 C100.660066,76.2377717 93.8938901,74.7764946 86.6337582,73.8172554 C79.3211648,72.8519022 71.3510989,72.5081522 63.178,72.5217391 C62.9504396,72.8444293 63.0410549,73.2900815 63.0410549,73.6807065 C63.0410549,76.7466033 62.9715604,80.033288 63.1432527,82.8858696 C63.7366813,83.0434783 64.353956,83.0101902 64.9555604,83.0224185 C69.4168352,83.1100543 73.5483516,83.5869565 77.4352747,84.283288 C86.4191429,85.8947011 94.0097143,88.6141304 100.480879,92.6365489 C103.297451,94.3872283 105.982527,96.3505435 108.242462,98.6025815 C108.566088,98.9252717 108.84611,99.3512228 109.302593,99.5230978 C110.335473,98.453125 111.122396,97.15625 111.969956,95.9096467 L111.969956,95.9096467 Z M59.8947253,84.9653533 C57.471956,85.078125 55.1145934,85.1005435 52.8512527,85.375 C50.6049451,85.6467391 48.4281319,85.9055707 46.3201319,86.294837 C42.1967912,87.0577446 38.2798901,88.185462 34.6614066,89.5339674 C29.2980659,91.5326087 24.4668352,94.2391304 20.3693846,97.580163 C19.4318901,98.3451087 18.3983297,99.3430707 17.4628791,100.23981 C17.1726374,100.517663 16.5907912,100.946332 16.6078242,101.262908 C16.6228132,101.549592 17.5541758,102.526495 17.7360879,102.72894 C20.2487912,105.521739 22.7955604,108.022418 25.8056264,110.331522 C26.0938242,110.552989 26.9836264,111.414402 27.3781099,111.388587 C27.652,111.370924 27.9885714,110.882473 28.1984176,110.672554 C29.0425714,109.830842 29.7824835,109.1875 30.5918901,108.422554 C36.3531209,103.35394 42.8631209,98.9320652 51.551978,96.8315217 C53.0222637,96.4755435 54.542967,96.1956522 56.1338462,95.9789402 C57.7315385,95.7608696 59.3714725,95.6610054 61.0918022,95.5013587 C61.2621319,93.8845109 61.1599341,92.1120924 61.1606154,90.3192935 C61.1606154,88.53125 61.2035385,86.7092391 61.0918022,85.0346467 C60.7484176,84.8376359 60.2858022,84.9476902 59.8947253,84.9653533 L59.8947253,84.9653533 Z M96.4467912,110.773777 C96.6661758,110.992527 97.0381758,111.446332 97.3018462,111.421875 C97.5069231,111.402853 97.8346374,111.110054 98.0874066,110.910326 C98.3647033,110.692255 98.6413187,110.519022 98.8395824,110.36481 C101.849648,108.02106 104.338505,105.522418 106.840308,102.693614 C107.037209,102.471467 107.991055,101.483016 107.968571,101.193614 C107.95222,100.970788 107.345846,100.470109 107.079451,100.204484 C103.574066,96.7078804 99.3117363,93.90625 94.736,91.6127717 C93.032022,90.7588315 91.1924615,90.091712 89.3678901,89.3627717 C87.5998681,88.65625 85.6022418,88.0679348 83.5896264,87.5557065 C77.5545055,86.0210598 70.7072527,84.9572011 63.2113846,84.9646739 C62.9824615,85.298913 63.0744396,85.7615489 63.0744396,86.1576087 C63.0751209,89.2751359 63.056044,92.53125 63.1773187,95.4653533 C64.0248791,95.673913 64.881978,95.6100543 65.7077363,95.669837 C66.5443956,95.7302989 67.3653846,95.8199728 68.1686593,95.9422554 C79.3545495,97.642663 87.2857802,102.397418 94.0867033,108.420516 C94.9799121,109.222147 95.5944615,109.923913 96.4467912,110.773777 L96.4467912,110.773777 Z M57.7751429,97.716712 C56.8887473,97.7961957 56.0466374,97.9211957 55.2106593,98.0570652 C50.2145495,98.8702446 46.0414725,100.424592 42.2179121,102.48913 C39.7092967,103.84375 37.4173407,105.399457 35.2085055,107.091712 C33.6298901,108.300951 31.9913187,109.652174 30.5237582,111.11481 C30.2907473,111.347826 29.0998022,112.331522 29.1563516,112.683424 C29.1890549,112.883832 29.6543956,113.076766 29.8744615,113.22894 C30.6348132,113.756114 31.5082637,114.366848 32.2338681,114.762908 C35.3025275,116.441576 38.3500659,118.07269 41.8077582,119.365489 C42.115033,119.480299 42.6253407,119.686821 42.8338242,119.638587 C43.0354945,119.591033 43.4177143,118.910326 43.6200659,118.615489 C43.9069011,118.19769 44.1453626,117.829484 44.3722418,117.524457 C48.1065495,112.51019 53.0726813,109.179348 61.1265495,108.592391 C61.2396484,105.052989 61.253956,101.034647 61.0924835,97.580163 C60.0725495,97.4877717 58.808022,97.6236413 57.7751429,97.716712 L57.7751429,97.716712 Z M94.1214505,111.148777 C93.605011,110.673913 93.1103736,110.178668 92.583033,109.717391 C89.4074066,106.936141 86.0750769,104.467391 82.1540879,102.421196 C77.0823516,99.7744565 70.8762198,97.658288 63.2801978,97.5461957 C63.0015385,97.8756793 63.1091868,98.3777174 63.1091868,98.8077446 C63.1091868,99.2751359 63.1016923,99.7771739 63.1091868,100.23913 C63.1507473,102.976223 63.071033,105.857337 63.2113846,108.523777 C64.3621319,108.768342 65.4658681,108.756114 66.528044,108.932745 C67.5568352,109.103261 68.5651868,109.39538 69.5026813,109.682745 C73.224044,110.824728 76.1652967,112.963995 78.5635385,115.512908 C79.4403956,116.444973 80.2423077,117.501359 81.0251429,118.615489 C81.2642857,118.955163 81.5592967,119.627038 81.8454505,119.672554 C82.023956,119.701087 82.5438022,119.507473 82.8374505,119.400136 C83.7797143,119.053668 84.830989,118.59375 85.6063297,118.275136 C88.0727033,117.261549 90.3278681,116.097147 92.4447253,114.797554 C93.5198462,114.137908 94.6433407,113.555707 95.5222418,112.684103 C95.246989,112.022418 94.6249451,111.612092 94.1214505,111.148777 L94.1214505,111.148777 Z M61.2287473,120.149457 C61.2185275,117.335598 61.2743956,114.264946 61.2287473,111.285326 C61.2212527,110.777174 61.1844615,110.588315 60.8185934,110.603261 C54.0238022,110.884511 49.3002198,114.292799 46.1504835,118.308424 C45.6708352,118.919158 45.1925495,119.567935 44.9193407,120.286005 C45.4276044,120.626359 46.0653187,120.737772 46.6635165,120.900136 C48.5371429,121.408967 50.4666374,121.869565 52.5099121,122.22962 C55.2242857,122.70788 58.1771209,122.997283 61.1606154,122.97962 C61.3643297,122.210598 61.2321538,121.090353 61.2287473,120.149457 L61.2287473,120.149457 Z M73.3671209,113.637908 C70.8537363,111.966033 67.4382857,110.720109 63.3830769,110.569293 C63.3421978,110.585598 63.3060879,110.605978 63.2808791,110.637908 C63.0717143,110.777853 63.1487033,111.544837 63.1439341,111.967391 C63.1112308,115.080163 63.1786813,118.222826 63.1786813,121.377038 C63.178,121.919158 63.0996484,122.491168 63.2808791,122.97962 C68.634,123.05231 73.6839341,122.112092 77.948989,120.934103 C78.5935165,120.756114 79.3198022,120.691576 79.7265495,120.286005 C78.1792747,117.586957 76.0133626,115.397418 73.3671209,113.637908 L73.3671209,113.637908 Z" id="Shape"></path>
                </g>
            </g>
        </g>
    </g>
</svg>