<?xml version="1.0" encoding="UTF-8" standalone="no"?>
<svg width="74px" height="120px" viewBox="0 0 74 120" version="1.1" xmlns="http://www.w3.org/2000/svg" xmlns:xlink="http://www.w3.org/1999/xlink">
    <!-- Generator: Sketch 39.1 (31720) - http://www.bohemiancoding.com/sketch -->
    <title>Long-Term_Credit_Bank_of_Japan_logo</title>
    <desc>Created with Sketch.</desc>
    <defs></defs>
    <g id="Page-2-Search-drop-down" stroke="none" stroke-width="1" fill="none" fill-rule="evenodd">
        <g id="Desktop" transform="translate(-864.000000, -226.000000)" fill="#000000">
            <g id="Long-Term_Credit_Bank_of_Japan_logo" transform="translate(864.000000, 226.000000)">
                <g id="Long-Term_x5F_Credit_x5F_Bank_x5F_of_x5F_Japan">
                    <path d="M36.4321633,0.0410126582 C39.9071429,-0.183797468 44.2625714,0.563544304 47.1878367,1.43848101 C53.5699592,3.3478481 58.3029388,6.31594937 62.6266531,10.196962 C64.7786939,12.1275949 66.4504898,14.4243038 68.0407347,16.8941772 C69.6158776,19.3397468 70.9962041,22.2167089 71.9929388,25.1362025 C73.0576327,28.2562025 73.8942857,31.2713924 73.8942857,35.3650633 C73.8927755,47.2906329 73.8957959,59.3255696 73.8942857,71.5716456 C73.8927755,75.6972152 73.9984898,79.7407595 73.7477959,83.5686076 C73.0198776,94.684557 68.6357551,102.85519 62.6266531,108.884051 C56.8924082,114.636456 48.0395918,119.526076 37.0906122,119.627848 C29.3719592,119.700759 23.2707347,117.309873 18.2870612,114.32962 C14.4405714,112.026835 11.1996735,109.348861 8.48281633,105.940253 C8.04485714,105.39038 7.73979592,104.693165 7.31240816,104.100759 C3.48555102,98.7797468 0.853265306,92.3483544 0.143469388,83.9362025 C-0.170653061,80.2298734 0.302040816,76.3321519 0.143469388,72.3827848 C-0.0135918367,68.4091139 0.143469388,64.3898734 0.143469388,60.3873418 C0.141959184,56.3650633 -0.116285714,52.3488608 0.0694693878,48.3918987 C0.256734694,44.4075949 -0.0347346939,40.4688608 0.143469388,36.6167089 C0.504408163,28.7665823 2.46314286,23.1144304 5.63155102,17.8511392 C7.17346939,15.2855696 8.76371429,12.8992405 10.8991429,10.9336709 C15.1609388,7.00708861 19.4740816,3.8643038 25.9724898,1.80759494 C29.1831837,0.789873418 32.5766122,0.290126582 36.4321633,0.0410126582 L36.4321633,0.0410126582 Z M55.6011837,108.516456 C59.7602857,105.531646 63.1673061,101.662785 65.5534286,96.8886076 C67.9999592,91.9898734 69.1371429,86.2405063 69.1371429,78.8582278 C69.1371429,71.8086076 69.2111429,64.4840506 69.2111429,57.2962025 C69.2111429,46.318481 70.2833878,34.8425316 67.4547755,26.8283544 C66.9639592,25.4339241 66.6800408,24.0850633 66.0653878,22.8546835 C63.0842449,16.8941772 58.5400408,12.1534177 52.820898,9.09265823 C48.240449,6.64253165 42.4624082,4.48253165 35.4082449,4.97164557 C32.116,5.19949367 29.1227755,5.81772152 26.4074286,6.73822785 C23.8914286,7.59189873 21.4841633,8.78886076 19.3834694,10.196962 C15.3134694,12.9281013 11.6436735,16.5706329 9.14126531,21.0151899 C8.56436735,22.0405063 7.83795918,23.283038 7.45889796,24.5483544 C7.0677551,25.8531646 6.52106122,27.1549367 6.142,28.5220253 C5.36122449,31.3336709 4.97159184,34.5068354 4.97159184,37.9412658 C4.97159184,51.6789873 4.97310204,66.1655696 4.97159184,80.036962 C4.97159184,83.5367089 5.11355102,86.6794937 5.84902041,89.6779747 C6.18579592,91.0465823 6.57995918,92.4486076 7.09342857,93.724557 C7.62502041,95.0475949 8.00257143,96.364557 8.63081633,97.4779747 C12.416898,104.201013 17.8173878,109.54481 25.3125306,112.344304 C27.8481633,113.289114 30.6390204,114.309873 33.7998776,114.258228 C34.2997551,112.944304 34.1532653,111.435949 34.0913469,109.988354 C34.0264082,108.451139 34.1653469,106.859241 34.1653469,105.277975 C34.1653469,97.3306329 34.0853061,89.2222785 34.2393469,81.4344304 C34.269551,79.9503797 34.5519592,78.3934177 34.0188571,77.0187342 C31.7807347,76.4081013 29.6649388,76.075443 27.7273469,75.3265823 C21.9221224,73.08 17.8506122,69.2946835 14.3393878,64.5812658 C9.69097959,58.3458228 6.89408163,49.8106329 7.60689796,39.118481 C7.97991837,33.5088608 9.73477551,28.4339241 11.7780816,24.0318987 C13.2203265,20.9225316 15.2651429,17.8283544 17.4111429,15.2020253 C18.0061633,14.4744304 19.1448571,12.8810127 19.898449,12.8460759 C21.1911837,12.7883544 22.8116327,14.8420253 24.1421224,14.6126582 C24.7839592,14.5017722 25.4212653,13.2243038 25.8244898,12.6987342 C26.425551,11.9164557 26.9042857,11.284557 27.5083673,10.7118987 C27.9599184,10.0389873 28.4960408,9.52405063 29.1892245,8.79797468 C29.658898,8.30734177 30.4774286,7.09518987 31.1660816,7.10582278 C31.5647755,7.11189873 32.19,7.69063291 32.7034694,8.06278481 C33.8633061,8.90734177 34.5685714,9.40253165 35.6287347,10.2713924 C36.1573061,10.7027848 36.6088571,11.3179747 37.1661224,11.3012658 C37.5889796,11.2891139 38.1477551,10.6587342 38.6295102,10.2713924 C39.130898,9.86886076 39.6005714,9.47848101 40.0204082,9.16708861 C40.7951429,8.59291139 42.2328571,7.16962025 43.0196735,7.18025316 C43.726449,7.19088608 44.4936327,8.36962025 44.9950204,8.87392405 C46.4115918,10.2987342 47.2316327,11.2541772 48.4337551,12.7731646 C48.9593061,13.435443 49.5513061,14.6202532 50.1886122,14.6870886 C51.4949388,14.8237975 53.1818367,12.8460759 54.5062857,12.9949367 C55.1133878,13.0632911 55.7688163,14.0020253 56.1886531,14.4668354 C56.7564898,15.0956962 57.1083673,15.843038 57.653551,16.2334177 C62.5496327,22.9291139 66.8824082,31.7893671 66.7978367,43.315443 C66.7706531,46.9913924 66.1348571,50.5837975 65.1169796,53.764557 C63.1673061,59.8602532 60.1831429,64.8349367 56.1176735,68.9240506 C53.1033061,71.9559494 49.5105306,74.4546835 44.9950204,75.841519 C43.453102,76.315443 41.7828163,76.4718987 40.092898,77.0187342 C39.7183673,78.4617722 39.8754286,79.9883544 39.8754286,81.5088608 C39.8754286,90.961519 39.7274286,100.473418 39.7274286,109.768101 C39.7274286,111.282532 39.500898,112.871392 40.0204082,114.256709 C46.4191429,113.852658 51.4602041,111.487595 55.6011837,108.516456 L55.6011837,108.516456 Z M31.3110612,12.3311392 C29.9896327,13.1756962 28.6561224,15.4389873 27.7983265,16.7468354 C28.2317551,17.281519 29.658898,18.9053165 30.5061224,18.8065823 C31.1102041,18.7367089 31.9982041,17.1949367 32.4089796,16.6724051 C33.1187755,15.7670886 33.9327755,15.1321519 34.1638367,14.3179747 C33.6594286,13.6146835 32.0691837,11.8435443 31.3110612,12.3311392 L31.3110612,12.3311392 Z M40.0883673,14.4637975 C40.0974286,14.7189873 40.6818776,15.3918987 40.8933061,15.6410127 C41.2406531,16.0511392 41.5623265,16.3913924 41.8462449,16.7453165 C42.3370612,17.3635443 43.2144898,18.841519 43.8215918,18.8794937 C44.3788571,18.9144304 46.4297143,17.3893671 46.4553878,16.8182278 C46.4886122,16.1118987 45.2472245,14.9893671 44.6990204,14.3164557 C44.0330204,13.4962025 43.2597959,12.0516456 42.3566939,12.2567089 C41.6559592,12.4162025 40.0717551,13.9321519 40.0883673,14.4637975 L40.0883673,14.4637975 Z M37.237102,25.4308861 C37.8532653,25.3898734 38.6446122,24.0440506 38.9919592,23.6643038 C39.4752245,23.1387342 40.5852245,22.3762025 40.6018367,21.6774684 C40.6199592,20.9407595 39.3966939,19.7741772 39.064449,19.323038 C38.7578776,18.9053165 37.9257551,17.4789873 37.0875918,17.4091139 C36.4684082,17.3574684 35.461102,18.9341772 35.0412653,19.4688608 C34.5247755,20.1250633 33.6050612,20.9711392 33.6488571,21.6774684 C33.7107755,22.6070886 34.8404082,22.7377215 35.3327347,23.6643038 C36.0606531,24.0637975 36.2509388,25.4962025 37.237102,25.4308861 L37.237102,25.4308861 Z M19.676449,20.2055696 C14.6142449,26.9483544 10.2089796,38.6339241 13.0179592,50.3043038 C14.3001224,55.6283544 16.6786939,60.2278481 19.8229388,63.9189873 C22.1380816,66.6364557 25.0346531,69.1367089 28.5307755,70.5417722 C29.7238367,71.0217722 31.0316735,71.636962 32.4089796,71.4987342 C32.3410204,70.6025316 31.7565714,69.9296203 31.3820408,69.2172152 C28.6923673,64.0921519 26.9631837,57.7746835 27.6518367,50.0096203 C28.2815918,42.9037975 30.2931837,36.9721519 33.0659184,32.0536709 C33.5008571,31.2805063 34.1925306,30.2992405 34.1638367,29.7721519 C34.1336327,29.2587342 33.4042041,28.5691139 32.9209388,28.0055696 C30.4306122,25.1058228 28.0097551,22.9124051 25.0180408,20.8678481 C23.8778367,20.0886076 22.3525306,18.9524051 21.0673469,18.6592405 C20.4526939,18.9250633 20.1959592,19.5129114 19.676449,20.2055696 L19.676449,20.2055696 Z M46.4553878,70.1741772 C50.7202041,68.1159494 53.8282041,64.9579747 56.4061224,61.195443 C59.7814286,56.2693671 62.4393878,49.681519 62.0391837,41.6202532 C61.6163265,33.0683544 58.8118776,26.1660759 54.9427347,20.7934177 C54.3386531,19.9549367 53.6092245,18.4465823 52.6004082,18.8810127 C50.1372653,19.9427848 47.7541633,22.0207595 45.7214286,23.6643038 C44.2580408,24.8339241 42.6481633,26.4956962 41.3327755,28.08 C40.9235102,28.5721519 40.1729388,29.2420253 40.1623673,29.8465823 C40.1533061,30.361519 40.8872653,31.3913924 41.2602857,32.0551899 C44.0541633,37.0359494 46.1201224,43.1179747 46.5278776,50.0855696 C46.7921633,54.5711392 46.479551,58.5205063 45.5039592,62.0810127 C44.7669796,64.7726582 43.7732653,67.0313924 42.6496735,69.2202532 C42.2932653,69.9159494 41.6650204,70.6450633 41.6982449,71.5017722 C43.4666939,71.5716456 45.073551,70.8410127 46.4553878,70.1741772 L46.4553878,70.1741772 Z M36.7236327,34.8501266 C35.3584082,36.8992405 34.3224082,39.7306329 33.5793878,42.6516456 C32.8680816,45.4329114 32.1869796,48.7974684 32.0404898,52.1453165 C31.8003673,57.6318987 33.0946122,62.161519 34.8947755,65.76 C35.2134286,66.3964557 36.2705714,69.0956962 37.089102,69.0713924 C37.7837959,69.0501266 38.8560408,66.6182278 39.2834286,65.76 C39.9947347,64.3397468 40.388898,63.004557 40.8223265,61.7118987 C43.3534286,54.1291139 41.7375102,44.2389873 39.1399592,38.163038 C38.6899184,37.1118987 37.821551,34.8288608 37.0181224,34.6298734 C36.9365714,34.675443 36.7236327,34.8501266 36.7236327,34.8501266 L36.7236327,34.8501266 Z" id="Shape"></path>
                </g>
            </g>
        </g>
    </g>
</svg>