<?xml version="1.0" encoding="UTF-8" standalone="no"?>
<svg width="124px" height="124px" viewBox="0 0 124 124" version="1.1" xmlns="http://www.w3.org/2000/svg" xmlns:xlink="http://www.w3.org/1999/xlink">
    <!-- Generator: Sketch 39.1 (31720) - http://www.bohemiancoding.com/sketch -->
    <title>AT_and_T_logo Copy</title>
    <desc>Created with Sketch.</desc>
    <defs></defs>
    <g id="Page-2-Search-drop-down" stroke="none" stroke-width="1" fill="none" fill-rule="evenodd">
        <g id="Desktop" transform="translate(-645.000000, -222.000000)" fill="#000000">
            <g id="AT_and_T_logo-Copy" transform="translate(645.000000, 222.000000)">
                <g id="AT_x5F_and_x5F_T">
                    <path d="M61.2041087,0.0357173913 C63.6113261,-0.0788478261 66.3696522,0.100413043 68.6306304,0.345043478 C75.5281304,1.0903913 81.6701739,2.83784783 86.9219783,5.15813043 C90.4930435,6.73576087 93.7682609,8.56408696 96.790087,10.6936522 C102.833739,14.9534565 108.090935,19.9673696 112.331196,25.9591304 C113.396652,27.4646522 114.400109,29.0207174 115.356391,30.6347391 C116.311326,32.2467391 117.129457,33.9416304 117.969152,35.7234565 C118.798065,37.4796739 119.467935,39.3457391 120.135783,41.2589783 C121.809783,46.0531957 122.925109,51.2470435 123.435935,57.2125217 C123.537696,58.3992826 123.480413,59.6278261 123.539043,60.891413 C123.766152,65.7638043 123.095609,70.6361957 122.163587,74.8164783 C121.691174,76.9366087 121.1945,78.9664348 120.548217,80.901913 C119.896543,82.8515435 119.287326,84.7674783 118.484696,86.5405435 C117.281761,89.2011522 115.968304,91.7141739 114.496478,94.1045435 C110.110652,101.228478 104.5165,107.255957 97.7524348,112.017826 C94.7541957,114.128522 91.6184783,116.136109 88.0905435,117.759565 C84.6192174,119.357413 80.8904565,120.768587 76.7445435,121.817196 C72.5770652,122.871196 67.9425652,123.570043 63.0951087,123.570717 C60.5146957,123.571391 58.0913043,123.470978 55.7373261,123.260717 C53.4224348,123.0545 51.2315435,122.652848 49.1006304,122.195261 C44.8906957,121.291543 41.0150217,120.022565 37.4796739,118.413261 C32.1867609,116.003348 27.426913,113.07587 23.211587,109.576913 C19.0050217,106.086043 15.1947174,102.152413 12.0367609,97.6459565 C10.1848478,95.0035435 8.43132609,92.2661087 6.98308696,89.2220435 C6.77619565,88.7887174 6.64882609,88.3061957 6.43317391,87.8472609 C3.10808696,80.7988043 0.928652174,72.7098261 0.69076087,62.783087 C0.450847826,52.7667174 2.71721739,43.9950652 5.74578261,37.0652174 C6.14136957,36.1588043 6.47428261,35.2362174 6.91434783,34.3837174 C8.23252174,31.8322826 9.62280435,29.3846304 11.1781957,27.0946739 C12.222087,25.5568043 13.352913,24.141587 14.4776739,22.6940217 C15.5788478,21.2781304 16.8013261,19.8891957 18.0878261,18.6026957 C21.8974565,14.7930652 26.1781522,11.3412826 31.0498696,8.45963043 C31.8484565,7.98721739 32.6598478,7.51278261 33.4907826,7.04980435 C37.6009783,4.76186957 42.3217391,3.07102174 47.484587,1.78923913 C51.6035435,0.766913043 56.0850652,0.0357173913 61.1346957,0.0357173913 C61.1582826,0.0357173913 61.1818696,0.0363913043 61.2041087,0.0357173913 L61.2041087,0.0357173913 Z M13.3097826,49.3742391 C13.2895652,49.6761522 13.1466957,50.0468043 13.0691957,50.3709565 C12.8319783,51.3636304 12.6149783,52.4317826 12.4505435,53.4655652 C11.7739348,57.714587 11.5872609,62.7588261 12.1068478,67.3899565 C12.7888478,73.4639348 14.2957174,78.2251304 16.4043913,82.9310652 C18.4578043,87.5123261 21.2019783,91.4526957 24.2440217,94.9307609 C26.6027174,97.627087 29.1049565,100.003304 31.9111304,102.151065 C32.8431522,102.864065 33.8607609,103.466543 34.8338913,104.213913 C35.7146957,104.890522 36.8158696,105.525348 37.8934565,106.104913 C38.9710435,106.683804 40.1086087,107.270109 41.1942826,107.755326 C43.4680652,108.770913 45.8645,109.74337 48.4489565,110.436826 C53.6832391,111.841261 59.930413,112.663435 66.2591304,112.121609 C69.3025217,111.860804 72.0689348,111.338522 74.717413,110.677413 C82.5482826,108.721043 89.0919783,105.004413 94.3148043,100.466283 C101.378761,94.3282826 107.160261,86.7359783 110.198935,76.6737826 C111.757022,71.5163261 112.707913,65.7233696 112.399935,59.1048696 C112.11487,52.9837174 110.686848,47.5668043 108.790457,42.842 C104.999022,33.3984565 99.0793696,26.217913 91.3239783,20.6311739 C90.8387609,20.282087 90.4067826,19.8885217 89.9141522,19.5657174 C86.4084565,17.2663261 82.6527391,15.2991739 78.2588261,13.8583478 C73.446413,12.2800435 67.5557391,10.903913 60.9641957,11.2105435 C57.5265652,11.3702609 54.4245435,11.6674565 51.5091957,12.3103696 C42.788087,14.2343913 36.0401957,17.8863261 30.1913043,22.7277174 C22.8052174,28.8913261 16.9502609,36.9412174 13.8253261,47.345087 C13.7161522,47.7069783 13.6959348,48.1726522 13.5503696,48.4112174 C13.3401087,48.7569348 13.2619348,48.2413913 13.0341522,48.5486957 C12.9849565,49.0561522 13.3455,48.8492609 13.3097826,49.3742391 L13.3097826,49.3742391 Z" id="Shape"></path>
                    <path d="M69.1461739,20.7679783 C69.2721957,23.382087 69.0673261,26.3257391 69.2492826,28.8825652 C69.2560217,28.9101957 69.2843261,28.9169348 69.2836522,28.9513043 C72.0628696,29.0355435 75.2188043,29.1346087 78.0512609,29.0887826 C79.6100217,29.0631739 81.1748478,28.9425435 82.3838478,29.1575217 C85.9050435,29.7842609 87.8951087,32.8384348 88.916087,35.9653913 C89.6317826,38.152913 89.7733043,40.9139348 89.9128043,43.8387174 C90.1075652,47.9105 90.4687826,52.3023913 90.7039783,56.4226957 C90.745087,57.141087 90.7659783,57.8318478 90.8414565,58.519913 C91.0611522,60.5227826 91.5153696,62.1792609 92.2856522,63.7461087 C93.2284565,65.665413 94.6861304,67.3825435 96.6863043,68.2161739 C97.7881522,68.6751087 99.1002609,68.6953261 100.572087,68.766087 C100.729783,74.4532391 100.650261,80.4315217 100.572087,86.3700435 C100.581522,86.4259783 100.539065,86.4293478 100.537043,86.4731522 C90.3185,86.5991739 79.4981522,86.3983478 69.1812174,86.5418913 C68.9958913,87.8802826 69.0774348,89.4633043 69.0781087,90.976913 C69.0781087,92.5134348 69.1043913,94.0337826 68.975,95.4119348 C66.8036522,95.5628913 64.4402391,95.4806739 62.0640217,95.4806739 C59.714087,95.4813478 57.3351739,95.5433478 55.1537174,95.3775652 C54.971087,92.6030652 55.1752826,89.4417391 55.0506087,86.6099565 C55.0007391,86.590413 54.9663696,86.5560435 54.9475,86.5068478 C44.369087,86.3410652 33.9193913,86.5708696 23.591,86.335 C23.5445,80.6775 23.498,74.2611739 23.6253696,68.6623043 C25.1814348,68.6131087 26.4221087,68.5726739 27.5448478,68.1123913 C30.5781304,66.8690217 32.3377174,63.8337174 33.1834783,60.3765435 C33.4813478,59.1581087 33.5864783,57.8089348 33.6996957,56.4226957 C33.8088696,55.0775652 33.9207391,53.700087 34.0433913,52.3313696 C34.294087,49.5218261 34.6094783,46.7217174 34.7314565,44.1143478 C34.8702826,41.1322826 34.9268913,38.3422826 35.6250652,36.1028696 C36.3030217,33.9281522 37.4695652,32.0075 39.0633696,30.636087 C39.8707174,29.9412826 40.8735,29.3549783 42.0205,29.1231522 C43.2187174,28.8812174 44.7491739,28.9196304 46.3187174,28.9856739 C49.1208478,29.1036087 52.3232826,29.0247609 55.1206957,28.9513043 C55.2763696,27.0373913 55.2231304,24.7730435 55.2238043,22.6596522 C55.2238043,21.9608043 55.1173261,21.2390435 55.3612826,20.6655435 C59.3454565,20.6412826 63.4273478,20.6655435 67.5328261,20.6655435 C68.0631957,20.6648696 68.6353478,20.584 69.1461739,20.7679783 L69.1461739,20.7679783 Z M82.7962826,70.7595217 C80.1437609,69.245913 79.7697391,65.3520435 79.4961304,61.4763696 C79.3155217,58.9195435 79.0594348,56.3593478 78.7736957,53.8436304 C78.4825652,51.2780435 78.3383478,48.7057174 77.9831957,46.2452609 C77.6395,43.8717391 77.120587,41.532587 75.4728696,40.400413 C74.5866739,39.7905217 73.4747174,39.7123478 71.9658261,39.7123478 C66.3797609,39.7123478 60.6636304,39.6779783 55.2905217,39.6779783 C53.9332609,39.6779783 52.5598261,39.6153043 51.2342391,39.6779783 C48.1315435,39.8242174 46.787087,42.5501957 46.3517391,45.6259348 C46.1253043,47.2271522 46.0329783,48.8613913 45.8705652,50.4740652 C45.5437174,53.7162609 45.2236087,56.9409348 44.8738478,60.1696522 C44.5133043,63.4940652 44.5766522,66.8710435 43.051587,69.0403696 C42.3203913,70.0802174 41.3344565,71.0607609 39.8195,71.1719565 C39.0788696,71.2265435 38.4312391,71.0789565 37.7903478,71.2406957 C37.6676957,71.772413 37.7216087,72.4712609 37.7216087,73.1316957 C37.7216087,73.8143696 37.641413,74.515913 37.8247174,75.0226957 C54.0808478,75.1797174 70.0957174,75.2086957 86.4064348,75.0914348 C86.5877174,74.593413 86.5095435,73.8783913 86.5095435,73.2004348 C86.5095435,72.5218043 86.5843478,71.8094783 86.4064348,71.3094348 C84.838913,71.2090217 83.7350435,71.2952826 82.7962826,70.7595217 L82.7962826,70.7595217 Z" id="Shape"></path>
                </g>
            </g>
        </g>
    </g>
</svg>