<?xml version="1.0" encoding="UTF-8" standalone="no"?>
<svg width="131px" height="132px" viewBox="0 0 131 132" version="1.1" xmlns="http://www.w3.org/2000/svg" xmlns:xlink="http://www.w3.org/1999/xlink">
    <!-- Generator: Sketch 39.1 (31720) - http://www.bohemiancoding.com/sketch -->
    <title>Olympic_Games_Munich_1972_logo</title>
    <desc>Created with Sketch.</desc>
    <defs></defs>
    <g id="Page-2-Search-drop-down" stroke="none" stroke-width="1" fill="none" fill-rule="evenodd">
        <g id="Desktop" transform="translate(-447.000000, -214.000000)" fill="#000000">
            <g id="Olympic_Games_Munich_1972_logo" transform="translate(447.000000, 214.000000)">
                <g id="Olympic_x5F_Games_x5F_Munich_x5F_1972">
                    <path d="M79.4356897,1.60889143 C79.361908,2.58418286 79.046454,3.52477714 78.8153218,4.46009143 C77.1748103,11.0789486 75.6043161,17.7860571 74.0353276,24.4924114 C74.3771322,24.8061943 74.9116724,24.7609371 75.3852299,24.8220343 C75.8422241,24.8801143 76.3097586,24.9811886 76.772023,25.0777371 C77.701069,25.2730971 78.6865805,25.3213714 79.3987989,25.7362286 C79.1465862,26.8306971 78.6707701,27.8701029 78.2679828,28.9162971 C75.8602931,35.1708343 73.3983966,41.5264457 70.9334885,47.85264 C70.5284425,48.8920457 70.0104655,49.9224 69.6935057,50.9602971 C69.5067931,51.5720229 69.5128161,52.2621943 69.0001092,52.6416 C69.3283621,49.4426743 69.6159598,46.2641143 69.9856207,43.1013943 C70.1678161,41.5370057 70.3906667,39.9839314 70.5690977,38.4218057 C71.0042586,34.6194514 71.4228563,30.7273371 71.919,26.8337143 C72.0108506,26.1163886 72.2141264,25.37568 72.1011954,24.6402514 C71.0343736,24.1937143 69.0174253,24.5610514 67.7955115,24.3845486 C67.6509598,17.1305829 67.7970172,9.03936 67.7955115,1.46331429 C67.7955115,0.921737143 67.6938736,0.306994286 67.905431,0.07392 C67.9317816,0.0392228571 67.970931,0.0173485714 68.0145977,0 C70.0940345,0.0407314286 72.0883966,0.286628571 73.9984368,0.548365714 C75.9032069,0.809348571 77.7530172,1.06882286 79.4356897,1.60889143 L79.4356897,1.60889143 Z" id="Shape"></path>
                    <path d="M56.0100287,0.767862857 C56.3194598,1.19856 56.2682644,1.76578286 56.3390345,2.26662857 C57.365954,9.55076571 58.235523,17.2610743 59.2579253,24.6032914 C59.3264368,25.0943314 59.2729828,25.6562743 59.5500402,26.1013029 C61.1160172,25.8908571 62.6172471,25.1056457 64.2938966,25.0045714 C64.4903966,25.5024 64.4038161,26.0560457 64.4038161,26.5772571 C64.4023103,33.5016 64.1478391,41.0293714 64.1478391,48.0351771 C64.1478391,49.1122971 64.1561207,50.2067657 64.0025345,51.2522057 C63.5568333,50.3282057 63.3806609,49.3001143 63.1269425,48.2916343 C61.8568448,43.2401829 60.6432126,38.0295771 59.4408736,32.9381486 C59.081,31.4144914 58.6804713,29.92704 58.3100575,28.3679314 C58.1956207,27.8859429 58.1790575,27.3353143 57.8357471,26.9423314 C56.8735747,27.1150629 55.8105172,27.6596571 54.8430747,28.1122286 C54.5968851,28.22688 54.1097759,28.5580114 53.894454,28.5142629 C53.5631897,28.4471314 53.3516322,27.4461943 53.2010575,27.0524571 C50.6126782,20.2744457 48.0905517,13.65936 45.5014195,6.83609143 C45.3229885,6.36466286 45.1498276,5.8344 44.9179425,5.26416 C44.7470402,4.84628571 44.2953161,3.98790857 44.3706034,3.69222857 C44.4413736,3.41616 45.1859655,3.30678857 45.647477,3.18006857 C47.0124368,2.80518857 48.4805402,2.40918857 49.8063506,2.04713143 C51.7397299,1.51913143 53.7265632,1.27172571 55.6079943,0.804068571 C55.6885517,0.784457143 55.8406322,0.749005714 56.0100287,0.767862857 L56.0100287,0.767862857 Z" id="Shape"></path>
                    <path d="M90.783,4.93529143 C93.6145575,5.88946286 96.0222471,7.18457143 98.4457471,8.62752 C98.7988448,8.83721143 99.1843161,9.11780571 99.5773161,9.39538286 C99.9371897,9.64957714 100.594448,9.92489143 100.635103,10.1994514 C100.675759,10.4694857 100.154017,11.1181714 99.9417069,11.4425143 C98.1837471,14.1285257 96.409977,17.0008457 94.6143736,19.5955886 C93.0227989,21.8954057 91.5388851,24.2088 89.9811897,26.5410514 C89.4594483,27.3209829 88.9437299,28.1039314 88.5213678,28.9162971 C88.8067069,29.3009829 89.3081207,29.4231771 89.7259655,29.6479543 C90.5586437,30.0967543 91.2836609,30.4980343 92.170546,31.0373486 C92.4272759,31.1934857 93.2622126,31.52688 93.3021149,31.8052114 C93.3352414,32.0382857 92.9490172,32.38752 92.754023,32.60928 C91.2972126,34.2702171 89.7892069,35.9877257 88.3760632,37.6539429 C84.1833103,42.4217829 80.059069,47.2582629 75.8602931,52.0208229 C75.2286322,52.6951543 74.563092,53.4298286 73.9269138,54.14112 C73.7296609,54.3606171 73.5820977,54.6834514 73.270408,54.7256914 C73.5399368,53.8296 74.0360805,53.0172343 74.4742529,52.20336 C75.7782299,49.7843657 76.9527126,47.2605257 78.1964598,44.7819429 C79.8482644,41.49024 81.5331954,38.20608 83.1955402,34.9121143 C84.2420345,32.6583086 85.4647011,30.5810057 86.441931,28.25856 C85.4940632,27.4288457 83.9055,27.2425371 82.8296437,26.5410514 C83.9378736,22.9129371 85.3841437,19.3926857 86.697908,15.7562743 C87.7971034,12.7134857 88.9715862,9.51380571 90.128,6.36164571 C90.2951379,5.90605714 90.461523,5.38333714 90.6753391,5.04541714 C90.6941609,4.99261714 90.7310517,4.95565714 90.783,4.93529143 L90.783,4.93529143 Z" id="Shape"></path>
                    <path d="M46.9612414,33.1576457 C47.6606609,32.83632 48.1108793,32.2962514 48.785454,31.7682514 C49.0519713,31.5593143 49.327523,31.3360457 49.6979368,31.0735543 C49.8982011,30.9317486 50.4583391,30.4271314 50.7188333,30.4889829 C50.9356609,30.5387657 51.1976609,31.4431543 51.3392011,31.8044571 C53.3493736,36.9215314 55.1758448,42.2158629 57.103954,47.3419886 C57.8214425,49.2480686 58.5713046,51.1096457 59.1472529,53.0443886 C58.7828621,52.8701486 58.5682931,52.4809371 58.3454425,52.1671543 C54.7361667,47.1157029 51.2428333,41.7640457 47.6538851,36.6673371 C47.0365287,35.9583086 46.6375057,35.0282743 45.939592,34.4007086 C45.2529713,34.7574857 44.5844195,35.5902171 43.932431,36.2283429 C43.7524943,36.4048457 43.4167126,36.76992 43.2390345,36.7767086 C42.712023,36.79632 42.3288103,35.6618743 41.926023,35.49744 C37.5525805,30.3607543 33.124931,25.2813943 28.6438276,20.2533257 C27.8630977,19.3044343 27.0085862,18.4302171 26.2353851,17.4745371 C25.5540345,16.7647543 25.0857471,16.1749029 24.4111724,15.3904457 C24.2477989,15.20112 23.848023,14.8752686 23.8638333,14.6587886 C23.8811494,14.4106286 24.6430575,13.9731429 24.9577586,13.7453486 C27.6379885,11.8000457 30.6035575,9.96260571 33.4960977,8.33485714 C33.9433046,8.08292571 34.2271379,8.9496 34.4816092,9.43158857 C35.6568448,11.6589943 36.8079885,13.8087086 37.9478391,16.0119771 C38.4108563,16.9058057 38.9702414,17.7687086 39.3346322,18.64368 C39.4121782,18.8307429 39.4573506,19.0947429 39.5168276,19.2282514 C40.0302874,20.3921143 40.7507874,21.5552229 41.377931,22.7371886 C42.9371322,25.6743771 44.4165287,28.5391543 45.9757299,31.47408 C46.2851609,32.0586514 46.5102701,32.7005486 46.9612414,33.1576457 L46.9612414,33.1576457 Z" id="Shape"></path>
                    <path d="M101.510695,38.7506743 C101.963925,39.6490286 102.728092,40.2358629 103.29877,41.0173029 C103.688759,41.4774171 104.187914,42.1381714 104.648672,42.7348114 C104.788707,42.9150857 105.033391,43.1632457 105.013063,43.3563429 C104.977678,43.71312 103.774586,44.1445714 103.334908,44.3799086 C101.577701,45.3167314 99.8415747,46.2377143 98.1167414,47.1579429 C93.3992356,49.67424 88.7216322,51.9808457 84.0319828,54.4692343 C81.6754885,55.71984 79.3250172,56.9772343 76.9165747,58.0520914 C77.2463333,57.4848686 77.7921667,57.08736 78.2672299,56.6626971 C78.7505747,56.2304914 79.2497299,55.8209143 79.7262989,55.3834286 C82.6007701,52.8037714 85.5113793,50.26032 88.3738046,47.6701029 C91.7052701,44.6303314 95.093954,41.6592 98.4442414,38.6035886 C98.9034943,38.1842057 99.4177069,37.7399314 99.7211149,37.1779886 C98.9238218,35.8074514 97.576931,34.9882971 96.547,33.8508343 C96.964092,33.0678857 97.6062931,32.4531429 98.1521264,31.7674971 C98.7009713,31.0788343 99.1993736,30.3562286 99.7211149,29.6464457 C100.753305,28.2449829 101.899178,26.9219657 102.968259,25.5521829 C105.115454,22.8035657 107.361276,20.1243429 109.536328,17.3998629 C109.923305,17.1864 110.4985,17.9610514 110.813201,18.2770971 C112.904684,20.3717486 114.890011,22.4075657 116.833931,24.74736 C117.095178,25.0611429 117.686937,25.7264229 117.673385,25.9542171 C117.659833,26.1759771 117.013868,26.6096914 116.724011,26.8314514 C112.917483,29.73696 109.26981,32.6070171 105.522006,35.5321371 C104.138224,36.6152914 102.735621,37.6501714 101.510695,38.7506743 L101.510695,38.7506743 Z" id="Shape"></path>
                    <path d="M16.6031207,24.5663314 C18.0252989,25.8456 19.471569,27.1014857 20.8719138,28.4048914 C25.2318046,32.1589714 29.5103851,35.9862171 33.8619943,39.7734857 C35.2999828,41.0256 36.6416034,42.41952 38.204569,43.53888 C38.829454,42.7921371 39.1772816,41.8047771 39.6636379,40.9441371 C40.0189943,40.3150629 40.5414885,39.7885714 41.0135402,39.2982857 C41.4359023,39.51024 41.7091954,39.9371657 41.9990517,40.2856457 C44.0431034,42.74688 46.1150115,45.3046629 48.1650862,47.81568 C49.9810172,49.9156114 51.7600575,52.0411886 53.5293103,54.2127771 C54.1097759,54.9263314 54.8257586,55.5599314 55.2436034,56.40624 C53.7182816,55.5780343 52.3322414,54.51072 50.8656437,53.5188343 C47.3113276,51.1141714 43.7223793,48.6476571 40.1010575,46.1343771 C39.7908736,45.9186514 39.5032759,45.6154286 39.079408,45.3303086 C38.8159023,45.1530514 38.2655517,44.6084571 37.9854828,44.6356114 C37.6248563,44.6710629 37.2077644,45.9141257 37.073,46.2075429 C36.7831437,46.8381257 36.5572816,47.4762514 36.2342989,47.85264 C34.9702241,47.3970514 33.8348908,46.6472914 32.6581494,46.0250057 C29.1776149,44.1837943 25.6391092,42.3357943 22.1495402,40.4319771 C18.0870345,38.2143771 13.9439713,36.1446171 9.88974713,33.8877943 C9.3296092,33.5762743 8.74312069,33.2768229 8.24697701,32.8642286 C8.3440977,32.3807314 8.68063218,31.98624 8.94112644,31.5857143 C10.7706092,28.75488 12.7024828,25.9074514 14.9242126,23.43264 C15.4497184,23.2282286 16.1438678,24.3136457 16.6031207,24.5663314 L16.6031207,24.5663314 Z" id="Shape"></path>
                    <path d="M128.585534,47.9997257 C128.328052,48.3112457 127.874822,48.3414171 127.526994,48.4379657 C122.572333,49.8152914 117.406115,51.0606171 112.421339,52.4228571 C111.663948,52.6295314 110.839552,52.7185371 110.195845,53.1175543 C110.379546,54.0951086 110.832023,54.9896914 111.181356,55.9317943 C111.528431,56.8686171 111.815276,57.8574857 112.056948,58.89312 C111.442603,59.1744686 110.73942,59.1744686 110.086678,59.2581943 C102.582787,60.2221714 94.9207931,61.1122286 87.3544138,62.0731886 C84.5898621,62.4239314 81.8283218,62.7927771 79.0712989,62.9866286 C79.5922874,62.5725257 80.2540632,62.3794286 80.8593736,62.1463543 C85.2554023,60.4469486 89.6800402,58.71888 94.0685402,56.95536 C97.8464598,55.4362286 101.536293,54.0860571 105.415851,52.5322286 C105.943615,52.3210286 106.601626,52.0577829 107.313092,51.8005714 C107.790414,51.6285943 108.955862,51.2605029 109.064276,50.9602971 C109.171184,50.66688 108.806793,50.0521371 108.699885,49.7896457 C108.35808,48.9606857 108.058437,48.3723429 107.678989,47.5969371 C107.538954,47.3118171 107.145954,46.6985829 107.167034,46.5002057 C107.193385,46.26336 107.796437,45.9865371 108.116408,45.8055086 C112.701408,43.2085029 117.32104,40.8151543 121.908299,38.27472 C122.599437,37.8922971 123.304879,37.4533029 124.025379,37.1417829 C124.407086,36.9765943 124.75642,37.8900343 124.937862,38.27472 C126.341971,41.2616914 127.823626,44.6401371 128.585534,47.9997257 L128.585534,47.9997257 Z" id="Shape"></path>
                    <path d="M2.70055747,44.05104 C7.88936207,45.9480686 13.1203276,48.0366857 18.2451379,49.9367314 C22.1615862,51.3894857 25.9944655,52.8512914 29.957592,54.2874514 C31.2690977,54.7626514 32.5467241,55.3298743 33.8981322,55.6768457 C34.1714253,55.3751314 34.1345345,54.8780571 34.191,54.4699886 C34.2482184,54.04608 34.3257644,53.6274514 34.4093333,53.2269257 C34.5817414,52.4085257 34.7511379,51.6082286 35.1396207,51.0342171 C35.9188448,51.3216 36.6303103,51.7749257 37.3651149,52.2041143 C41.9666782,54.8878629 46.6668678,57.5256 51.3038161,60.2101029 C51.6124943,60.3881143 52.1206839,60.5434971 52.2162989,60.9048 C46.0698391,59.65344 40.2441034,58.0815086 34.1548621,56.7735771 C33.8032701,57.816 34.1541092,59.4120686 33.8988851,60.4658057 C32.4857414,60.5005029 31.0673276,60.25536 29.6662299,60.0637714 C22.6840805,59.1096 15.5204885,58.4571429 8.57598276,57.4320686 C6.48751149,57.1235657 4.38774713,56.8980343 2.30002874,56.59104 C1.62695977,56.4922286 0.907965517,56.5555886 0.292867816,56.2259657 C0.510448276,51.7885029 1.38227586,47.6912229 2.59214368,44.1257143 C2.61774138,44.0902629 2.6568908,44.0691429 2.70055747,44.05104 L2.70055747,44.05104 Z" id="Shape"></path>
                    <path d="M130.591943,72.27264 C126.445868,71.8472229 122.249351,71.3146971 118.040034,70.7738743 C116.647971,70.5951086 115.242356,70.39296 113.84427,70.3356343 C113.675626,71.17968 113.808132,72.26208 113.84427,73.29696 C113.880408,74.3484343 113.862339,75.4014171 113.735103,76.2582857 C112.371649,76.0772571 111.057885,75.6601371 109.720782,75.3440914 C105.72227,74.3974629 101.707948,73.4432914 97.7169655,72.4197257 C93.7131839,71.3923886 89.7071437,70.5392914 85.602477,69.5677714 C84.274408,69.2539886 82.9809713,68.7938743 81.6257989,68.6543314 C81.4074655,69.1793143 81.6453736,70.1613943 81.4067126,70.6652571 C80.546931,70.4480229 79.8512759,69.9336 79.1443276,69.5315657 C78.9199713,69.4040914 78.552569,69.3445029 78.5239598,69.0194057 C79.392023,68.75616 80.4867011,68.7199543 81.3698218,68.47104 C81.6220345,68.3692114 81.4300517,67.8253714 81.6619368,67.7039314 C91.0005805,67.62096 100.118632,67.77936 109.538586,67.7770971 C110.829764,67.7763429 112.143529,67.8947657 113.406851,67.7039314 C113.522793,65.9992457 113.044718,64.0735543 113.005569,62.4028114 C113.659063,62.15088 114.393115,62.1523886 115.085759,62.0739429 C118.542954,61.6824686 122.232787,61.3302171 125.813454,60.9040457 C127.252948,60.7320686 128.713523,60.6604114 130.082247,60.4280914 C130.630339,60.3360686 130.576132,60.8799086 130.630339,61.5979886 C130.808017,63.9943543 130.922454,66.7316571 130.848672,69.3482743 C130.818557,70.3914514 130.826086,71.4587657 130.591943,72.27264 L130.591943,72.27264 Z" id="Shape"></path>
                    <path d="M51.7043448,66.1682057 C46.3363563,67.0778743 40.4797529,67.4980114 35.101977,68.3978743 C35.095954,69.5873829 35.7494483,70.6237714 35.9045402,71.6518629 C35.7080402,71.9603657 35.2939598,71.9437714 34.9920575,72.0169371 C25.8197989,74.2428343 16.5526782,76.6791771 7.33449425,78.8522743 C6.6441092,79.0152 5.93565517,79.1539886 5.2543046,79.3274743 C4.60306897,79.4941714 3.91117816,79.5726171 3.32017241,79.9120457 C3.83212644,82.4343771 4.89970115,84.7153371 5.69172414,87.07776 C5.20612069,87.4707429 4.54133333,87.7505829 3.86751149,88.06512 C3.71618391,88.1360229 3.34501724,88.3457143 3.21100575,88.3208229 C2.9362069,88.2702857 2.70055747,87.3696686 2.59063793,87.0415543 C1.51026437,83.8169829 0.447206897,79.9618286 0,76.4038629 C0.522494253,76.0501029 1.50725287,76.1594743 2.00716092,75.7823314 C1.72031609,73.45008 0.843971264,71.1962743 0.730287356,68.6912914 C1.13533333,68.4725486 1.80463793,68.6158629 2.26238506,68.6173714 C10.3038276,68.65584 18.6983678,68.3586514 26.7827241,68.3616686 C28.1522011,68.3616686 29.5231839,68.2877486 30.8693218,68.2885029 C32.1973908,68.2885029 33.5164253,68.3058514 34.8098621,68.1421714 C34.7451149,66.9534171 34.3844885,65.6862171 34.2263851,64.3767771 C34.1766954,63.9656914 34.0396724,63.50784 34.2263851,63.1344686 C39.668908,63.9679543 45.3531034,64.8504686 50.7557241,65.8762971 C51.0606379,65.9336229 51.4619195,65.9177829 51.7043448,66.1682057 L51.7043448,66.1682057 Z" id="Shape"></path>
                    <path d="M52.799023,70.9564114 C52.7591207,71.2830171 52.3811782,71.4006857 52.1425172,71.5409829 C48.4097701,73.7374629 44.6318506,75.9067886 40.8674828,78.2314971 C40.5911782,78.4019657 40.1680632,78.6010971 40.1379483,78.7791086 C40.0844943,79.0944 40.5663333,79.5092571 40.8313448,79.83888 C41.0639828,80.12928 41.5736782,80.5267886 41.5608793,80.82624 C41.5480805,81.1309714 40.6604425,81.6046629 40.3208966,81.8498057 C39.8292701,82.2050743 39.4716552,82.5550629 39.0801609,82.8371657 C33.0315747,87.1976914 26.8150977,91.6962514 20.8003908,95.9971886 C19.6304253,96.82464 18.5131609,97.7026286 17.2972701,98.4833143 C16.2123793,99.3816686 14.940023,100.094469 13.904069,101.042606 C14.1284253,101.606057 14.5372356,102.056366 14.8895805,102.504411 C15.2419253,102.953211 15.6153506,103.38768 15.9842586,103.82064 C16.5361149,104.436891 17.0638793,105.053897 17.7354425,105.68448 C17.8942989,105.834583 18.2842874,106.140823 18.2827816,106.342971 C18.280523,106.570766 17.8566552,106.83552 17.6624138,107.000709 C16.9848276,107.58 16.3448851,108.240754 15.6198678,108.718971 C14.9889598,108.28224 14.5613276,107.610171 14.0870172,107.000709 C13.1496897,105.793851 12.2063391,104.576434 11.3141839,103.272274 C10.8760115,102.633394 10.3640575,102.032229 9.99966667,101.372229 C9.69550575,100.820091 9.38682759,100.289074 9.05104598,99.7633371 C8.71752299,99.2398629 8.31473563,98.7337371 8.13931609,98.1174857 C8.71677011,97.7124343 9.31906897,97.4310857 9.99966667,97.0215086 C10.2195057,96.8887543 10.5409828,96.8042743 10.5831437,96.6194743 C10.6493966,96.3351086 10.2797356,95.8991314 10.146477,95.66832 C9.93943678,95.3130514 9.84382184,94.9947429 9.7083046,94.71792 C9.29347126,93.8716114 8.66406897,92.9845714 8.1762069,92.0492571 C8.0421954,91.7958171 7.72824713,91.25424 7.77492529,91.0618971 C7.82837931,90.8333486 8.45627586,90.64704 8.68665517,90.5497371 C9.07513793,90.3875657 9.37478161,90.30912 9.67216667,90.1477029 C18.9144425,86.31744 28.2192069,82.5264 37.4765402,78.6327771 C38.0630287,78.3853714 38.7391092,78.2458286 39.1915862,77.7547886 C38.6705977,76.5102171 37.6549713,75.5658514 37.257454,74.3182629 C37.4336264,74.0399314 37.8273793,74.0482286 38.0961552,73.9893943 C40.2403391,73.5247543 42.4989598,73.0156114 44.7372529,72.56304 C47.3120805,72.0440914 49.9027184,71.43312 52.4,70.9911086 C52.4760402,70.9797943 52.6409195,70.9322743 52.799023,70.9564114 L52.799023,70.9564114 Z" id="Shape"></path>
                    <path d="M76.5529368,73.4055771 C77.4895115,73.5805714 78.6941092,73.9162286 79.8000805,74.2096457 C80.1049943,74.2911086 80.6320057,74.5143771 80.8578678,74.4661029 C81.1198678,74.4102857 81.1085747,73.9426286 81.369069,73.8815314 C81.6935575,73.8053486 82.9689253,74.4759086 83.3024483,74.6124343 C85.221523,75.3976457 87.2294368,76.10064 89.067954,76.8428571 C96.6516494,79.9060114 104.382908,82.9661486 111.946276,85.9086171 C112.329489,85.5865371 112.364874,85.0057371 112.493615,84.5199771 C112.622356,84.0342171 112.761638,83.5220571 112.894897,83.0212114 C113.165178,82.0014171 113.324034,80.9197714 113.625184,79.9505143 C116.183448,80.5117029 118.663414,81.2546743 121.141121,81.9606857 C122.991684,82.48944 124.840741,82.9917943 126.723678,83.4964114 C127.318448,83.6555657 127.944839,83.8079314 128.474862,84.1179429 C127.702414,87.1652571 126.713138,90.0911314 125.629753,92.8548343 C125.272891,93.7629943 124.973247,94.7043429 124.425155,95.4865371 C123.317678,95.0309486 122.259891,94.3965943 121.178011,93.7690286 C118.329138,92.1163886 115.437351,90.47808 112.420586,88.8706971 C112.168374,88.73568 111.747517,88.4686629 111.581132,88.5048686 C111.276218,88.572 111.042828,89.7079543 110.924626,90.0768 C110.376534,91.7912914 109.847264,93.4522286 109.027385,94.8295543 C108.346787,94.5768686 107.770839,94.0835657 107.20242,93.6596571 C105.510713,92.3977371 103.748236,91.1524114 101.984253,89.9312229 C100.814287,89.12112 99.7286437,88.1948571 98.5541609,87.3719314 C93.9096839,84.1149257 89.2554195,80.77344 84.6154598,77.4651429 C83.4567874,76.6384457 82.292092,75.8034514 81.0762011,75.0521829 C80.720092,75.3584229 80.612431,75.9090514 80.4196954,76.3676571 C80.2201839,76.8428571 80.082408,77.3437029 79.7624368,77.6838857 C79.3551322,77.5202057 79.1044253,77.0864914 78.8507069,76.7334857 C78.3372471,76.0191771 77.8094828,75.3433371 77.2448276,74.6124343 C76.9640057,74.2496229 76.6500575,73.8890743 76.4784023,73.5157029 C76.4784023,73.4538514 76.5070115,73.4214171 76.5529368,73.4055771 L76.5529368,73.4055771 Z" id="Shape"></path>
                    <path d="M55.4626897,75.2709257 L55.5357184,75.2709257 C55.394931,75.8019429 54.9560057,76.1511771 54.6232356,76.5864 C52.6582356,79.1600229 50.6028908,81.5790171 48.5663678,84.2273143 C48.3194253,84.5478857 47.5966667,85.1935543 47.6177471,85.5427886 C47.6373218,85.8784457 48.195954,86.0677714 48.5302299,86.2744457 C48.8163218,86.4501943 49.4412069,86.7504 49.4788506,86.9691429 C49.5142356,87.1765714 49.1325287,87.6253714 48.9307586,87.9195429 C47.1208506,90.5663314 45.3643966,93.2470629 43.5672874,95.85312 C43.1645,96.4361829 42.7044943,96.9845486 42.3273046,97.5706286 C38.4823793,103.537029 34.428908,109.365394 30.504931,115.300869 C30.8045747,115.788137 31.380523,115.999337 31.8548333,116.288229 C32.7906552,116.857714 33.7611092,117.424937 34.7375862,118.005737 C35.2224368,118.294629 35.7532126,118.505829 36.1605172,118.882971 C35.7381552,119.986491 35.1117644,120.849394 34.5185,121.917463 C34.3829828,122.160343 34.1247471,122.785646 33.8981322,122.830903 C33.5548218,122.900297 32.8666954,122.317989 32.5482299,122.13696 C30.3528506,120.884846 28.2937414,119.561829 26.2353851,118.26144 C25.3914138,117.727406 24.5534655,117.191863 23.8999713,116.543177 C24.2598448,115.855269 24.8937644,115.443429 25.395931,114.89808 C25.6052299,114.601646 25.8333506,114.38064 26.1254655,114.057051 C26.3204598,113.841326 26.7977816,113.444571 26.7827241,113.180571 C26.7548678,112.693303 25.6074885,112.418743 25.4328218,112.00992 C23.997092,110.950903 22.4747816,109.97712 21.2363046,108.72048 C21.6059655,108.083863 22.2240747,107.649394 22.7684023,107.185509 C24.3915977,105.799886 25.9492931,104.257371 27.5852874,102.834789 C30.6381897,99.9390857 33.9771839,97.1784 37.2183046,94.1341029 C37.9930115,93.4054629 38.8580632,92.72736 39.6259943,91.94064 C41.4998966,90.0232457 43.5273851,88.2740571 45.5736954,86.4215314 C45.8853851,86.1386743 46.6977356,85.5850286 46.7045115,85.28784 C46.7105345,85.0140343 46.1616897,84.7040229 45.974977,84.5561829 C45.1784368,83.9271086 44.1846437,83.2927543 43.6034253,82.5822171 C43.9783563,82.1568 44.5023563,81.8920457 44.9902184,81.5948571 C47.4212471,80.1149486 49.9087414,78.6335314 52.3600977,77.09856 C53.3403391,76.4853257 54.3228391,75.8064686 55.3158793,75.3071314 C55.371592,75.2799771 55.4295632,75.3146743 55.4626897,75.2709257 L55.4626897,75.2709257 Z" id="Shape"></path>
                    <path d="M77.7936724,80.7545829 C78.1746264,80.6738743 78.182908,80.2182857 78.4863161,80.0598857 C79.1729368,80.3842286 79.6269195,80.9401371 80.1644713,81.41232 C86.0466724,86.5346743 91.8242241,91.7626286 97.7154598,96.8759314 C98.7747529,97.8127543 99.8212471,98.7631543 100.853437,99.7271314 C101.332264,100.246834 101.945856,100.630766 102.422425,101.153486 C102.717552,101.342057 102.919322,101.584937 103.224236,101.848183 C103.441063,102.034491 103.80696,102.478766 104.10058,102.46896 C104.438621,102.457646 104.796989,101.749371 105.01231,101.446149 C105.324,101.008663 105.582236,100.6368 105.814874,100.312457 C106.436747,99.4518171 106.826736,98.6266286 107.420753,98.0827886 C109.323264,99.1961143 111.127902,100.460297 112.930282,101.701851 C113.832977,102.324137 114.759011,102.92304 115.666977,103.53024 C116.575695,104.13744 117.525069,104.692594 118.330644,105.43104 C117.172724,107.159109 115.780661,108.652594 114.462379,110.220754 C113.788557,110.994651 113.157649,111.812297 112.41908,112.523589 C111.924443,113.084023 111.447874,113.606743 110.850092,114.205646 C110.67392,114.382149 110.472902,114.680846 110.266615,114.680846 C109.941374,114.680846 109.400057,113.862446 109.171937,113.621074 C108.123937,112.510011 107.050339,111.337097 106.070851,110.257714 C104.617805,108.658629 103.307805,107.146286 101.911224,105.834583 C101.506178,106.025417 101.216322,106.447063 100.889575,106.821943 C100.245868,107.559634 99.7467126,108.203794 99.0277184,108.978446 C98.827454,109.194171 98.2944195,109.93488 97.969931,109.9296 C97.6100575,109.922057 96.8142701,108.515314 96.6200287,108.211337 C95.4410287,106.364091 94.141569,104.565874 92.8616839,102.800846 C91.1059828,100.380343 89.5136552,97.8972343 87.8626034,95.5619657 C86.1558391,93.1482514 84.5401724,90.6802286 82.8996609,88.28688 C81.6529023,86.4675429 80.4129195,84.6625371 79.142069,82.8401829 C78.7294943,82.2495771 78.3907011,81.5775086 77.8283046,81.12192 C76.9813218,81.8218971 76.5250805,82.9110857 75.5659195,83.49792 C74.9892184,82.5882514 74.6955977,81.50208 74.289046,80.4634286 C73.8824943,79.4247771 73.3697874,78.4359086 73.0490632,77.3557714 C73.038523,77.2969371 73.0836954,77.2931657 73.0852011,77.2471543 C73.8614138,77.6386286 74.7754023,78.43968 75.4936437,79.0016229 C76.2939483,79.6246629 77.0242356,80.2899429 77.7936724,80.7545829 L77.7936724,80.7545829 Z" id="Shape"></path>
                    <path d="M59.5131494,78.0127543 L59.5861782,78.0127543 C58.8167414,81.8105829 57.7190517,85.2818057 56.8863736,89.0162743 C57.116,89.4318857 58.0179425,89.17392 58.3454425,89.4914743 C57.8440287,92.3132571 57.1016954,95.0731886 56.4474483,97.8632914 C54.4990115,106.180046 52.4444195,114.51264 50.5727759,122.941029 C50.9431897,123.271406 51.5229023,123.264617 52.0318448,123.343063 C53.5541552,123.579909 55.3384655,123.82656 56.9578966,124.0008 C57.0377011,125.031909 56.8939023,126.170126 56.8118391,127.290994 C56.7305287,128.40432 56.6605115,129.531223 56.4474483,130.508777 C54.3777989,130.360937 52.3992471,129.811063 50.4997471,129.338126 C49.5518793,129.102789 48.6017529,128.857646 47.6907759,128.570263 C46.7963621,128.288914 45.8771034,128.028686 45.0632471,127.619863 C45.1694023,126.711703 45.5172299,125.872937 45.7935345,125.024366 C46.0675805,124.184091 46.4048678,123.360411 46.5960977,122.465074 C46.2121322,122.034377 45.5511092,122.026834 44.9909713,121.880503 C43.8616609,121.585577 42.7233161,121.265006 41.633908,120.930103 C41.0971092,120.764914 40.4978218,120.668366 40.1010575,120.308571 C41.2695172,117.636137 42.6676034,115.073074 43.8955402,112.448914 C44.5061207,111.144754 45.1844598,109.859451 45.8296724,108.573394 C49.0685345,102.118971 52.281046,95.6494629 55.388908,89.05248 C55.0230115,88.70928 54.3966207,88.6572343 53.8568103,88.50336 C53.304954,88.3472229 52.7320172,88.2378514 52.3608506,87.9187886 C52.5151897,87.4247314 52.864523,87.0151543 53.1634138,86.6033143 C54.0284655,85.4130514 54.9176092,84.1541486 55.8270805,82.9465371 C57.0422184,81.3338743 58.1429195,79.6389943 59.4032299,78.0851657 C59.4303333,78.0519771 59.4694828,78.0301029 59.5131494,78.0127543 L59.5131494,78.0127543 Z" id="Shape"></path>
                    <path d="M87.061546,117.420411 C85.9653621,117.81792 85.0212586,118.43568 83.9965977,118.919177 C82.9726897,119.404183 81.928454,119.902766 80.7487011,120.235406 C80.1878103,118.907109 79.9890517,117.468686 79.6178851,116.067977 C78.5096552,111.893006 77.4940287,107.622994 76.4430172,103.383154 C75.7405862,100.549303 75.0020172,97.7048914 74.3628276,94.86576 C73.8832471,92.7349029 73.3298851,90.6538286 72.7938391,88.5041143 C72.6259483,87.8297829 72.5371092,87.1026514 72.1742241,86.4939429 C71.1194483,86.7775543 70.4885402,87.4858286 69.4375287,87.7732114 C69.227477,87.1313143 69.2508161,86.4049371 69.2184425,85.68912 C69.120569,83.5371429 68.9587011,81.2999314 68.8894368,79.1087314 C68.9203046,79.11552 68.924069,79.0936457 68.9263276,79.0717714 L68.9263276,78.9616457 L69.0362471,78.9616457 C69.4172011,79.4541943 69.6392989,80.0991086 69.8749483,80.7530743 C70.3402241,82.0444114 70.9349943,83.0144229 71.5531034,84.3351771 C71.6743161,84.5946514 72.1463678,85.94784 72.4655862,86.0172343 C72.9557069,86.1235886 73.407431,85.2161829 73.8523793,85.2486171 C74.1889138,85.2735086 74.7912126,86.7692571 74.9463046,87.0770057 C78.5134195,94.1303314 82.2243333,101.073531 85.7108908,108.133646 C86.7438333,110.22528 87.9303621,112.6488 89.104092,114.859611 C89.2742414,115.178674 89.5106437,115.662926 89.687569,115.70064 C90.0414195,115.77456 90.8296782,115.152274 91.1473908,114.968983 C92.1057989,114.415337 92.8616839,113.933349 93.8103046,113.323886 C94.1189828,113.125509 94.8191552,112.489646 95.1609598,112.519817 C95.4410287,112.544709 95.8483333,113.298994 96.0365517,113.579589 C96.8097529,114.736663 97.6153276,115.898263 98.3350747,116.979909 C98.880908,117.799063 99.2957414,118.31424 99.8679253,119.282743 C100.196178,119.839406 100.560569,120.433783 100.962603,121.037211 C101.060477,121.184297 101.308172,121.51392 101.291609,121.658743 C101.259236,121.926514 100.339224,122.330811 100.123149,122.462811 C97.6552299,123.978171 95.0239368,125.12016 92.2782069,126.301371 C91.9153218,126.457509 91.1541667,126.876137 90.854523,126.813531 C90.4690517,126.733577 89.978931,124.923291 89.8336264,124.510697 C89.1018333,122.438674 88.2909885,120.595954 87.5712414,118.55184 C87.4387356,118.173943 87.4048563,117.710811 87.061546,117.420411 L87.061546,117.420411 Z" id="Shape"></path>
                    <path d="M65.2779023,89.05248 C65.851592,89.1814629 66.2664253,88.8533486 66.8468908,88.8699429 C67.1661092,89.50128 67.1179253,90.2329371 67.2112816,90.9170743 C68.060523,97.1429486 68.7998448,103.669783 69.6558621,109.999749 C69.8531149,111.452503 69.9178621,112.904503 70.0940345,114.350469 C70.3545287,116.484343 70.6752529,118.585783 70.9327356,120.71136 C71.0155517,121.393989 71.0057644,122.096229 71.2978793,122.722286 C73.4029138,122.563886 75.3197299,121.901623 77.3547471,121.552389 C78.0549195,124.286674 78.6858276,127.091109 79.1797126,130.032823 C77.4548793,130.52688 75.5260172,130.777303 73.5595115,131.020183 C71.5907471,131.263063 69.5188391,131.505943 67.4296149,131.349806 C67.2880747,130.169349 67.4665057,128.819177 67.4665057,127.437326 C67.4665057,126.093943 67.6389138,124.698514 67.4665057,123.526354 C65.5700172,123.447154 63.3407586,124.04304 61.3358563,123.855223 C61.4051207,120.97008 61.7649943,118.105303 62.0292529,115.227703 C62.6812414,108.122331 63.2564368,100.867611 63.9264943,93.7320686 C64.0597529,92.3140114 64.2344195,90.8808686 64.1817184,89.4552686 C63.279023,89.2206857 62.0721667,89.66496 61.189046,89.4552686 C61.2929425,88.5953829 61.6076437,87.7649143 61.8831954,86.9321829 C62.4237586,85.2938743 62.9605575,83.6419886 63.5252126,81.9968914 C63.8128103,81.1596343 64.0123218,80.2469486 64.3639138,79.51152 C64.3955345,79.4813486 64.3857471,79.4112 64.4376954,79.4013943 L64.5107241,79.4013943 C64.7064713,80.9114743 64.8299425,82.5814629 64.9120057,84.22656 C64.9526609,85.04496 65.0196667,85.8746743 65.0573103,86.6757257 C65.0979655,87.4941257 65.0445115,88.3125257 65.2779023,89.05248 L65.2779023,89.05248 Z" id="Shape"></path>
                </g>
            </g>
        </g>
    </g>
</svg>