<svg xmlns="http://www.w3.org/2000/svg" width="0px" height="25px" viewBox="0 0 0 25" style="position: absolute; inset: auto 0px -12.5px; stroke-dasharray: 66.3663; stroke-dashoffset: 0px;"><g stroke-linecap="round"><path d="M-10.8864244304574 9.73560511121581 C-5.003763587420638 9.868913331255715, -1.249658120561005 10.92620904313712, 10.42430164936545 9.351203729043664 M-33.591978330772925 18.634933676888398 C-19.419409892716622 16.21614834044966, -5.203807723200606 17.23669212214714, 34.214185119444764 18.571194629839056 M-33.21014265163507 18.393227927199668 C-19.554263753006044 17.368182470983708, -4.878639195200419 13.978849777985452, 9.494741826234284 10.567289698128533" stroke="#D1A836" stroke-width="2" fill="none"/><path d="M9.912735079884225 9.081724190509025 C4.337230910267987 9.199491020257017, -1.89083758611299 10.360925661538474, -9.651127339766845 10.331274456666282 M10.348959077529704 10.003578325834713 C3.2419644595111192 9.678110875323764, -2.705017829381964 10.312706031039617, -10.380217485839362 9.994027316628081 M-10.861399212998059 10.248180727046456 C-18.900190811410617 13.318614999540229, -25.87496397004101 15.612673674598343, -40.863832665402654 20.050342995503733 M-9.5289940936352 9.901494836140124 C-19.17836853779779 12.491353448708587, -27.6447924251054 15.816396549260267, -40.12557477933192 20.402790430183693 M-40.568995096704576 19.793551303116935 C-22.32950534095134 20.931724512490767, -4.303608532819217 21.85864684251399, 39.24564816755819 20.43758674823907 M-40.0991980870996 19.63256126048838 C-20.471908826100545 21.94933029394214, -0.8859663587586466 22.25001994602055, 40.435746445167055 20.49844751273642 M39.3156121967319 20.320508291302627 C30.833585694066233 16.80897643151836, 22.290104282248837 14.162169975280884, 9.613698991159946 9.89462829857549 M39.54707493991281 19.526896481486684 C30.433266585000762 15.73874494241583, 21.572412706213925 12.234662183889814, 10.163372673263227 10.319886714983518" stroke="false" stroke-width="1" fill="none"/></g></svg>