<svg xmlns="http://www.w3.org/2000/svg" width="236px" height="72px" viewBox="0 0 236 72" style="position: absolute; inset: 0px; transform: translate(0px, 0px); stroke-dasharray: 692.749; stroke-dashoffset: 693px;"><g style="transform-origin: 50% 50%; transform: rotate(-180.6deg);"><path d="M71.16830422995264 7.357442194750764 C84.18785993113914 5.153904631927434, 104.0597254381056 3.9010528784637035, 119.90766941540136 3.9763463065413447 C135.75561339269711 4.051639734618986, 152.1027210449709 5.966837733946196, 166.25596809372718 7.809202763216611 C180.40921514248345 9.651567792487025, 194.46659409309206 11.611074391551794, 204.82715170793904 15.030536482163832 C215.18770932278602 18.449998572775872, 224.22470701051594 23.80361590640429, 228.419313782809 28.325975306888843 C232.61392055510208 32.8483347073734, 232.7288425489944 37.78708976831605, 229.9947923416974 42.164692885071155 C227.2607421344004 46.54229600182626, 220.79397179337258 50.98811878061153, 212.01501253902705 54.59159400741946 C203.23605328468153 58.19506923422739, 190.8820511615723 61.45070724573017, 177.32103681562427 63.78554424591873 C163.76002246967624 66.12038124610729, 146.51302694827078 68.20725537102476, 130.64892646333885 68.60061600855082 C114.78482597840691 68.99397664607687, 97.08172173377963 67.56418931900542, 82.13643390603266 66.14570807107512 C67.1911460782857 64.72722682314482, 52.454183386760626 62.90504394268069, 40.97719949685708 60.08972852096903 C29.50021560695354 57.27441309925737, 19.502186973043578 53.3439799929441, 13.274530566611418 49.25381554080517 C7.046874160179257 45.16365108866624, 3.0796554757683787 40.12820406362685, 3.6112610582641196 35.548741808135446 C4.14286664075986 30.96927955264404, 9.216114996949269 25.774439299373867, 16.464164061585862 21.777042007856735 C23.712213126222455 17.779644716339604, 34.48561693453368 14.326997398483327, 47.099555446083684 11.564358059032664 C59.71349395763369 8.801718719582, 80.8100436335039 6.259405870300328, 92.1477951308859 5.201205971152753 C103.4855466282679 4.143006072005178, 114.49073590936301 4.825817749983169, 115.1260644303757 5.215158664147214 M77.76604053172393 4.9283631107199 C91.0766727194971 3.1464637834471434, 109.86178934309957 3.598908968063622, 125.64132314088283 3.837527223546836 C141.42085693866608 4.07614547903005, 158.67909546010335 4.193852786719535, 172.44324331842347 6.3600726436191835 C186.20739117674358 8.526292500518831, 198.67783964421338 13.268333887707653, 208.22621029080358 16.834846364944724 C217.77458093739378 20.401358842181796, 226.05735861641935 23.4147045203966, 229.73346719796473 27.75914750704161 C233.4095757795101 32.103590493686625, 233.80917362973315 38.44992716422278, 230.28286178007582 42.90150428481479 C226.7565499304185 47.353081405406805, 218.44480013395406 50.7023734908671, 208.57559610002068 54.4686102305937 C198.7063920660873 58.23484697032029, 184.9265705453213 63.41831363028382, 171.06763757647548 65.49892472317435 C157.20870460762964 67.57953581606489, 141.29602878063605 66.72438457455162, 125.4219982869457 66.95227678793691 C109.54796779325535 67.1801690013222, 90.70487552109945 68.41102302500549, 75.82345461433341 66.86627800348606 C60.942033707567376 65.32153298196663, 46.7661938560174 60.987742308400996, 36.13347284634946 57.68380665882033 C25.500751836681523 54.379871009239665, 17.300459812687574 51.0802218578158, 12.027128556325763 47.042664106002086 C6.753797299963952 43.00510635418837, 3.537193479105118 37.890983096246515, 4.493485308178592 33.45846014793803 C5.449777137252066 29.025937199629535, 9.92404120865195 24.17069919505915, 17.764879530766606 20.447526416151142 C25.605717852881263 16.724353637243134, 41.788455370453974 13.544642648044556, 51.53851524086653 11.11942347448997 C61.28857511127909 8.694204300935384, 71.86806787760318 6.778088635141015, 76.26523875324196 5.896211374823629 C80.66240962888074 5.0143341145062434, 76.9039876199835 5.288002454934779, 77.9215404946992 5.8281599125856545" stroke="#D1A836" stroke-width="1" fill="none"/></g><g style="transform-origin: 50% 50%; transform: rotate(3.92051deg);"><path d="M69.25497133901315 9.496692417176558 C81.86644821781746 7.4130771638356165, 99.47190909014171 6.019202821548186, 115.1284803989821 5.864075323575712 C130.7850517078225 5.7089478256032375, 148.60715054043035 6.778354339565871, 163.19439919205553 8.565927429341713 C177.7816478436807 10.353500519117555, 192.35436022925933 13.378242566341674, 202.6519723087332 16.589513862230763 C212.9495843882071 19.80078515811985, 220.62490661154024 23.69020520137351, 224.98007166889874 27.833555204676244 C229.33523672625725 31.97690520797898, 231.1008168617769 37.37598590975004, 228.78296265288424 41.44961388204718 C226.46510844399157 45.52324185434432, 219.91396389237497 48.96385421122797, 211.07294641554273 52.2753230384591 C202.2319289387105 55.58679186569023, 189.0018544853291 59.2047383255371, 175.7368577918909 61.31842684543395 C162.47186109845273 63.432115365330795, 146.84672351197614 64.28730611202391, 131.4829662549136 64.95745415784017 C116.11920899785109 65.62760220365644, 98.68412754304964 66.46243254245692, 83.5543142495158 65.33931512033156 C68.42450095598196 64.2161976982062, 52.37413110627012 61.369830465675115, 40.70408649371059 58.21874962508804 C29.03404188115106 55.06766878450096, 19.27169498636795 50.43982369664809, 13.534046574158623 46.43283007680908 C7.796398161949296 42.425836456970075, 5.315129141720341 38.327267313582425, 6.278196020454629 34.176787906053974 C7.241262899188918 30.026308498525523, 12.00706283662808 25.31190154360459, 19.312447846564353 21.529953631638385 C26.617832856500627 17.74800571967218, 39.2706150644625 13.831756817820413, 50.11050608007227 11.48510043425674 C60.95039709568204 9.138444050693067, 75.63526641761877 8.086967000147348, 84.35179394022299 7.450015330256345 C93.06832146282721 6.8130636603653425, 101.79198526614508 7.343336384765727, 102.40967121569766 7.663390414910722 M122.76327509208245 6.136875297622058 C137.63687411508613 6.055853726496441, 153.58843462480786 8.557223384299812, 167.50948700948183 10.685155487195964 C181.4305393941558 12.813087590092115, 196.16424567619737 15.87265638928307, 206.2895894001262 18.90446791499897 C216.41493312405504 21.936279440714873, 224.86955717988448 24.775323290963982, 228.2615493530548 28.87602464149137 C231.6535415262251 32.97672599201876, 230.0287295329786 39.5815164458777, 226.641542439148 43.5086760181633 C223.2543553453174 47.435835590448896, 217.07653544345123 49.18074565459038, 207.93842679007128 52.43898207520493 C198.80031813669132 55.697218495819484, 185.45561315834928 60.68945700936001, 171.81289051886833 63.058094541850615 C158.17016787938738 65.42673207434122, 141.74319813182674 66.47068682212783, 126.08209095318551 66.65080727014856 C110.4209837745443 66.83092771816929, 92.45768434063784 65.83096416028856, 77.84624744702101 64.138817229975 C63.234810553404195 62.44667029966145, 49.241803176207796 59.602006331145475, 38.413469591484585 56.49792568826723 C27.585136006761374 53.393845045388986, 18.381490590486926 49.42052764331926, 12.876245938681734 45.514333372705536 C7.371001286876542 41.60813910209181, 3.642694178977476 37.439586808176756, 5.382001680653431 33.06076006458489 C7.121309182329386 28.68193332099302, 15.003590256666483 22.769846158122128, 23.312090948737463 19.241372911154325 C31.620591640808442 15.712899664186523, 42.4067597788177 14.266529503340053, 55.23300583307932 11.889920582778071 C68.05925188734093 9.51331166221609, 88.96962761280257 5.906736559580163, 100.26956727430715 4.981719387782437 C111.56950693581173 4.0567022159847115, 119.57152816685412 5.9359464759825284, 123.0326438021068 6.339817551991718 C126.49375943735949 6.743688628000908, 121.49895993583212 6.766643079904992, 121.03626108582327 7.404945843837577" stroke="#D1A836" stroke-width="1" fill="none"/></g></svg>