<svg xmlns="http://www.w3.org/2000/svg" class="hidden lg:block absolute -inset-1/20 w-11/10 h-11/10 pointer-events-none" viewBox="0 0 100 100">
                      <g>
                        <circle cx="50" cy="50" r="44" stroke-width="1" class="stroke-gold transform -rotate-90 origin-center" fill="none" style="stroke: rgb(209, 168, 54);"/>
                      </g>
                    <g data-svg-origin="49.70699119567871 49.75169658660889" transform="matrix(-0.71934,0.69466,-0.69466,-0.71934,120.02373,51.01062)" style="opacity: 0; transform-origin: 0px 0px;"><path d="M50.18001867540569 4.478483577056892 C57.41726627022529 3.8794314559541903, 67.55385196861624 7.8142530460933886, 73.73419651414297 12.980571520255907 C79.91454105966969 18.146889994418427, 84.70146258769756 27.405801864008968, 87.26208594856601 35.476394422032 C89.82270930943446 43.54698698005504, 90.8349590536541 53.33376028411797, 89.09793667935362 61.40412686839411 C87.36091430505314 69.47449345267025, 82.70158830230068 78.31739330439993, 76.83995170276312 83.89859392768881 C70.97831510322555 89.47979455097769, 61.46101552966597 93.97419081544382, 53.92811708212827 94.89133060812742 C46.39521863459056 95.80847040081102, 38.24085402097916 93.38889128701148, 31.642561017536906 89.40143268379039 C25.04426801409466 85.4139740805693, 18.126919997420686 78.41022249093788, 14.338359061474783 70.9665789888009 C10.549798125528879 63.522935486663926, 7.892620146357526 53.026066052510814, 8.911195401861484 44.73957167096854 C9.929770657365442 36.45307728942626, 15.262582037919035 27.604588734916415, 20.44981059449853 21.24761269954727 C25.637039151078024 14.890636664178121, 34.3407484332343 9.120763176995181, 40.034566741338445 6.597715458753655 C45.728385049442586 4.074667740512128, 51.79235093409882 5.90932930666385, 54.61272044312339 6.109326390098104 C57.43308995214797 6.309323473532358, 57.0317673535988 7.15936672231834, 56.956783795485876 7.797697959359176 M37.77081047232475 8.031563728643683 C44.364714896713025 5.134597100910803, 54.53778253278602 4.577382726403826, 61.685804452449325 7.12729472740412 C68.83382637211263 9.677206728404414, 75.83312137907046 16.978322609225387, 80.65894199030458 23.331035734645443 C85.4847626015387 29.6837488600655, 90.02200711642499 36.83506566728683, 90.64072811985403 45.24357347992445 C91.25944912328308 53.65208129256207, 88.25574087203783 66.20678110466878, 84.37126801087885 73.78208261047118 C80.48679514971987 81.35738411627358, 74.09440284349822 87.37571633671253, 67.3338909529001 90.69538251473884 C60.573379062302 94.01504869276515, 51.22015706133123 95.10768099008646, 43.80819666729023 93.70007967862904 C36.39623627324924 92.29247836717161, 28.454171197764925 88.04049794686566, 22.862128588654127 82.24977464599424 C17.270085979543328 76.45905134512282, 12.118226258196952 67.025073498582, 10.255941012625435 58.955739873400496 C8.393655767053918 50.88640624821899, 8.888300337298402 41.674659054020616, 11.688417115225029 33.833772894905216 C14.488533893151656 25.992886735789813, 22.669992408680628 16.173094980891285, 27.056641680185194 11.910422918708086 C31.44329095168976 7.647750856524888, 36.351920197746146 8.86870172849455, 38.00831274425243 8.257740521806028 C39.66470529075871 7.646779315117506, 36.73491265374485 7.802464062092916, 36.994996959222895 8.244655678576954" stroke="#D1A836" stroke-width="1" fill="none"/></g><g data-svg-origin="50.577927112579346 49.82659721374512" transform="matrix(1,0,0,1,0,0)" style="opacity: 0; transform-origin: 0px 0px;"><path d="M31.60316363066849 9.462479376096319 C38.817168721600865 6.097499641627797, 50.185764456811626 5.814172365668046, 58.76240702300049 7.365362347615395 C67.33904958918936 8.916552329562744, 76.69752696184635 13.167370461622628, 83.06301902780169 18.769619267780413 C89.42851109375702 24.3718680739382, 95.02464855724851 33.17078545330167, 96.95535941873251 40.97885518456211 C98.88607028021652 48.786924915822546, 97.89035213196202 58.14321623480674, 94.64728419670573 65.61803765534306 C91.40421626144943 73.09285907587939, 84.69057527464413 81.04171215028646, 77.49695180719473 85.82778370778006 C70.30332833974533 90.61385526527366, 59.97619414054271 94.12541943461598, 51.48554339200936 94.33446700030467 C42.994892643476014 94.54351456599336, 33.734978604529914 91.07595149833016, 26.553047315994657 87.0820691019122 C19.371116027459404 83.08818670549424, 12.253332517592543 77.4434205183511, 8.393955660797836 70.37117262179694 C4.534578804003129 63.29892472524278, 2.598126024616736 52.967944001154926, 3.396786175226417 44.6485817225872 C4.195446325836098 36.32921944401948, 7.744808817929581 26.444202032806572, 13.185916564455923 20.454998950390607 C18.627024310982264 14.465795867974641, 31.463178816236425 10.939183619429803, 36.04343265438447 8.713363228091403 C40.62368649253251 6.487542836753002, 40.32793610475329 6.67504088803289, 40.66743959334417 7.100076602360204 M62.80961740981476 9.190393965786704 C70.58218339543095 10.884696508393356, 79.90913865505225 17.282571431880662, 85.69422522166457 23.196013629524558 C91.47931178827689 29.109455827168453, 96.643083370941 36.83668687536014, 97.52013680948866 44.67104715165007 C98.39719024803632 52.50540742794001, 94.81388763244891 62.90891743959425, 90.95654585295053 70.20217528726415 C87.09920407345214 77.49543313493406, 81.60714329970645 84.64508291433322, 74.37608613249833 88.4305942376695 C67.14502896529021 92.21610556100578, 56.5514868801613 93.29769448922636, 47.57020284970179 92.91524322728182 C38.58891881924229 92.53279196533728, 27.316397847742483 90.62152793674173, 20.488381949741296 86.13588666600225 C13.660366051740109 81.65024539526277, 9.339892937666733 73.73866379629315, 6.602107461694679 66.00139560284495 C3.8643219857226256 58.26412740939675, 2.1430659778303642 47.6691624055459, 4.061669093908975 39.71227750531304 C5.980272209987586 31.755392605080182, 11.81880912936117 23.876738876148917, 18.113726158166344 18.2600862014478 C24.408643186971517 12.64343352674668, 34.0408811820933 7.879668934856202, 41.83117126674001 6.012361457106337 C49.62146135138671 4.145053979356472, 61.29992644857906 6.531789565792818, 64.85546666604657 7.056241334948609 C68.41100688351408 7.580693104104401, 63.43353093055367 8.536708708228533, 63.164412571545064 9.159072072041084" stroke="#D1A836" stroke-width="1" fill="none"/></g><g data-svg-origin="50.62728834152222 49.52561569213867" transform="matrix(0.73135,0.682,-0.682,0.73135,47.37749,-21.22275)" style="opacity: 0; transform-origin: 0px 0px;"><path d="M40.92781734150516 5.812567032136442 C48.74136574973559 3.511819073844858, 59.8425224858077 4.12532164127334, 67.88243564922753 7.458659247268066 C75.92234881264737 10.791996853262793, 84.40004749454326 18.747014778911662, 89.16729632202417 25.812592668104802 C93.93454514950508 32.87817055729794, 96.59650689609313 41.584206936882445, 96.48592861411299 49.852126582426905 C96.37535033213285 58.120046227971365, 93.03997157445721 68.56605839286857, 88.50382663014338 75.42011054137156 C83.96768168582955 82.27416268987454, 77.12538199888886 87.70086039031858, 69.26905894822997 90.97643947344484 C61.41273589757108 94.2520185565711, 49.91343893828653 96.47343569759516, 41.365888326190074 95.07358504012907 C32.818337714093616 93.67373438266299, 24.11856958311897 88.50677013533362, 17.98375527565124 82.57733552864829 C11.848940968183513 76.64790092196296, 6.445245678811037 67.59256615872155, 4.557002481383698 59.496977400017045 C2.6687592839563594 51.40138864131254, 3.73388344847015 41.619894638668626, 6.654296091087211 34.003802976421284 C9.574708733704272 26.38771131417394, 15.350683490384892 18.828187906822208, 22.079478337086066 13.800427426532998 C28.80827318378724 8.772666946243788, 41.829853138001404 5.258980019596296, 47.02706517129426 3.837240094686031 C52.22427720458712 2.4155001697757656, 53.17800552439501 4.51293810410809, 53.2627505368432 5.269987877071408 M28.96937103296092 9.79534022402867 C36.14859620604065 5.717899700169639, 48.4350476670115 4.494908334981397, 57.14809533257014 5.482854759688834 C65.86114299812878 6.470801184396271, 74.63202282622113 10.390292623959372, 81.24765702631275 15.723018772273292 C87.86329122640437 21.055744920587212, 94.38097698583275 29.05307288070255, 96.8419005331199 37.479211649572356 C99.30282408040705 45.90535041844216, 99.13871880203237 58.331282806832135, 96.01319831003566 66.27985138549212 C92.88767781803895 74.22841996415211, 85.18693479122742 80.2737087320271, 78.0887775811396 85.17062312153229 C70.99062037105178 90.06753751103747, 61.93938958540166 95.2131311340688, 53.424255049508766 95.6613377225232 C44.90912051361587 96.1095443109776, 34.75305099261517 92.23701402478888, 26.9979703657822 87.8598626522587 C19.242889738949234 83.48271127972852, 10.840122969304256 76.44312454024019, 6.893771288510962 69.39842948734213 C2.9474196077176678 62.353734434444064, 1.8967448537840947 53.90767656152221, 3.319860281022436 45.59169233487032 C4.742975708260777 37.275708108218424, 10.757564161889515 25.82291915765457, 15.432463851941009 19.502524127430767 C20.107363541992502 13.182129097206964, 28.772893176677623 9.489781153088375, 31.369258421331402 7.669322153527503 C33.96562366598518 5.84886315396663, 31.08446833742602 7.739120529038199, 31.01065531986368 8.579770130065533" stroke="#D1A836" stroke-width="1" fill="none"/></g><g data-svg-origin="50.02446126937866 49.82907485961914" transform="matrix(0.84805,0.52992,-0.52992,0.84805,34.00664,-18.93743)" style="opacity: 0; transform-origin: 0px 0px;"><path d="M54.43238077453595 4.942622960634736 C62.628278588349765 5.100057477644399, 73.30146090011107 10.126247983921484, 79.95829354663327 15.156367321737868 C86.61512619315548 20.18648665955425, 91.93131322231592 27.48822431820734, 94.37337665366921 35.123338987533046 C96.8154400850225 42.75845365685875, 96.7812103420968 52.868517915910736, 94.61067413475303 60.9670553376921 C92.44013792740925 69.06559275947347, 87.71880090553353 78.14039220320073, 81.35015940960658 83.71456351822124 C74.98151791367962 89.28873483324175, 64.79028674428682 93.33389911763615, 56.398825159191354 94.41208322781515 C48.0073635740959 95.49026733799414, 38.752698378113834 93.6053446606103, 31.001389899033832 90.18366817929525 C23.25008141995383 86.7619916979802, 14.4760151027799 80.77338430952611, 9.89097428471134 73.88202433992484 C5.305933466642781 66.99066437032357, 3.2561376287763473 56.83868900559951, 3.491144990622473 48.83550836168764 C3.726152352468599 40.83232771777576, 6.591418673681903 32.54770630522581, 11.301018455788096 25.86294047645358 C16.01061823789429 19.178174647681352, 22.744808523240394 11.726391973871385, 31.748743683259633 8.72691338905426 C40.75267884327887 5.727434804237136, 58.305663877440644 7.187062709042692, 65.32462941590354 7.866068967550831 C72.34359495436645 8.54507522605897, 74.17232777849816 11.961709694871205, 73.86253691403705 12.800950940103093 M60.1414868385721 5.234653508718544 C68.41789688702363 6.30711367626519, 77.35378104324032 14.405675555658991, 83.354968939121 20.26990516430563 C89.35615683500167 26.13413477295227, 94.6986623121497 32.871268695691796, 96.14861421385618 40.42003116059837 C97.59856611556266 47.968793625504944, 95.1398766656277 57.769777650476534, 92.0546803493599 65.56247995374505 C88.9694840330921 73.35518225701358, 84.18094870411116 82.41738025573905, 77.63743631624935 87.1762449802095 C71.09392392838754 91.93510970467996, 61.31467215070367 93.80237412397447, 52.793606022189024 94.11566830056782 C44.27253989367438 94.42896247716116, 33.78453227028038 93.13038962892875, 26.511039545161488 89.0560100397696 C19.237546820042592 84.98163045061045, 12.937297075781215 77.16610112982596, 9.15264967147565 69.66939076561295 C5.368002267170086 62.17268040139994, 2.724774772348013 52.030879447933486, 3.803155119328096 44.075747854491546 C4.881535466308179 36.120616261049605, 9.80063459547685 27.999323959833212, 15.622931753356148 21.938601204961287 C21.445228911235446 15.877878450089362, 31.360535844642317 10.276660577027577, 38.73693806660389 7.711411325259988 C46.11334028856546 5.146162073492398, 56.28213035238541 6.69259378603703, 59.88134508512558 6.54710569435575 C63.48055981786575 6.40161760267447, 60.68276116572633 6.0130081993701765, 60.332226463044925 6.838482775172309" stroke="#D1A836" stroke-width="1" fill="none"/></g></svg>