<svg xmlns="http://www.w3.org/2000/svg" width="29px" height="25px" viewBox="0 0 29 25" style="position: absolute; inset: auto 0px -12.5px; stroke-dasharray: 37.4025; stroke-dashoffset: 37px;"><g stroke-linecap="round"><path d="M9.915710725129896 9.562792528530725 C13.466041993342397 9.71013247639858, 16.07270834663905 10.350155846872463, 19.220405198913145 10.340190959638784 M-5.979583314991549 17.2956338739902 C10.302637051656971 18.342949373182034, 24.748363605332976 17.843643575288347, 33.0197447503576 17.867560444450614 M-5.607382362600859 18.625176834100326 C2.035594471756296 14.650731847321769, 9.514672859243564 13.760997424640045, 19.42504357483327 10.206110429118349" stroke="#D1A836" stroke-width="2" fill="none"/><path d="M10.157800763624472 10.412499346264243 C12.936886199675733 9.370074302671012, 16.316466335082612 10.122187907216736, 19.029259273606858 10.093029501523617 M10.099189333946427 9.950514608161036 C13.178027742874804 9.666529049165222, 16.166828699225857 9.86477651234374, 18.853481310737127 9.870124790137467 M19.507017936710724 10.615651440600947 C13.08852648537014 10.9517213021612, 6.420510471103277 13.212840889875103, -10.697774095224517 20.4555936443265 M19.16500769568345 9.882134144651586 C12.291551659710551 11.281088871756012, 5.3426047327576285 13.561700159028891, -10.554233161618495 19.564421991668915 M-10.09808617176103 19.61513916296219 C0.41404974558728735 20.65635055770352, 10.86948295950911 22.40901110438582, 40.41299213449929 19.331534021345007 M-10.693894477942111 19.630911273840486 C2.243719947177947 19.06757380661019, 15.668274347731266 19.503061152952316, 40.307506374602745 20.351331682223826 M39.6417948101634 19.845698414013516 C29.82086055675006 16.576712236023962, 21.155396621314612 13.2390042954137, 10.043624529928223 9.754788892125054 M39.713175236371555 19.78625040499696 C31.61903633461188 16.330517720885165, 23.529564081126225 13.261298397615523, 9.546068804013025 9.845947040427156" stroke="false" stroke-width="1" fill="none"/></g></svg>