<svg xmlns="http://www.w3.org/2000/svg" width="0px" height="25px" viewBox="0 0 0 25" style="position: absolute; inset: auto 0px -12.5px; stroke-dasharray: 66.9407; stroke-dashoffset: 0px;"><g stroke-linecap="round"><path d="M-9.846601055047305 9.35336451472442 C-3.6891690887679176 9.08596562999846, 3.596218681230237 10.130476141009341, 10.686760762071412 9.191742737987791 M-33.614702527126084 17.393115702104577 C-7.102801824613678 20.29808325694016, 18.35749809781406 18.879480826774564, 33.8100813954228 17.493116641535714 M-34.189710053533325 17.449039895460817 C-20.948095013450015 15.072259823171017, -8.863312453946293 13.3174669326542, 10.821179376063688 9.04322539172135" stroke="#D1A836" stroke-width="2" fill="none"/><path d="M10.655834736792709 10.509652616998899 C4.3444843078523245 9.748022418294955, -1.0221709545147921 8.592538701371186, -10.11602524341475 9.841678678708007 M9.689922178246448 9.639834055532877 C4.190278183871855 8.899215536770619, -1.6370310634806278 9.223468949571721, -10.143024192545713 9.665330762817723 M-10.27746640267426 9.704297840462704 C-20.66115708258056 11.81883232481333, -30.93030204128686 15.668634962097858, -40.870192921282566 20.520262862779184 M-9.67677882283842 10.056304485781874 C-16.868021283499928 11.860781190721465, -24.23080803018286 13.582320863085094, -40.0512525415503 19.53673066593315 M-39.75775099133745 19.728059578797012 C-14.98859789645815 17.537711124554065, 12.631219794215891 17.116785271623367, 39.01420577898786 20.374986685067984 M-40.31863444502604 20.039864703108783 C-23.387166781898042 17.07066564661572, -6.089362368781791 17.094909893548504, 40.44572481554793 19.50400773637796 M40.790716377554276 19.821197632216677 C30.375984561286163 15.34589602710803, 22.402392429329318 12.420014432424832, 10.378118592288406 9.275151449910634 M39.99738328447059 20.0784397276069 C32.956205159317 18.092137117600796, 25.634516111070276 16.165364738782596, 10.235895955523707 10.397546840324377" stroke="false" stroke-width="1" fill="none"/></g></svg>