<svg xmlns="http://www.w3.org/2000/svg" class="selected:opacity-100 opacity-0" width="10px" height="10px" viewBox="0 0 10 10" style="position: absolute; inset: 0px; transform: translate(-5px, -5px); stroke-dasharray: 18.3696; stroke-dashoffset: 0px;"><g style="transform-origin: 50% 50%; transform: rotate(-181.909deg);"><path d="M5.546802887678989 3.248577258338826 C5.756517691536745 3.2476742153012954, 4.987304978544188 3.5808153233234528, 4.914877025725127 3.969470959604449 C4.842449072906065 4.358126595885445, 5.072223328428025 5.28829739843293, 5.11223517076462 5.580511076024804 C5.152247013101215 5.872724753616677, 4.992679605873437 5.708262995142304, 5.154948079744694 5.72275302515569 C5.317216553615951 5.737243055169076, 6.229307034721591 5.688658461796754, 6.085846013992161 5.6674512561051165 C5.942384993262731 5.646244050413479, 4.774623982173282 5.717700810931179, 4.2941819553681135 5.595509791005867 C3.8137399285629447 5.473318771080555, 3.2965353008810037 4.96697075700541, 3.20319385316115 4.934305136553242 C3.109852405441296 4.901639516101073, 3.6372451966647987 5.559457426668137, 3.734133269048992 5.399516068292858 C3.831021341433185 5.239574709917578, 3.6380770391024932 4.226598532706612, 3.784522287466308 3.974656986301567 C3.930967535830123 3.7227154398965214, 4.485037865769048 4.031856170364326, 4.612804759231881 3.887866789862584 C4.7405716526947135 3.7438774093608425, 4.520573160240497 2.9326341277411903, 4.551123648243307 3.110720703291118 M5.763008026293286 5.087042421859598 C5.918279732452677 5.065783549920953, 6.127892474834491 3.0739671403763884, 6.016721843705378 2.885671507270495 C5.905551212576265 2.6973758741646012, 4.883743560398583 3.423674661122913, 5.095984239518607 3.9572686232242362 C5.308224918638632 4.4908625853255595, 7.111003147520707 5.757916449622887, 7.290165918425526 6.087235279878436 C7.469328689330345 6.416554110133984, 6.516007868132703 6.0243317926048014, 6.170960864947518 5.933181604757525 C5.825913861762333 5.842031416910249, 5.3906937288805 5.794007603076388, 5.219883899314419 5.54033415279478 C5.049074069748338 5.286660702513172, 5.456076637145132 4.4937497890616775, 5.14610188755103 4.411140903067879 C4.836127137956928 4.32853201707408, 3.509075201947639 5.081873293628557, 3.3600354017498058 5.044680836831989 C3.2109956015519727 5.007488380035421, 3.942134779788191 4.5118533344307385, 4.251863086364031 4.187986162288471 C4.561591392939871 3.8641189901462036, 5.033050732556275 3.0418980138407927, 5.218405241204844 3.1014778039783835 C5.403759749853413 3.161057594115974, 5.492848265236024 4.187513078017831, 5.363990138255445 4.545464903114016" stroke="#D1A836" stroke-width="1" fill="none"/></g><g style="transform-origin: 50% 50%; transform: rotate(3.32148deg);"><path d="M3.965935023905277 3.939490279006558 C4.138539592974111 4.023645763688277, 4.4426176325764155 4.476031072328996, 4.695749517044423 4.660903020099808 C4.94888140151243 4.845774967870621, 5.371020244362487 4.89881436470889, 5.48472633071332 5.04872196563143 C5.598432417064153 5.19862956655397, 5.388279788310319 5.304097482834096, 5.37798603514942 5.560348625635045 C5.367692281988521 5.816599768435995, 5.3222704299335355 6.50759650014815, 5.422963811747924 6.586228822437128 C5.523657193562313 6.664861144726107, 6.096850632512572 6.13514682223664, 5.982146326035754 6.032142559368915 C5.867442019558936 5.92913829650119, 4.905862504773105 6.183994819120646, 4.7347379728870145 5.968203245230776 C4.563613441000924 5.752411671340906, 5.006339014926868 4.908718917185919, 4.955399134719211 4.7373931160296925 C4.904459254511553 4.566067314873466, 4.39468172393889 5.13780878453832, 4.42909869164107 4.940248438293416 C4.463515659343251 4.742688092048512, 4.966848917141036 3.7862418200917274, 5.161900940932293 3.5520310385602683 C5.3569529647235505 3.317820257028809, 5.674279955401179 3.561677190484393, 5.599410834388612 3.534983749104662 M4.422604355505575 3.6422920019450244 C4.85334539660891 3.861911500132005, 6.670821630011896 5.839959638239672, 6.846807824686813 5.970288064144981 C7.02279401936173 6.10061649005029, 5.720082606372392 4.621471418854764, 5.478521523555076 4.424262557376875 C5.236960440737761 4.227053695898986, 5.402161766485077 4.68351703427813, 5.39744132778292 4.787034895277645 C5.3927208890807625 4.8905527562771605, 5.526358284080126 4.777843790156311, 5.450198891342132 5.045369723373968 C5.374039498604138 5.312895656591625, 5.231997417121398 6.5575447120024775, 4.940484971354958 6.392190494583586 C4.648972525588518 6.226836277164694, 3.7602835954543727 4.302419342358855, 3.701124216743492 4.053244418860619 C3.6419648380326115 3.8040694953623837, 4.568597309959011 4.91471788581808, 4.585528699089673 4.897140953594173 C4.602460088220336 4.879564021370266, 3.680676165560141 4.213187625728951, 3.8027125515274665 3.947782825517179 C3.9247489374947917 3.6823780253054075, 5.224188889685303 3.408985725092878, 5.317747014893626 3.304712152323544 C5.411305140101948 3.2004385795542096, 4.289892002071605 3.023787008313816, 4.364061302777403 3.3221413889011737" stroke="#D1A836" stroke-width="1" fill="none"/></g></svg>