<svg xmlns="http://www.w3.org/2000/svg" class="hidden lg:block absolute -inset-1/20 w-11/10 h-11/10 pointer-events-none" viewBox="0 0 100 100">
                                                        <g>
                                                            <circle cx="50" cy="50" r="44" stroke-width="1" class="stroke-gold transform -rotate-90 origin-center" fill="none" style="stroke: rgb(209, 168, 54); stroke-dashoffset: 0px;"/>
                                                        </g>
                                                    <g data-svg-origin="50.34787702560425 49.69308519363403" transform="matrix(-0.99452,0.10453,-0.10453,-0.99452,105.61427,93.85099)" style="opacity: 0; transform-origin: 0px 0px;"><path d="M50.685702444159155 6.075917976485009 C58.4492030432078 5.84223726465607, 68.77215793719512 10.258023008119256, 75.67277329811435 15.255027916283034 C82.57338865903358 20.25203282444681, 89.2255568566487 28.520030762254144, 92.08939460967457 36.05794742546767 C94.95323236270045 43.59586408868119, 94.88826248386599 52.73130409570854, 92.85579981626964 60.48252789556416 C90.82333714867329 68.23375169541978, 85.93409448502257 77.13213981031146, 79.89461860409644 82.56529022460143 C73.8551427231703 87.9984406388914, 64.90798077188597 92.12838648843272, 56.61894453071284 93.08143038130399 C48.3299082895397 94.03447427417525, 37.883716263406185 92.0587212608025, 30.16040115705762 88.28355358182898 C22.437086050709055 84.50838590285547, 14.488484877102266 77.46206405048049, 10.279053892621448 70.43042430746291 C6.069622908140629 63.39878456444534, 3.9309410343488302 54.01859272709979, 4.9038152501727055 46.09371512372354 C5.876689465996581 38.168837520347296, 10.635241786070363 29.004295011538257, 16.1162991875647 22.881158687205428 C21.597356589059036 16.758022362872598, 30.464847597252877 11.708464943473304, 37.790159659138716 9.354897177726556 C45.115471721024555 7.001329411979809, 55.352163749604415 8.359965948301024, 60.068171558879726 8.759752092724938 C64.78417936815504 9.159538237148851, 66.34197209744346 11.269001280593576, 66.08620651479059 11.753614044270037 M69.23596337347212 11.663645740730516 C77.01442804802898 14.26544842545852, 84.44208920140034 21.648382348536455, 88.89826715438289 28.375761917188672 C93.35444510736545 35.103141485840894, 96.46527811902413 44.29145567481467, 95.97303109136749 52.02792315264383 C95.48078406371084 59.76439063047299, 91.14776135414951 68.14638131775013, 85.94478498844299 74.79456678416364 C80.74180862273647 81.44275225057714, 72.72891169927925 89.36474350274493, 64.75517289712838 91.91703595112492 C56.7814340949775 94.4693283995049, 46.30070771826312 92.21967748144824, 38.102352175537746 90.10832147444356 C29.903996632812373 87.99696546743887, 20.74214604849509 85.2077952327178, 15.565039640776149 79.24889990909676 C10.387933233057208 73.29000458547573, 7.723978087114477 62.46917818847689, 7.039713729224104 54.354949532717306 C6.355449371333731 46.240720876957724, 8.05000969756273 37.79612892657941, 11.459453493433912 30.563527974539284 C14.868897289305094 23.33092702249916, 20.315719759528623 14.837379295905404, 27.4963765044512 10.959343820476562 C34.67703324937378 7.08130834504772, 47.88508577884261 7.1464538032186375, 54.54339396296937 7.295315121966233 C61.20170214709613 7.444176440713829, 65.0998232464768 11.034581417664494, 67.44622560921177 11.852511732962135 C69.79262797194673 12.670442048259776, 68.66427952257233 11.569301377757588, 68.62180813937911 12.202897013752079" stroke="#D1A836" stroke-width="1" fill="none"/></g><g data-svg-origin="50.188937187194824 49.8730411529541" transform="matrix(0.39073,-0.9205,0.9205,0.39073,-15.32952,76.58506)" style="opacity: 0; transform-origin: 0px 0px;"><path d="M66.23270020470885 9.447314153453632 C73.7989414493012 11.516617918381273, 80.8763085050561 18.317676939947095, 85.42059919376405 24.960886373185318 C89.964889882472 31.60409580642354, 93.46344956729128 41.03077018398438, 93.4984443369565 49.30657075288297 C93.53343910662171 57.58237132178156, 90.11530931405055 67.7036975328895, 85.63056781175538 74.61568978657684 C81.14582630946022 81.52768204026417, 73.85302825014205 87.86072209719796, 66.58999532318549 90.77852427500693 C59.326962396228936 93.6963264528159, 50.105116915186855 93.95487963411826, 42.05237025001607 92.1225028534306 C33.99962358484528 90.29012607274295, 24.056302762117518 85.56363175249983, 18.273515332160784 79.78426359088098 C12.49072790220405 74.00489542926213, 8.702205783067223 65.34473881930309, 7.3556456702756705 57.44629388371755 C6.009085557484119 49.54784894813201, 6.925613557756378 39.70924933667524, 10.194154655411474 32.39359397736773 C13.46269575306657 25.07793861806022, 20.16737792384955 17.892147647384526, 26.966892256206243 13.552361727872487 C33.76640658856294 9.212575808360448, 43.910551672524605 6.720529172823794, 50.99124064955163 6.354878460295495 C58.07192962657865 5.989227747767196, 66.15449114479826 10.167255007424595, 69.4510261183684 11.358457452702694 C72.74756109193855 12.549659897980794, 71.12595470188516 13.095151720190298, 70.7704504909725 13.502093131964088 M67.73543138484068 11.452442050481316 C75.21328468381125 13.971521736380444, 83.40733346950691 20.620852781696787, 87.92155595959444 27.428249847834863 C92.43577844968198 34.235646913972936, 95.31134137457633 44.00659524189762, 94.82076632536584 52.29682444730977 C94.33019127615535 60.58705365272191, 90.41373739216796 70.53171913887228, 84.97810566433152 77.16962508030775 C79.54247393649509 83.80753102174323, 70.20441295630404 89.79668032411483, 62.206975958347186 92.12426009592265 C54.20953896039033 94.45183986773047, 44.530202265421366 93.32735796003888, 36.993483676590415 91.13510371115467 C29.45676508775946 88.94284946227046, 22.225780201066943 85.09970819858934, 16.986664425361468 78.97073460261743 C11.747548649655993 72.84176100664551, 6.163753843412771 62.531233091229694, 5.558789022357566 54.36126213532316 C4.95382420130236 46.19129117941662, 9.363265273265247 37.00095054375653, 13.356875499030231 29.950908867178214 C17.350485724795217 22.9008671905999, 22.59175110013797 15.685449189803991, 29.520450376947473 12.061012075853277 C36.449149653756976 8.436574961902563, 48.351725086395156 8.251171508726042, 54.92907115988724 8.204286183473933 C61.50641723337933 8.157400858221823, 66.81908792879712 10.969569033366435, 68.98452681789999 11.779700124340621 C71.14996570700286 12.589831215314808, 68.19663131397628 12.507757885985415, 67.92170449450447 13.065072729319056" stroke="#D1A836" stroke-width="1" fill="none"/></g><g data-svg-origin="49.952773094177246 50.117401361465454" transform="matrix(-0.06976,0.99756,-0.99756,-0.06976,103.43259,3.7827)" style="opacity: 0; transform-origin: 0px 0px;"><path d="M51.8819833520209 4.67981522489481 C59.775714707661876 4.429481653639453, 69.47697430601879 7.247935054270592, 76.47529612229974 12.052076219548269 C83.47361793858069 16.856217384825946, 90.99696034299143 25.482293587311624, 93.87191424970662 33.504662216560874 C96.74686815642181 41.527030845810124, 95.83943657136784 51.84705596215589, 93.72501956259092 60.18628799504378 C91.61060255381399 68.52552002793166, 87.04244680691089 77.57677785758575, 81.18541219704504 83.5400544138882 C75.32837758717919 89.50333097019065, 66.76806436206752 94.50448448911337, 58.58281190339582 95.96594733285842 C50.397559444724116 97.42741017660347, 39.67692585586586 95.79684540398381, 32.07389744501482 92.30883147635848 C24.47086903416378 88.82081754873315, 17.477862362625533 81.98240445530479, 12.964641438289568 75.03786376710639 C8.451420513953604 68.09332307890799, 5.160193906754867 58.805711038624466, 4.994571898999027 50.64158734716809 C4.8289498912431865 42.477463655711716, 7.770005924224907 33.024438103021076, 11.970909391754525 26.053121618368138 C16.17181285928414 19.0818051337152, 21.62012797238075 12.303483371507218, 30.199992704176736 8.813688439250456 C38.77985743597272 5.323893506993693, 56.506466626526645 4.820105322023881, 63.450097782530435 5.114352024827561 C70.39372893853422 5.40859872763124, 72.09303011306858 9.763628522745405, 71.86177964019949 10.579168656072532 M69.92494344466837 8.225510011125479 C77.06700224075676 11.610035001208503, 85.67883310534505 19.781731780592253, 89.83952172804726 27.452209531786306 C94.00021035074947 35.12268728298036, 95.6709822332447 45.858508124622105, 94.88907518088166 54.2483765182898 C94.10716812851862 62.6382449119575, 89.90392802422619 71.28689469874757, 85.14807941386904 77.79141989379251 C80.3922308035119 84.29594508883744, 74.01657036174602 90.42393972218602, 66.3539835187388 93.27552768855944 C58.69139667573158 96.12711565493285, 47.67866200533969 96.74579617412515, 39.172558355825714 94.90094769203296 C30.666454706311736 93.05609920994077, 21.106772266271207 88.10422387624564, 15.317361621654932 82.20643679600627 C9.527950977038657 76.3086497157669, 5.428465548055546 67.9381548914879, 4.436094488128063 59.514225210596756 C3.4437234282005798 51.09029552970562, 5.925888270387418 39.55357452298431, 9.363135262090033 31.66285871065945 C12.800382253792648 23.772142898334586, 18.225758271329134 16.822583193784542, 25.05957643834375 12.169930336647575 C31.893394605358367 7.517277479510608, 42.53698868135938 4.0728888116472035, 50.36604426417773 3.746941567837652 C58.19509984699608 3.4209943240281007, 68.76484265535176 8.994986961612787, 72.03390993525383 10.214246873790266 C75.3029772151559 11.433506785967746, 70.61944508748473 10.574231560120802, 69.98044794359015 11.062501040902532" stroke="#D1A836" stroke-width="1" fill="none"/></g><g data-svg-origin="50.041977643966675 49.47249984741211" transform="matrix(-0.0349,0.99939,-0.99939,-0.0349,101.23076,1.18764)" style="opacity: 0; transform-origin: 0px 0px;"><path d="M64.17476707163951 8.170984385509755 C71.97520742232955 10.275896119386838, 81.82254486744871 16.864995093014986, 87.159233015403 23.48885165168439 C92.4959211633573 30.11270821035379, 95.8104878411484 39.84161685175603, 96.19489595936527 47.91412373752616 C96.57930407758214 55.98663062329629, 93.82745360714148 65.052743014882, 89.46568172470418 71.92389296630517 C85.10390984226689 78.79504291772835, 77.61295628442882 85.58159641619176, 70.02426466474152 89.14102344606519 C62.435573045054234 92.70045047593862, 52.23515784228995 94.27858460993674, 43.933532006580435 93.28045514554574 C35.63190617087092 92.28232568115475, 26.7116171015 88.51660920427696, 20.21450965048444 83.15224665971922 C13.717402199468882 77.78788411516149, 7.125546327348623 68.99451832577451, 4.950887300487089 61.09427987819935 C2.7762282736255552 53.194041430624196, 3.997997719329305 43.378311967943176, 7.166555489315236 35.75081597426827 C10.335113259301167 28.123319980593365, 17.05958084767841 20.366873523781585, 23.962233920402678 15.329303916149918 C30.864886993126945 10.29173430851825, 41.32688654934041 6.715370237136713, 48.58247392566084 5.525398328478261 C55.83806130198128 4.335426419819808, 64.13320897895763 7.185688783567986, 67.49575817832527 8.189472464199206 C70.85830737769292 9.193256144830425, 68.99955512418055 10.735791346579969, 68.75776912186676 11.548100412265576 M61.704156692086976 8.9716812452424 C69.44073603699108 10.46556239024538, 78.5969701088507 15.865959446915184, 83.99497403423024 21.72073609511228 C89.39297795960978 27.575512743309375, 92.79793086379665 36.079367865611616, 94.09218024436424 44.10034113442498 C95.38642962493184 52.121314403238344, 95.54651031436836 62.1917003428464, 91.7604703176358 69.84657570799246 C87.97443032090322 77.50145107313851, 78.82735339140874 86.12336569370218, 71.37594026396883 90.0295933253013 C63.92452713652893 93.93582095690043, 55.245539224754154 94.1587172214399, 47.0519915529964 93.28394149758722 C38.85844388123864 92.40916577373454, 28.8783154341335 89.8228020828722, 22.2146542334223 84.78093898218526 C15.550993032711101 79.73907588149832, 9.889186646270332 70.74328270041639, 7.070024348729191 63.03276289346557 C4.250862051188051 55.32224308651476, 2.9919611611143377 46.43876257890596, 5.299680448175458 38.51782014048039 C7.607399735236578 30.59687770205482, 14.365156197190817 20.74031814093484, 20.916340071095913 15.507108262912162 C27.46752394500101 10.273898384889485, 37.79154452516947 8.173951097180248, 44.606783691606026 7.118560872344325 C51.42202285804258 6.063170647508401, 59.04432008582141 8.940951499226808, 61.80777506971526 9.174766913896619 C64.57123005360911 9.40858232856643, 61.08166281612549 7.848908746075057, 61.18751359496913 8.52145336036319" stroke="#D1A836" stroke-width="1" fill="none"/></g></svg>