<svg xmlns="http://www.w3.org/2000/svg" class="selected:opacity-100 opacity-0" width="115px" height="67px" viewBox="0 0 115 67" style="position: absolute; inset: 0px; transform: translate(-4px, -4px); stroke-dasharray: 370.491; stroke-dashoffset: 0px;"><g style="transform-origin: 50% 50%; transform: rotate(-182.073deg);"><path d="M42.68963421464886 4.951665036997483 C51.65531061317139 2.814469688336454, 63.61773287331756 2.9552568441797105, 73.24821902657641 4.79783530257874 C82.87870517983526 6.640413760977769, 94.12754905148604 11.423938921231805, 100.47255113420196 16.00713578739166 C106.81755321691789 20.590332653551517, 110.68315635806799 26.90374758364592, 111.31823152287194 32.297016499537875 C111.95330668767589 37.69028541542983, 109.40654071320462 43.77195295292724, 104.28300212302564 48.36674928274339 C99.15946353284666 52.96154561255954, 89.804580925275 57.62855341721463, 80.57699998179802 59.86579447843478 C71.34941903832105 62.103035539654925, 58.863700558485334 62.76807253488934, 48.91751646216373 61.79019565006428 C38.97133236584213 60.81231876523921, 28.258433588973652 57.62259313819124, 20.899895403868435 53.99853316948438 C13.541357218763217 50.37447320077752, 6.8446774645974635 45.28481664077645, 4.7662873515324335 40.045835837823134 C2.6878972384674036 34.80685503486982, 4.616623443645944 27.680939033689555, 8.429554725478255 22.564648351764482 C12.242486007310566 17.44835766983941, 20.394078245881495 12.494946764528288, 27.6438750425263 9.348091746272708 C34.893671839171105 6.201236728017127, 46.002625594208226 4.388057701842297, 51.928335505347086 3.6835182422310027 C57.854045416485945 2.9789787826197087, 62.99352405196995 4.442849401252688, 63.19813450935948 5.120854988604943 M81.8031002081579 8.284746575524672 C90.59920578765173 10.571121041594388, 98.98514130823483 14.888768236499626, 103.85389213451238 19.67100804454602 C108.72264296078993 24.453247852592416, 111.97642387659431 31.609318647942782, 111.01560516582319 36.97818542380303 C110.05478645505207 42.34705219966328, 104.39475066484825 47.54729921549496, 98.08897986988563 51.88420869970753 C91.78320907492302 56.2211181839201, 82.78129068354771 61.22784256430562, 73.18098039604752 62.99964232907844 C63.580670108547324 64.77144209385126, 50.31990678073299 64.48452239517584, 40.4871181448845 62.51500728834445 C30.654329509036007 60.545492181513055, 20.43967955605732 55.65396374248159, 14.18424858095657 51.182551688090065 C7.928817605855818 46.711139633698544, 3.2750163585145984 41.00973812745432, 2.9545322942799856 35.68653496199532 C2.634048230045373 30.36333179653632, 6.893451426247271 23.986625354809767, 12.261344195548894 19.243332695336058 C17.629236964850517 14.500040035862348, 26.33341295978097 9.765469663655125, 35.16188891008972 7.226779005153055 C43.99036486039847 4.688088346650986, 57.569195862393144 4.089415296580206, 65.23219989740142 4.011188744323643 C72.89520393240969 3.9329621920670803, 78.72016608320135 6.41957807259329, 81.13991312013933 6.757419691613677 C83.5596601570773 7.095261310634064, 80.35043069347192 5.806123433062259, 79.75068211902928 6.038238458445964" stroke="#D1A836" stroke-width="1" fill="none"/></g><g style="transform-origin: 50% 50%; transform: rotate(1.19429deg);"><path d="M81.37926605871047 9.320476047175646 C89.94782796341795 11.601089666737517, 98.96279406734898 17.346728767973893, 103.3873073727943 21.90016015392098 C107.81182067823961 26.453591539868064, 109.44879144450374 31.612870251174563, 107.92634589138234 36.64106436285816 C106.40390033826094 41.669258474541756, 101.06070874130803 47.995553836778804, 94.25263405406585 52.06932482402255 C87.44455936682367 56.1430958112663, 76.66260001686138 59.80735077016226, 67.07789776792924 61.08369028632066 C57.49319551899711 62.36002980247906, 45.77820458424176 62.06839852395314, 36.74442056047306 59.72736192097297 C27.710636536704357 57.38632531799279, 17.8814198533302 51.73750862989462, 12.875193625317031 47.037470668439596 C7.868967397303863 42.33743270698457, 6.046119060169263 36.71208789712466, 6.7070631923940525 31.527134152242823 C7.368007324618842 26.342180407360985, 10.757485688998106 19.8626209815741, 16.840858418665768 15.927748199148567 C22.92423114833343 11.992875416723034, 33.63874158194961 9.416659439185054, 43.207299570400025 7.917897457689627 C52.77585755885044 6.419135476194199, 67.76679565537043 6.69503051636397, 74.25220634936827 6.935176310176004 C80.7376170433661 7.175322103988038, 80.61357748627363 8.682847676387235, 82.11976373438705 9.358772220561832 C83.62594998250047 10.03469676473643, 83.4545036492891 10.694045741023542, 83.28932383804879 10.990723575223583 M75.56417123861239 7.606850538187729 C84.87868733445801 9.296189456150724, 95.64293515575113 14.175599058544556, 101.02271145654663 18.686012497115463 C106.40248775734213 23.19642593568637, 108.18556399903466 29.470115557623796, 107.84282904338538 34.669331169613166 C107.5000940877361 39.86854678160253, 104.60144063955903 45.97107297678045, 98.96630172265097 49.88130616905168 C93.3311628057429 53.79153936132292, 83.04235914558404 56.45101566361135, 74.03199554193701 58.1307303232406 C65.02163193828997 59.810444982869846, 54.11053034980122 61.14152993256014, 44.90412010076879 59.959594126827184 C35.69770985173636 58.77765832109423, 25.452916655808185 55.19748062159676, 18.79353404774244 51.03911548884287 C12.134151439676696 46.880750356088974, 6.039934289842512 40.24255225902483, 4.94782445237432 35.00940333030383 C3.8557146149061277 29.776254401582833, 6.980919335889959 24.08652650687638, 12.240875022933288 19.640221916516865 C17.50083070997662 15.19391732615735, 27.31244995902214 10.697476691880434, 36.507558574634295 8.331575788146754 C45.70266719024645 5.965674884413074, 60.890916533267145 5.316355444081311, 67.41152671660623 5.444816494114786 C73.93213689994532 5.573277544148261, 74.56768207447175 8.785595339213206, 75.63121967466883 9.102342088347601 C76.6947572748659 9.419088837481997, 74.1108531189748 7.025324551422006, 73.79275231778874 7.345296988921156" stroke="#D1A836" stroke-width="1" fill="none"/></g></svg>