<svg xmlns="http://www.w3.org/2000/svg" width="312px" height="72px" viewBox="0 0 312 72" style="position: absolute; inset: 0px; transform: translate(0px, 0px); stroke-dasharray: 880.729; stroke-dashoffset: 881px;"><g style="transform-origin: 50% 50%; transform: rotate(-184.031deg);"><path d="M203.51813768699688 4.858588311130099 C220.97599686438147 5.627069594368865, 239.61401394015206 8.733366519760917, 253.94667454229767 11.260622093898107 C268.2793351444433 13.787877668035296, 280.82425347654095 16.378275361891497, 289.5141012998705 20.02212175595324 C298.20394912320006 23.665968150014983, 303.8641362197044 29.031258941462028, 306.0857614822751 33.123700458268566 C308.30738674484576 37.216141975075104, 307.4987640672209 40.97122720429522, 302.8438528752947 44.57677085679248 C298.1889416833685 48.18231450928974, 289.2469824635252 51.81654808138196, 278.1562943307179 54.75696237325211 C267.0656061979106 57.697376665122256, 252.08528272332342 60.08748159946353, 236.29972407845088 62.21925660801338 C220.51416543357834 64.35103161656323, 201.57917544096892 66.52908892344743, 183.44294246148263 67.5476124245512 C165.30670948199634 68.56613592565498, 145.676715903183 69.20528182732507, 127.48232620153308 68.33039761463598 C109.28793649988316 67.4555134019469, 89.88080797938565 64.4860226024321, 74.27660425158308 62.2983071484167 C58.6724005237805 60.11059169440129, 44.62759166608908 58.38541418623698, 33.85710383471762 55.20410489054356 C23.08661600334616 52.022795594850145, 14.432138481166906 46.95938109102094, 9.653677263354325 43.21045137425619 C4.8752160455417455 39.46152165749144, 3.167657471194469 36.302045759483455, 5.186336527842144 32.71052658995506 C7.20501558448982 29.119007420426662, 12.972729806374923 25.15358655082656, 21.765751603240375 21.66133635708581 C30.558773400105828 18.169086163345057, 43.54458019437277 14.387251323099907, 57.94446730903485 11.757025427510548 C72.34435442369693 9.12679953192119, 90.52358030268702 7.294505376496297, 108.16507429121285 5.8799809835496575 C125.80656827973867 4.465456590603018, 144.87887006173784 3.1229430943095426, 163.79343124018976 3.2698790698307114 C182.70799241864168 3.41681504535188, 209.75893115571597 5.831216053593255, 221.6524413619243 6.76159683667667 C233.54595156813264 7.6919776197600855, 236.22525603946937 8.392989765338575, 235.1544924774397 8.852163768331202 M110.85328192309758 4.599976179126195 C127.13499491878123 3.1190707879948185, 148.62456117695433 4.188274370200567, 167.1431183620297 4.654073054140881 C185.66167554710506 5.119871738081194, 205.0930195523049 5.958765457112311, 221.9646250335498 7.3947682827680765 C238.8362305147947 8.830771108423843, 255.59009286630638 10.655062716252095, 268.3727512494992 13.270090008075474 C281.155409632692 15.885117299898853, 291.8243139503574 19.495403108482396, 298.6605753327066 23.084932033708355 C305.49683671505585 26.674460958934315, 309.46748300767354 30.48272374115084, 309.3903195435944 34.80726355943123 C309.31315607951524 39.13180337771161, 305.1405137813104 45.338663034449624, 298.1975945482317 49.03217094339068 C291.25467531515295 52.72567885233174, 280.7099839618223 54.23428904995553, 267.73280414512203 56.96831101307755 C254.75562432842176 59.70233297619958, 237.17145732035448 63.386366835029875, 220.3345156480301 65.43630272212282 C203.49757397570573 67.48623860921576, 185.38551042040078 68.96565993406767, 166.71115411117577 69.2679263356352 C148.03679780195077 69.57019273720272, 126.07728339095743 68.73730678727948, 108.28837779268008 67.24990113152799 C90.49947219440273 65.7624954757765, 74.36460086324975 62.92660435290178, 59.977720521511685 60.34349240112624 C45.59084017977362 57.760380449350706, 31.050043067181598 55.19766041231691, 21.9670957422517 51.75122942087477 C12.884148417321802 48.30479842943264, 7.524647808023914 43.63819619772836, 5.480036571932288 39.66490645247342 C3.4354253358406623 35.69161670721847, 5.102339981398633 31.80492999959102, 9.699428325701945 27.91149094934508 C14.296516670005257 24.018051899099138, 22.395306167883447 19.29269046891411, 33.062566637752155 16.304272150997775 C43.729827107620864 13.315853833081443, 60.7922676231214 11.653675126817742, 73.7029911449142 9.980981041847084 C86.613714666707 8.308286956876426, 104.12995073088453 7.1088680391255465, 110.52690776850895 6.268107641173831 C116.92386480613337 5.4273472432221155, 111.55509742664375 4.339492194391346, 112.08473337066073 4.936418654136791" stroke="#D1A836" stroke-width="1" fill="none"/></g><g style="transform-origin: 50% 50%; transform: rotate(4.5954deg);"><path d="M111.97700963174404 7.777150563695361 C128.05266856957073 6.362436842095495, 149.0996586317384 6.500074777831586, 167.51117486928763 6.784182256576962 C185.92269110683685 7.068289735322337, 205.9492044085456 7.987073185125283, 222.44610705703946 9.481795436167616 C238.9430097055333 10.976517687209949, 254.2112002041805 12.923417220090425, 266.4925907602508 15.75251576283096 C278.77398131632106 18.581614305571495, 289.4424941557995 22.96163568978008, 296.1344503934611 26.45638669261083 C302.8264066311227 29.95113769544158, 306.8350322246613 33.09882793920074, 306.6443281862203 36.72102177981546 C306.45362414777935 40.34321562043018, 302.348058355324 44.94419881882513, 294.99022616281513 48.18954973629916 C287.6323939703063 51.4349006537732, 275.4884830073408 53.7071999012538, 262.4973350311673 56.19312728465965 C249.50618705499386 58.679054668065504, 233.72528914711233 61.475916061240525, 217.04333830577437 63.105114036734285 C200.3613874644364 64.73431201222805, 180.94252417219315 65.7395591770302, 162.40562998313953 65.96831513762223 C143.86873579408592 66.19707109821425, 123.23872109459612 65.72909815768215, 105.82197317145267 64.4776498002864 C88.40522524830922 63.226201442890655, 71.95280404372559 60.92773269267436, 57.90514244427881 58.459624993247765 C43.85748084483202 55.99151729382117, 30.091761565154158 52.88324876933252, 21.53600357477194 49.66900360372683 C12.980245584389719 46.45475843812114, 8.075566477495789 42.86029192398424, 6.570594501985482 39.17415399961362 C5.065622526475177 35.488016075243, 7.208331826128156 31.120993238409046, 12.506171721710103 27.552176057503125 C17.80401161729205 23.983358876597205, 27.032469351035154 20.810883080477588, 38.35763387547716 17.7612509141781 C49.68279839991917 14.711618747878608, 63.9062961399838 11.144710794856852, 80.45715886836216 9.254383059706186 C97.00802159674052 7.364055324555518, 123.70026394465538 6.855215378942613, 137.6628102457473 6.4192845032740955 C151.6253565468392 5.983353627605578, 163.8606390581049 6.28211445173204, 164.23243667491369 6.638797805695084 M171.29494491531563 5.634461792452534 C189.39909658852994 5.281419468079618, 209.98110080668994 6.41313270253468, 226.47921642405157 8.42322930409805 C242.9773320414132 10.433325905661421, 258.29065202876143 14.670735685777004, 270.2836386194855 17.695041401832754 C282.27662521020955 20.719347117888503, 292.38685538294294 23.455827264905537, 298.43713596839603 26.569063600432553 C304.48741655384913 29.68229993595957, 307.39931113832614 32.52299207579894, 306.58532213220406 36.37445941499486 C305.77133312608197 40.22592675419078, 301.39528779394084 46.028405351388265, 293.5532019316634 49.677867635608095 C285.711116069386 53.327329919827925, 273.02991884429787 56.11362193959808, 259.5328069585395 58.27123312031384 C246.0356950727811 60.42884430102959, 229.42120277822224 61.41419389889689, 212.57053061711315 62.623534719902615 C195.71985845600406 63.83287554090834, 177.0276769007436 65.350049534999, 158.428773991885 65.52727804634817 C139.82987108302643 65.70450655769734, 118.49532826487297 64.9118827800043, 100.97711316396169 63.68690578799762 C83.45889806305041 62.46192879599093, 66.6344131330816 60.41373708839544, 53.319483386417346 58.177416094308064 C40.00455363975309 55.941095100220686, 29.169394700207846 53.760135216510555, 21.087534683976173 50.26897982347336 C13.0056746677445 46.77782443043616, 6.011255323825741 41.14561979014866, 4.82832328902731 37.2304837360849 C3.645391254228879 33.31534768202114, 8.292689037749117 30.35744295523464, 13.989942475185586 26.7781634990908 C19.687195912622055 23.198884042946965, 27.210983592954577 18.741609274357643, 39.01184391364612 15.754806999221877 C50.81270423433766 12.76800472408611, 68.11692963401308 10.540323939768378, 84.79510439933485 8.857349848276197 C101.47327916465662 7.174375756784017, 124.89969377859718 6.224850092176464, 139.08089250557674 5.6569624502687965 C153.2620912325563 5.089074808361129, 164.5491443630392 5.3096859943869195, 169.8822967612122 5.450023996830193 C175.21544915938517 5.590361999273467, 170.93270123845082 6.038464915300437, 171.07980689461473 6.49899046492844" stroke="#D1A836" stroke-width="1" fill="none"/></g></svg>