<svg height="20" viewBox="0 0 20 20" width="20" xmlns="http://www.w3.org/2000/svg"><path d="m972.441975 82.5625c.038297.3071196.058025.6200059.058025.9375 0 .345178-.279822.625-.625.625s-.625-.279822-.625-.625c0-.3186313-.023844-.6316936-.069844-.9375h-12.360312c-.046.3058064-.069844.6188687-.069844.9375 0 .345178-.279822.625-.625.625s-.625-.279822-.625-.625c0-.3174941.019728-.6303804.058025-.9375h-1.308025v8.4375c0 1.3947594.767634 2.6534989 1.973707 3.3035811.541104.2916592 1.146822.4464189 1.776293.4464189h10c.629471 0 1.235189-.1547597 1.776293-.4464189 1.206073-.6500822 1.973707-1.9088217 1.973707-3.3035811v-8.4375zm-14.617952-1.25c.936197-3.0750599 3.794796-5.3125 7.175977-5.3125s6.23978 2.2374401 7.175977 5.3125h2.199023c.345178 0 .625.279822.625.625v9.0625c0 1.8590118-1.023827 3.5378477-2.630616 4.4039192-.722249.3892972-1.531584.5960808-2.369384.5960808l-5-.0182373-5 .0182373c-.8378 0-1.647135-.2067836-2.369384-.5960808-1.606789-.8660715-2.630616-2.5449074-2.630616-4.4039192v-9.0625c0-.345178.279822-.625.625-.625zm1.319482 0h11.71299c-.88671-2.3729174-3.174291-4.0625-5.856495-4.0625s-4.969785 1.6895826-5.856495 4.0625z" fill="#fff" transform="translate(-955 -76)"></path></svg>