<svg version="1.0" xmlns="http://www.w3.org/2000/svg" width="34" height="34" viewBox="0 0 512.000000 512.000000" preserveAspectRatio="xMidYMid meet"> <g transform="translate(0.000000,512.000000) scale(0.100000,-0.100000)" fill="#000000" stroke="none"> <path d="M2275 5101 c-197 -36 -324 -79 -494 -166 -460 -235 -779 -656 -893 -1175 -20 -94 -23 -131 -23 -350 1 -274 12 -352 81 -560 100 -302 258 -552 730 -1158 140 -179 252 -327 250 -329 -2 -2 -68 -17 -148 -33 -458 -93 -774 -261 -884 -470 -27 -50 -29 -64 -29 -160 0 -100 1 -108 34 -168 112 -206 442 -378 897 -466 278 -53 372 -61 764 -61 392 0 486 8 764 61 457 89 785 259 897 466 33 60 34 68 34 168 0 100 -1 108 -34 168 -112 206 -424 370 -879 462 -80 16 -146 31 -148 33 -2 2 49 71 113 153 543 691 712 942 829 1235 54 134 98 300 114 432 18 144 8 454 -20 582 -142 668 -654 1180 -1325 1326 -145 31 -486 37 -630 10z m490 -202 c452 -59 865 -343 1101 -756 60 -105 120 -262 152 -397 25 -103 27 -127 27 -331 -1 -202 -3 -229 -27 -330 -52 -222 -147 -429 -305 -670 -110 -167 -225 -321 -552 -740 -146 -187 -339 -439 -429 -560 -91 -121 -168 -220 -173 -220 -4 0 -47 54 -95 120 -114 156 -332 441 -563 735 -102 129 -230 296 -286 370 -340 451 -475 718 -530 1048 -26 152 -17 436 18 583 67 280 204 524 407 726 336 333 783 483 1255 422z m-615 -3817 c35 -48 120 -163 188 -257 162 -223 164 -225 222 -225 56 0 67 10 200 195 52 72 136 184 187 251 l92 121 89 -13 c522 -78 922 -273 922 -452 0 -58 -18 -88 -88 -153 -221 -204 -782 -340 -1402 -340 -509 0 -961 86 -1254 239 -93 48 -196 134 -222 183 -19 38 -18 109 3 139 122 184 468 322 993 398 3 1 34 -38 70 -86z"/><path d="M2503 4702 c-27 -20 -43 -68 -36 -105 15 -76 122 -106 176 -49 39 40 38 107 -1 145 -34 33 -103 37 -139 9z"/><path d="M2890 4622 c-55 -56 -34 -142 42 -172 354 -140 597 -411 689 -768 11 -42 24 -131 29 -196 8 -110 11 -121 36 -147 23 -24 36 -29 74 -29 38 0 51 5 73 28 25 26 27 34 27 124 0 168 -52 382 -131 540 -88 176 -248 365 -406 477 -120 86 -280 163 -349 169 -49 4 -56 2 -84 -26z"/><path d="M2385 4104 c-33 -8 -98 -33 -145 -56 -69 -34 -102 -59 -175 -133 -146 -145 -205 -287 -205 -495 0 -130 18 -210 72 -320 34 -69 59 -102 133 -175 145 -146 287 -205 495 -205 130 0 210 18 320 72 69 34 102 59 175 133 146 145 205 287 205 495 0 130 -18 210 -72 320 -34 69 -59 102 -133 175 -147 148 -288 205 -500 204 -60 0 -137 -7 -170 -15z m378 -236 c107 -51 194 -138 244 -245 34 -70 38 -88 41 -174 7 -156 -36 -269 -142 -375 -63 -63 -147 -113 -224 -134 -59 -15 -197 -13 -253 4 -139 43 -254 142 -317 273 -37 77 -37 79 -37 203 0 124 0 126 37 203 61 128 176 228 313 273 26 9 79 13 150 11 104 -2 114 -4 188 -39z"/></g>
</svg>