<svg xmlns="http://www.w3.org/2000/svg" class="selected:opacity-100 opacity-0" width="102px" height="67px" viewBox="0 0 102 67" style="position: absolute; inset: 0px; transform: translate(-4px, -4px); stroke-dasharray: 339.265; stroke-dashoffset: 0px;"><g style="transform-origin: 50% 50%; transform: rotate(-184.865deg);"><path d="M41.72948359867789 3.886206941168748 C50.32779706251443 2.576876589125755, 61.88171188015785 4.418654346204461, 70.25812545775608 7.0417835378282945 C78.63453903535431 9.664912729452128, 87.52177730832467 14.812835029330664, 91.98796506426726 19.624982090911747 C96.45415282020984 24.43712915249283, 97.94621987191164 30.29672709362328, 97.05525199341162 35.914665907314784 C96.1642841149116 41.53260472100629, 92.86450230205658 48.76125650801488, 86.64215779326713 53.33261497306078 C80.41981328447768 57.903973438106675, 69.04013477687754 62.15472572450664, 59.721184940674895 63.34281669759017 C50.402235104472254 64.53090767067371, 39.05458908371037 63.044850533043736, 30.728458776051305 60.46116081156198 C22.402328468392238 57.87747109008023, 14.035859666869207 52.75897794654735, 9.764403094720493 47.840678368699635 C5.492946522571779 42.92237879085192, 4.158281362073109 36.76103010767613, 5.099719343159023 30.951363344475688 C6.041157324244938 25.141696581275248, 7.942187909235142 17.470069089421813, 15.413030981235977 12.982677789497 C22.883874053236813 8.495286489572187, 42.87034731246825 5.493067296726596, 49.92477777516403 4.027015544926815 C56.979208237859815 2.5609637931270344, 57.792207670890605 3.6868167114652057, 57.73961375741067 4.186367278698313 M64.68961075137437 6.944383188785778 C73.0108584807551 8.46425096438861, 83.34547124335538 13.005938586133308, 88.93228671364362 17.522854062773312 C94.51910218393186 22.039769539413317, 98.23627649047795 28.267233245726423, 98.21050357310384 34.045876048625814 C98.18473065572972 39.824518851525205, 94.45713506642747 47.74597019461737, 88.77764920939893 52.194710880169666 C83.09816335237039 56.64345156572196, 72.87109416707213 59.278562126497135, 64.13358843093263 60.73832016193958 C55.39608269479314 62.19807819738203, 44.64494506126925 62.369027630920975, 36.352614792561965 60.953259092824354 C28.060284523854683 59.53749055472773, 19.991654164214278 57.048806136756305, 14.379606818688941 52.243708933359855 C8.767559473163605 47.438611729963405, 2.7931953043056588 37.92977655289056, 2.6803307194099446 32.12267587244565 C2.5674661345142304 26.31557519200074, 7.916299689149732 21.776787730640493, 13.702419309314656 17.401104850690405 C19.48853892947958 13.025421970740318, 28.52171494257913 7.785635528261637, 37.39704844039949 5.8685785927451235 C46.272381938219844 3.95152165722861, 62.19759052830144 5.925190640911857, 66.9544202962368 5.898763237591325 C71.71125006417216 5.872335834270793, 66.55896877893336 5.252465599320291, 65.93802704801168 5.710014172821932" stroke="#D1A836" stroke-width="1" fill="none"/></g><g style="transform-origin: 50% 50%; transform: rotate(0.953143deg);"><path d="M59.76272226839534 7.101986092187282 C68.34936132877327 7.553264294942317, 78.99680032252502 11.071348548644384, 84.86988139185527 15.019600374076639 C90.74296246118553 18.967852199508894, 94.25831663618231 25.2233947483034, 95.00120868437685 30.791497044780815 C95.74410073257138 36.35959934125823, 93.90813139986315 43.865933520387074, 89.32723368102252 48.428214152941145 C84.74633596218189 52.990494785495216, 75.80846850763595 56.21400777702372, 67.51582237133304 58.16518084010525 C59.223176235030145 60.116353903186784, 48.07073672658106 61.52247782001703, 39.57135686320512 60.13525253143035 C31.07197699982917 58.748027242843676, 21.963384874875572 54.271948745879826, 16.519543191077368 49.84182910858518 C11.075701507279163 45.411709471290536, 7.224822226577351 38.93710683837105, 6.908306760415897 33.5545347076625 C6.591791294254443 28.17196257695395, 9.504473831638247 21.873615392517316, 14.620450394108644 17.546396324333877 C19.73642695657904 13.219177256150436, 28.23353381680814 9.14347252239471, 37.60416613523827 7.591220298561854 C46.974798453668406 6.038968074728998, 63.80574712994657 7.503788534520164, 70.84424430468945 8.23288298133674 C77.88274147943234 8.961977428153316, 80.15464514829367 11.62814000377701, 79.83514918369559 11.96578697946131 M39.66858736911704 8.237168285453329 C47.512846451387155 6.233521013489254, 57.6643899879235 5.06572250025834, 66.04570198101504 6.936684832175658 C74.42701397410659 8.807647164092977, 85.00325755793511 14.914966617520953, 89.95645932766632 19.46294227695724 C94.90966109739753 24.010917936393525, 96.47701959694473 28.947340334796433, 95.76491259940232 34.22453878879337 C95.05280560185992 39.501737242790306, 91.49136269164381 46.60784111486053, 85.6838173424119 51.12613300093885 C79.87627199317998 55.64442488701717, 69.6915930633986 60.05545736662788, 60.91964050401086 61.33429010526331 C52.14768794462311 62.613122843898736, 41.486327205255115 61.090273765603904, 33.05210198608542 58.79912943275143 C24.61787676691572 56.50798509989895, 14.53428887424796 52.58173663651449, 10.31428918899266 47.58742410814847 C6.094289503737361 42.593111579782445, 5.973571538548895 34.515822464907885, 7.732103874553623 28.833254262555293 C9.49063621055835 23.1506860602027, 15.84028805987964 17.277641132450405, 20.865483205021025 13.492014894032906 C25.89067835016241 9.706388655615406, 34.980884374716595 7.30503862340749, 37.88327474540194 6.119496832050292 C40.78566511608729 4.933955040693093, 38.13581966425819 5.767403434542224, 38.27982542913308 6.378764145889718" stroke="#D1A836" stroke-width="1" fill="none"/></g></svg>