<svg xmlns="http://www.w3.org/2000/svg" class="selected:opacity-100 opacity-0" width="10px" height="10px" viewBox="0 0 10 10" style="position: absolute; inset: 0px; transform: translate(-5px, -5px); stroke-dasharray: 18.9104; stroke-dashoffset: 0px;"><g style="transform-origin: 50% 50%; transform: rotate(-181.293deg);"><path d="M5.951994797757884 3.500192241317315 C6.160216999817239 3.8332132990436905, 5.682703535493225 4.969690287850121, 5.678876780012672 5.231979547393903 C5.675050024532119 5.494268806937685, 5.919095386211055 4.951734215223311, 5.929034264874565 5.0739277985800095 C5.938973143538075 5.196121381936708, 5.765997402096275 5.766671143205662, 5.738510051993731 5.96514104753409 C5.711022701891187 6.163610951862517, 5.950671752231697 6.166494453086068, 5.764110164259301 6.264747224550576 C5.577548576286905 6.362999996015084, 4.7830625066795465 6.889148336556376, 4.619140524159355 6.554657676321134 C4.455218541639163 6.220167016085892, 4.7746669860240525 4.5301642786362235, 4.780578269138149 4.257803263139125 C4.786489552252246 3.985442247642026, 4.800027650693857 4.795383849100003, 4.654608222843937 4.92049158333854 C4.509188794994016 5.045599317577078, 3.7716091739395234 5.2165659192224885, 3.9080617020386255 5.008449668570349 C4.044514230137728 4.8003334179182096, 5.142869944100817 3.868946460600995, 5.47332339143855 3.6717940794257036 C5.803776838776282 3.4746416982504122, 6.018731742940421 3.6713838463343094, 5.8907823860650215 3.8255353815186 M6.130407619210251 4.95200228539712 C6.3690380443598045 5.404618338662914, 5.045432994081968 5.212229757254188, 5.0714397626359125 5.41487068856222 C5.097446531189857 5.617511619870252, 6.213262491153126 6.140685971139134, 6.28644823053392 6.167847873245315 C6.359633969914714 6.1950097753514966, 5.847179693879835 5.395020554546171, 5.510554198920679 5.577842101199308 C5.173928703961523 5.760663647852445, 4.247993917872836 7.076632749710658, 4.266695260778984 7.264777153164134 C4.285396603685132 7.452921556617611, 5.4634012874777875 7.093901286352636, 5.622762256357568 6.706708521920163 C5.782123225237348 6.31951575748769, 5.3783546327800735 5.073785296532104, 5.222861074057667 4.941620566569299 C5.06736751533526 4.809455836606495, 4.657328501694603 5.830829419635224, 4.689800904023128 5.913720142143337 C4.722273306351654 5.9966108646514495, 5.122608608112335 5.906174030301372, 5.417695488028818 5.438964901617975 C5.712782367945302 4.9717557729345785, 6.569884056369275 3.1170795490199206, 6.460322183522026 3.110465370042956 C6.350760310674777 3.103851191065991, 5.078594605704643 5.184326819830564, 4.7603242509453265 5.399279827756186" stroke="#D1A836" stroke-width="1" fill="none"/></g><g style="transform-origin: 50% 50%; transform: rotate(2.92338deg);"><path d="M4.28903590527888 3.657652691782716 C4.389648362584966 3.533194229885572, 5.09337261527319 3.886869857235247, 5.330792068103247 4.045368742381162 C5.568211520933304 4.203867627527076, 5.734827723022031 4.270659948899946, 5.713552622259222 4.608646002658203 C5.692277521496413 4.946632056416459, 5.312551758704652 5.71044001521524, 5.203141463526391 6.073285064930699 C5.09373116834813 6.436130114646159, 5.237904924790918 6.803464858483176, 5.057090851189654 6.785716300950957 C4.876276777588391 6.767967743418739, 4.262469314294457 6.250100700198563, 4.118257021918809 5.966793719737389 C3.97404472954316 5.683486739276215, 4.143759160351488 5.209951862925283, 4.191817096935761 5.085874418183914 C4.239875033520034 4.961796973442545, 4.432450387691928 5.500891973792481, 4.406604641424449 5.222329051289174 C4.380758895156971 4.943766128785867, 3.9599444255906913 3.5563868290426437, 4.036742619330893 3.4144968831640714 C4.1135408130710935 3.272606937285499, 4.70831364071026 4.255015490141442, 4.8673938038656575 4.370989376017739 C5.0264739670210545 4.4869632618940365, 5.090623374649985 4.093475686933061, 4.991223598263273 4.110340198421856 M4.00640106450164 5.423618399014676 C3.9553014022357917 5.4630937990167805, 4.764049975821228 3.0441173502384347, 4.867596956120343 3.0855263705752574 C4.971143936419457 3.12693539091208, 4.592519745802463 5.1052978648951015, 4.627682946296326 5.672072521035611 C4.662846146790189 6.238847177176121, 4.765146463976607 6.196766980253045, 5.0785761590835214 6.486174307418317 C5.392005854190436 6.775581634583588, 6.504636858866582 7.57632750499609, 6.508261116937811 7.408516484027238 C6.511885375009039 7.2407054630583865, 5.406904944423461 6.0445882987270485, 5.100321707510893 5.479308181605206 C4.793738470598324 4.914028064483364, 4.63707337384696 3.9774119504464758, 4.6687616954624 4.016835781296184 C4.70045001707784 4.056259612145892, 5.575255525202734 5.8693075304735745, 5.2904516372035335 5.715851166703454 C5.005647749204333 5.562394802933334, 3.2130120045551727 3.4927102128212257, 2.9599383674671964 3.0960975986754624 C2.70686473037922 2.699484984529699, 3.6389825721730547 3.0595490283853457, 3.772009814675676 3.336175481828875 C3.9050370571782973 3.612801935272404, 3.524521365195018 4.655715159655391, 3.758101822482925 4.755856319336637" stroke="#D1A836" stroke-width="1" fill="none"/></g></svg>