<svg xmlns="http://www.w3.org/2000/svg" class="hidden lg:block absolute -inset-1/20 w-11/10 h-11/10 pointer-events-none" viewBox="0 0 100 100">
                                                  <g>
                                                    <circle cx="50" cy="50" r="44" stroke-width="1" class="stroke-gold transform -rotate-90 origin-center" fill="none" style="stroke: rgb(209, 168, 54); stroke-dashoffset: 0px;"/>
                                                  </g>
                                                <g data-svg-origin="51.18600368499756 50.37381839752197" transform="matrix(-0.66913,0.74314,-0.74314,-0.66913,122.87089,46.04208)" style="opacity: 0; transform-origin: 0px 0px;"><path d="M67.13939873234769 12.046508975062189 C74.72182745279059 14.276160686288893, 81.66095941038905 21.132090014566185, 86.32368839205472 27.397648869285373 C90.98641737372039 33.66320772400456, 95.04298508274246 41.8382533035595, 95.11577262234168 49.63986210337731 C95.1885601619409 57.441470903195125, 91.65632699889005 67.62739546473072, 86.76041362965003 74.20730166819226 C81.86450026041001 80.78720787165379, 73.837061179985 86.41264254182903, 65.74029240690156 89.11929932414648 C57.64352363381813 91.82595610646393, 46.3544774998668 92.53816896587139, 38.17980099114942 90.44724236209696 C30.005124482432034 88.35631575832252, 21.936805943556056 82.47757948976624, 16.692233354597242 76.57373970149983 C11.447660765638428 70.66989991323342, 7.581051141629334 62.57430586948886, 6.71236545739653 55.024203632498484 C5.843679773163726 47.47410139550811, 7.810339545484865 38.2892626653469, 11.48011924920042 31.27312627955756 C15.149898952915976 24.25698989376822, 21.5620753374555 16.798853118312632, 28.731043679689858 12.92738531776245 C35.90001202192422 9.055917517212267, 47.62494001957771 8.020730517341518, 54.493929302606574 8.044319476256462 C61.36291858563544 8.067908435171406, 66.60889041756553 11.665431753002117, 69.94497937786305 13.068919071252111 C73.28106833816057 14.472406389502105, 74.83964662758959 15.77725915751436, 74.51046306439171 16.465243385756423 M37.016602283800935 11.507074275280289 C44.72622970212279 8.513383351560451, 56.218908394587004 7.641999682799044, 64.08230886770684 9.812008291314449 C71.94570934082668 11.982016899829853, 78.8905763649403 18.423504953433216, 84.19700512251995 24.527125926372715 C89.5034338800996 30.630746899312214, 95.43689168751753 38.736967445993976, 95.92088141318476 46.433734128951436 C96.40487113885199 54.130500811908895, 91.90079424555245 63.634085498600584, 87.1009434765233 70.70772602411748 C82.30109270749415 77.78136654963437, 74.46168979304443 85.33853060844304, 67.12177679900987 88.87557728205277 C59.781863804975295 92.41262395566251, 51.01050669500165 93.66459634194474, 43.061465512315884 91.93000606577591 C35.112424329630116 90.19541578960708, 25.40779561248827 84.01551015106001, 19.427529702895242 78.46803562503978 C13.447263793302216 72.92056109901954, 8.808710484943237 66.10541249757156, 7.179870054757721 58.64515890965449 C5.551029624572205 51.18490532173742, 6.593456320170715 41.2604649490527, 9.654487121782147 33.70651409753734 C12.715517923393579 26.15256324602198, 20.79238759646619 17.38245268024819, 25.546054864426317 13.321453800562345 C30.299722132386442 9.260454920876501, 36.38919251223358 9.877873137940957, 38.17649072954289 9.340520819422274 C39.963788946852205 8.80316850090359, 36.41091050636429 9.248301095914032, 36.26984416828219 10.09733988945024" stroke="#D1A836" stroke-width="1" fill="none"/></g><g data-svg-origin="49.612483978271484 50.06989669799805" transform="matrix(0.25882,-0.96593,0.96593,0.25882,-11.59223,85.03299)" style="opacity: 0; transform-origin: 0px 0px;"><path d="M45.84744723258733 9.527148184694838 C53.0682200770054 8.23623887035834, 62.72177274524495 9.684351792572373, 69.73096345242683 13.577213227331981 C76.74015415960872 17.470074662091587, 84.5180161878172 25.88093391045836, 87.90259147567863 32.88431679325248 C91.28716676354007 39.8876996760466, 91.24857665271244 48.04089290061431, 90.03841517959548 55.597510524096705 C88.8282537064785 63.1541281475791, 85.9149937643863 72.43091955070163, 80.64162263697678 78.22402253414684 C75.36825150956726 84.01712551759205, 66.02523027482898 88.72028840815457, 58.39818841513834 90.35612842476797 C50.7711465554477 91.99196844138137, 42.121264707918044 90.96485837359566, 34.8793714788329 88.03906263382726 C27.637478249747762 85.11326689405885, 19.286669279801963 79.31266194637202, 14.946829040627499 72.8013539861576 C10.606988801453035 66.29004602594317, 8.582930686369506 56.910659871692104, 8.840330043786118 48.971214872540685 C9.097729401202729 41.031769873389266, 11.9247807162746 31.34696494842099, 16.491225185127163 25.16468399124909 C21.057669653979726 18.982403034077187, 30.737493240531265 14.51460774930847, 36.2389968569015 11.877529129509277 C41.74050047327174 9.240450509710085, 46.98241020439787 9.551068547433205, 49.500246883348574 9.342212272453935 C52.018083562299275 9.133355997474665, 51.35706985590157 9.856076963578623, 51.34601693060569 10.624391479633658 M49.63028611990485 9.7088267364771 C57.07407616236063 9.135813084776405, 67.57756483125824 11.163900347968156, 74.13455960968344 15.357611995513494 C80.69155438810863 19.551323643058833, 86.37175316031983 27.44690996573173, 88.972254790456 34.87109662174913 C91.57275642059219 42.295283277766536, 91.89278166806324 52.42524025339142, 89.73756939050054 59.90273193161791 C87.58235711293784 67.38022360984439, 81.67540471284713 74.55547107844538, 76.0409811250798 79.73604669110804 C70.40655753731247 84.91662230377071, 63.43125071373523 89.9381796799986, 55.931027863896524 90.98618560759385 C48.43080501405782 92.03419153518911, 37.91973963214926 89.85405853232535, 31.039644026047537 86.0240822566796 C24.159548419945818 82.19410598103386, 18.45596205069146 74.76488128708145, 14.650454227286204 68.00632795371936 C10.844946403880948 61.247774620357276, 7.300507809139792 53.056685887249856, 8.206597085616004 45.47276225650707 C9.112686362092216 37.88883862576428, 14.708102994429797 28.27728884232789, 20.086989886143474 22.502786169262656 C25.46587677785715 16.72828349619742, 35.41078288237258 13.094016528040864, 40.479918435898064 10.825746218115661 C45.54905398942355 8.557475908190458, 48.88888326344678 8.942486576081986, 50.50180320729638 8.893164309711437 C52.11472315114599 8.843842043340889, 50.09396938869583 9.7551515847377, 50.15743809899568 10.529812619892368" stroke="#D1A836" stroke-width="1" fill="none"/></g><g data-svg-origin="49.54924488067627 49.70468282699585" transform="matrix(0.99756,0.06976,-0.06976,0.99756,3.5883,-3.33528)" style="opacity: 0; transform-origin: 0px 0px;"><path d="M32.38202815957375 8.821629041626409 C39.67644507383335 4.70105293536199, 50.42732552067745 3.860232836660532, 58.53596371987682 5.327242481218875 C66.64460191907618 6.794252125777217, 75.1545548676356 11.626457231074106, 81.03385735476995 17.623686908976467 C86.9131598419043 23.620916586878828, 92.10155482858659 33.12178062942065, 93.81177864268292 41.31062054863303 C95.52200245677926 49.49946046784542, 94.57510826883902 59.02234006630772, 91.29520023934793 66.75672642425077 C88.01529220985685 74.49111278219382, 81.16351479186015 83.05138330783686, 74.13233046573646 87.71693869629132 C67.10114613961277 92.38249408474579, 57.48989557066589 94.85179409954627, 49.1080942826058 94.75005875497754 C40.72629299454571 94.64832341040882, 30.82598765075216 91.91660160048787, 23.84152273737591 87.10652662887898 C16.85705782399966 82.2964516572701, 10.23559163033235 73.84985462975413, 7.201304802348304 65.88960892532427 C4.167017974364258 57.929363220894395, 3.6384477050776667 47.46024276727507, 5.635801769471641 39.34505240229974 C7.633155833865615 31.229862037324416, 14.134690109179576 22.57450919362224, 19.18542918871215 17.198466735472294 C24.23616826824472 11.822424277322348, 32.20134771190966 8.872572773150035, 35.94023624666707 7.088797653400064 C39.67912478142448 5.305022533650093, 41.43856589518619 5.742665907725278, 41.61876039725657 6.495816016972469 M42.92880579820232 5.288222720205347 C50.86816538043438 3.3302117834231053, 60.83762972956819 6.9486302378422895, 68.37120339200601 10.40780312957257 C75.90477705444383 13.866976021302852, 83.77480050644216 18.985646393186638, 88.13024777282922 26.04326007058704 C92.48569503921628 33.100873747987436, 94.59077963909654 44.448744978857675, 94.50388699032837 52.753485193974974 C94.4169943415602 61.05822540909227, 92.76477929105096 69.56151733970765, 87.6088918802202 75.87170136129082 C82.45300446938944 82.18188538287399, 71.63709268215165 87.75378358172779, 63.568562525343786 90.61458932347402 C55.500032368535926 93.47539506522025, 47.05103439902572 95.11483954552892, 39.19771093937306 93.03653581176823 C31.344387479720403 90.95823207800754, 21.94409704725338 84.2983314356556, 16.448621767427845 78.14476692090992 C10.95314648760231 71.99120240616423, 7.1725680330170745 64.18843334931847, 6.224859260419848 56.115148723294126 C5.277150487822621 48.04186409726979, 7.015516991054293 37.46897243841496, 10.762369131844487 29.70505916476387 C14.509221272634681 21.941145891112782, 23.436818023752195 13.48589591719634, 28.70597210516101 9.531669081387605 C33.975126186569824 5.577442245578871, 40.04358152134442 6.223079813760382, 42.37729362029737 5.979698149911464 C44.71100571925032 5.736316486062545, 42.48606129752321 7.484099554450875, 42.708244698878694 8.071379098294095" stroke="#D1A836" stroke-width="1" fill="none"/></g><g data-svg-origin="50.01084899902344 50.52160835266113" transform="matrix(-0.95106,0.30902,-0.30902,-0.95106,113.18635,83.11634)" style="opacity: 0; transform-origin: 0px 0px;"><path d="M65.93392610585612 8.362618318084728 C73.58026549281489 10.74354581239577, 81.79460811394739 17.179390676070486, 86.69421673049132 23.921378962229195 C91.59382534703525 30.663367248387903, 95.23986256834175 40.521820140483, 95.33157780511965 48.81454803503698 C95.42329304189755 57.107275929590955, 91.61375123551102 66.68511236707663, 87.24450815115875 73.67774632955307 C82.87526506680649 80.67038029202952, 76.51291564356288 87.34333716757071, 69.11611929900607 90.77035180989566 C61.71932295444927 94.1973664522206, 50.93331718796206 95.39555669381852, 42.863730083817906 94.2398341835028 C34.79414297967375 93.08411167318707, 26.750960317031343 89.4750395137505, 20.698596674141147 83.83601674800127 C14.64623303125095 78.19699398225204, 8.785900605793147 68.5118906435109, 6.54954822647673 60.405697589007374 C4.313195847160314 52.29950453450385, 4.672592230460191 42.96968690520031, 7.280482398242647 35.19885842098013 C9.888372566025103 27.42802993675995, 15.518664973478039 18.795941733061078, 22.19688923317146 13.780726683686282 C28.875113492864884 8.765511634311487, 39.50384754000368 5.695481433556118, 47.34982795640319 5.107568124731358 C55.195808372802695 4.519654815906598, 65.14688347935711 9.108350922356129, 69.27277173156851 10.253246830737723 C73.39865998377991 11.398142739119317, 72.33947900324391 11.260822927585911, 72.10515746967161 11.976943575020918 M58.79209943812716 5.927535717738365 C66.33613700166094 6.436091092576134, 74.08346653018634 10.51008214485704, 79.94323252769362 16.105179840193877 C85.8029985252009 21.700277535530713, 91.98833770406054 31.234785427718364, 93.95069542317088 39.49812188975939 C95.91305314228123 47.761458351800414, 94.92188032936474 57.69287970442319, 91.71737884235569 65.68519861244002 C88.51287735534663 73.67751752045685, 81.27358233122122 82.36028004072766, 74.72368650111653 87.45203533786034 C68.17379067101184 92.54379063499302, 60.31872734558526 96.15925018086055, 52.41800386172757 96.23573039523608 C44.51728037786988 96.3122106096116, 34.473756336588266 92.6492189278973, 27.319345597970376 87.91091662411344 C20.164934859352485 83.17261432032959, 13.187579744831515 75.07803877928858, 9.491539430020218 67.80591657253298 C5.795499115208921 60.533794365777375, 3.7119504354378074 52.14439626131595, 5.14310370910259 44.27818338357982 C6.5742569827673725 36.4119705058437, 12.335129781975024 26.652257340771794, 18.07845907200891 20.608639306116217 C23.8217883620428 14.56502127146064, 33.08645383572013 10.612621043258574, 39.60307944930591 8.016475175646356 C46.11970506289169 5.4203293080341375, 54.34415563148455 5.4588957648014125, 57.17821275352359 5.031764100442906 C60.01226987556263 4.6046324360844, 56.42442119611499 4.8059691452848154, 56.60742218154016 5.453685189495317" stroke="#D1A836" stroke-width="1" fill="none"/></g></svg>