<svg xmlns="http://www.w3.org/2000/svg" class="selected:opacity-100 opacity-0" width="10px" height="10px" viewBox="0 0 10 10" style="position: absolute; inset: 0px; transform: translate(-5px, -5px); stroke-dasharray: 18.9479; stroke-dashoffset: 0px;"><g style="transform-origin: 50% 50%; transform: rotate(-183.157deg);"><path d="M4.856543322273812 3.129467836935936 C5.220939284803123 3.259431437024486, 5.888925927475409 4.239764231528896, 6.219854668682321 4.5349504454502085 C6.550783409889233 4.830136659371521, 6.8227161929920825 4.8841395335860645, 6.842115769515282 4.9005851204638144 C6.861515346038482 4.917030707341564, 6.669461780944803 4.532735952481756, 6.33625212782152 4.633623966716707 C6.003042474698236 4.734511980951657, 5.0954287672039005 5.253098413421682, 4.842857850775582 5.505913205873515 C4.590286934347263 5.758727998325348, 4.830554385912891 6.056206744991981, 4.820826629251608 6.150512721427704 C4.811098872590326 6.244818697863427, 4.92510504471155 6.163818244397484, 4.784491310807887 6.071749064487854 C4.643877576904224 5.979679884578224, 3.967265951045284 6.038659936100702, 3.9771442258296297 5.5980976419699235 C3.9870225006139752 5.157535347839145, 4.801951029108834 3.81407915785714, 4.84376095951396 3.428375299703182 C4.885570889919086 3.0426714415492246, 4.192781684997123 3.3089973034488533, 4.228003808260388 3.283874493046177 C4.263225931523652 3.258751682643501, 4.949409972751255 3.1891584715398813, 5.055093699093546 3.277638437287126 M3.7466204996805064 4.033259217834445 C3.796666909004635 3.736885155267003, 4.416115849112139 2.764064040414677, 4.753383862146796 3.0184409076488254 C5.090651875181453 3.272817774882974, 5.422466964444956 5.282868168296529, 5.770228577888446 5.559520421239337 C6.117990191331936 5.836172674182144, 6.675098331813681 4.815724064309981, 6.839953542807735 4.678354425305673 C7.00480875380179 4.540984786301365, 6.96143954252186 4.5015894985952585, 6.75935984385277 4.735302587213492 C6.55728014518368 4.969015675831725, 6.1834597675007945 6.087844106129175, 5.627475350793194 6.080632957015073 C5.071490934085594 6.073421807900971, 3.814232851664583 4.9241501424022305, 3.423453343607168 4.692035692528879 C3.032673835549753 4.459921242655528, 3.2426353503902448 4.992865405832125, 3.282798302448703 4.687946257774968 C3.3229612545071614 4.38302710971781, 3.2342249626119743 2.826230562435226, 3.6644310559579187 2.8625208041859347 C4.094637149303863 2.898811045936643, 5.6923449436871065 4.605445421977975, 5.8640348625243695 4.90568770827922 C6.035724781361632 5.2059299945804645, 5.029552895684037 4.550687428224588, 4.694570568981495 4.6639745219934055" stroke="#D1A836" stroke-width="1" fill="none"/></g><g style="transform-origin: 50% 50%; transform: rotate(3.76834deg);"><path d="M5.555748910860719 4.941859336912132 C5.999119194213317 5.186158204032007, 6.076398750479397 4.93312846330066, 6.237842792912081 4.773328970977783 C6.399286835344766 4.613529478654906, 6.513072139508985 3.9458745349838855, 6.524413165456823 3.98306238297487 C6.535754191404662 4.020250230965854, 6.569163079411808 4.548260833951937, 6.305888948599112 4.996456058923689 C6.042614817786415 5.444651283895442, 5.325971950538599 6.412474841623087, 4.944768380580645 6.672233732805384 C4.563564810622691 6.93199262398768, 4.159014061701392 6.735836728715473, 4.01866752885139 6.5550094060174695 C3.8783209960013876 6.374182083319466, 4.066022229230774 5.782748280933665, 4.10268918348063 5.5872697966173615 C4.139356137730485 5.3917913123010575, 4.132937201060687 5.715867814910096, 4.238669254350523 5.382138500119644 C4.344401307640358 5.0484091853291915, 4.73781522761226 3.9212058482756915, 4.737081503219642 3.5848939078746485 C4.736347778827024 3.2485819674736054, 4.203922198925005 3.3812179509793556, 4.234266907994813 3.3642668577133845 C4.264611617064622 3.3473157644474134, 4.663772674783959 3.410651783543401, 4.919149757638494 3.4831873482788227 M4.755268596288994 3.8600927612383154 C4.601058252532129 3.810698113850658, 4.119042369872854 3.2909253037683044, 4.307903199000705 3.434493879270494 C4.496764028128556 3.5780624547726836, 5.466099758949081 4.284029481423432, 5.8884335710560975 4.721504214251452 C6.310767383163114 5.158978947079471, 6.933436389908279 6.0580803512758035, 6.841906071642803 6.0593422762386115 C6.750375753377326 6.06060420120142, 5.759611437387104 4.57599332893499, 5.339251661463235 4.729075764028299 C4.918891885539367 4.8821581991216085, 4.343408343034228 6.833324397648521, 4.319747416099589 6.9778368867984675 C4.29608648916495 7.1223493759484136, 5.308609646633454 5.764445820674057, 5.1972860998554005 5.5961506989279775 C5.085962553077347 5.427855577181898, 3.7334697855104944 6.381080224474293, 3.6518061354312676 5.968066156321993 C3.570142485352041 5.555052088169693, 4.471610280693342 3.6226291354006808, 4.707304199380039 3.118066290014176 C4.942998118066736 2.6135034446276713, 5.072584430083608 2.7535691235120234, 5.06596964755145 2.940689084002963 C5.059354865019292 3.127809044493903, 4.76110203851154 4.011693109059233, 4.667615504187091 4.240786052959814" stroke="#D1A836" stroke-width="1" fill="none"/></g></svg>