<svg xmlns="http://www.w3.org/2000/svg" width="261px" height="25px" viewBox="0 0 261 25" style="position: absolute; inset: auto 0px -12.5px; stroke-dasharray: 325.633; stroke-dashoffset: 326px;"><g stroke-linecap="round"><path d="M10.552683954653755 10.683889530603398 C64.51791139585289 9.913238738868024, 118.89087886593413 9.71689036479077, 251.44173995142197 9.558870909503542 M33.83787347392139 17.66230598191648 C79.65906563125446 15.440616722188036, 123.85815856312945 15.83809557667519, 226.0514806333918 18.600216764608685 M33.70079459590484 17.275220509624464 C90.06668783765912 23.56382989252704, 147.68090741656226 21.21763237536291, 251.25728694412732 10.201405855827545" stroke="#D1A836" stroke-width="2" fill="none"/><path d="M10.8201833795816 10.155019615276533 C69.16477672557237 15.75371652963577, 126.71749461820696 16.175488378714025, 250.67869843343064 9.758929212098051 M10.025711032165518 10.35791830470119 C69.89655255984493 2.979013735627732, 129.7101811307258 3.612393091410802, 250.6283808619087 9.666006770119445 M251.14922633199828 10.715932955982577 C239.64854782708318 13.74991727398051, 230.32933819518564 16.270177075249265, 220.56102128159526 20.753033104497028 M250.84002880180293 9.808284199095901 C239.99893994484935 12.95188128004284, 229.2441407697406 16.499851290500157, 220.83212032027959 20.178831942129595 M220.004490971515 20.859804048717084 C149.64535035132803 18.08799442963645, 78.31319964289749 17.269856243448242, 39.50164580282898 19.593030461430956 M221.13147052267723 20.117089858445905 C149.65326570772328 24.937800116496035, 78.5629999835953 24.52293525126187, 39.58997568351356 20.03995929836055 M40.761468309638616 19.840676987203807 C29.91667268424255 15.459474419826238, 21.262302427087562 13.254617517627075, 10.022202433517403 9.61760077728341 M39.731317164181014 20.446077238556732 C29.041115579082057 17.116240991865503, 18.55673318716485 13.918331999169158, 10.202483137737357 9.612554435096497" stroke="false" stroke-width="1" fill="none"/></g></svg>