<svg xmlns="http://www.w3.org/2000/svg" width="274px" height="25px" viewBox="0 0 274 25" style="position: absolute; inset: auto 0px -12.5px; stroke-dasharray: 344.868; stroke-dashoffset: 345px;"><g stroke-linecap="round"><path d="M10.739795502751644 10.472545984859012 C65.55708772162747 10.365814008338546, 121.26982421618477 9.348442796754037, 264.56735385879847 9.400335365608848 M33.73394689374492 18.076487385616847 C113.04280041836768 13.371711613670822, 193.59951951971559 13.288652299887959, 239.20698550003914 17.186237637416106 M34.81963982884364 18.5789210834693 C88.05378732132309 22.196156912425895, 142.44620942996207 19.959686468119784, 264.6952597472924 9.296262013149686" stroke="#D1A836" stroke-width="2" fill="none"/><path d="M10.534525527821115 10.36813243742718 C88.91353843841297 14.812060330882852, 169.12166777782716 14.517948212935577, 263.9739046124273 10.175873057728703 M9.689531683314987 9.602777137459597 C68.65971052912386 4.598286646059179, 127.70102996025128 4.740784457621014, 263.8119783851687 10.234889784106398 M264.7666169715711 10.999306175780251 C258.13569448808846 13.048568713546427, 251.6716755037768 15.122608614378473, 234.97134947476812 19.937591773606957 M264.2105783587084 10.269720715935417 C255.52053566752755 11.734218532987622, 247.97427237765157 14.911172142197959, 233.89980785882773 20.394583249874806 M233.21013236649827 20.692547883933557 C191.59911392725382 21.469040297735337, 147.50941769760686 21.71769828553286, 40.841288827359435 19.74705714395326 M233.53849059069069 20.23391465862234 C176.8446298418323 24.850327823895356, 119.4733197491642 25.268209916819803, 40.15243225393121 20.068208330004524 M39.327273845905744 20.866532797096248 C31.458134339074263 15.955742375479833, 24.930256970432605 14.659987859465673, 10.360982784851915 10.776941675503625 M40.36870738987804 20.009104056140522 C31.66882959484461 16.36588881306048, 23.800745742270085 13.487936019099836, 10.083793598271837 10.300266504281176" stroke="false" stroke-width="1" fill="none"/></g></svg>