<svg xmlns="http://www.w3.org/2000/svg" width="138px" height="25px" viewBox="0 0 138 25" style="position: absolute; inset: auto 0px -12.5px; stroke-dasharray: 141.863; stroke-dashoffset: 142px;"><g stroke-linecap="round"><path d="M9.00098584694506 10.92896558777054 C51.02093323086535 6.880342042214281, 91.09830366662926 5.7808500522911945, 128.45361671242355 9.248107568668143 M34.479336821468834 18.11033639764137 C52.16793922663438 18.13732396266317, 67.92182933245672 19.600578534143644, 103.70948899572343 18.405183124135732 M33.17992194691428 18.064873584351055 C62.281440652111 19.473109363000624, 89.43101366323639 15.615815423330774, 127.48410953695212 9.748837588948213" stroke="#D1A836" stroke-width="2" fill="none"/><path d="M9.580725249508008 10.37931763967973 C49.72230806618238 10.048687129700372, 88.7864088575707 10.304493289441615, 127.93501680572922 10.440848219545568 M9.921105764426748 10.444772997672374 C49.677473837748394 7.639721348128314, 88.28404992545046 7.340311393644299, 127.55591878865779 10.218923477113936 M127.85824843269828 9.505689491864242 C119.79399517668784 11.856883239529322, 109.3450616686006 14.83018461737349, 98.63142178536387 20.409612520795246 M128.17072945527082 9.510809459119393 C115.57385584601559 14.753033478909172, 103.71172245274391 19.04482059843867, 98.18142891419053 20.353649611599668 M97.79779988914079 20.172017240974746 C84.14112718101367 19.55932063120186, 67.56449797299108 20.084903356906697, 40.73078667320139 19.06606326273623 M97.6970044767884 19.821132520091233 C78.1095475975256 20.757902940587456, 57.83865770845771 20.875604797324733, 40.15828116568786 20.38659049809623 M39.95081831204994 19.796889762088497 C29.247970634185574 17.508929862182587, 19.0968281517291 13.695771521719658, 10.86731271311491 9.663656464997004 M40.35856123917077 20.467792584800133 C29.513374389805794 16.795290344668878, 18.13799846808445 13.377846080036347, 9.575018095561836 10.40557665207203" stroke="false" stroke-width="1" fill="none"/></g></svg>