<svg xmlns="http://www.w3.org/2000/svg" class="selected:opacity-100 opacity-0" width="114px" height="67px" viewBox="0 0 114 67" style="position: absolute; inset: 0px; transform: translate(-4px, -4px); stroke-dasharray: 373.003; stroke-dashoffset: 0px;"><g style="transform-origin: 50% 50%; transform: rotate(-183.708deg);"><path d="M48.092359221461834 4.1417502522863145 C57.35700975312795 3.1390347277122936, 69.8199139965652 5.418142619071828, 79.043622927578 7.755470354360305 C88.2673318585908 10.092798089648783, 98.31735983919765 13.567109886592654, 103.43461280753863 18.165716664017175 C108.5518657758796 22.764323441441697, 110.43992772374818 29.581740974918375, 109.74714073762388 35.34711101890743 C109.05435375149958 41.11248106289648, 105.66657676304578 48.24992344343768, 99.27789089079276 52.75793692795149 C92.88920501853974 57.2659504124653, 80.98334889691331 60.973928064317455, 71.41502550410576 62.395191925990275 C61.84670211129821 63.816455787663095, 51.122261694296945 62.955076080958236, 41.86795053394745 61.285520097988396 C32.613639373597955 59.615964115018556, 22.20951981943603 56.73063930794146, 15.889158542008772 52.37785602817125 C9.568797264581516 48.025072748401044, 4.511162159147388 40.858637021175475, 3.945782869383912 35.16882041936713 C3.380403579620436 29.479003817558784, 7.460573095762673 23.090421975764027, 12.496882803427916 18.23895641732118 C17.53319251109316 13.387490858878333, 25.833336960165887 8.419742279398728, 34.16364111537537 6.060027068710042 C42.49394527058485 3.7003118580213563, 55.46372077427337 4.066963595362894, 62.478707734684825 4.0806651531890665 C69.49369469509628 4.094366711015239, 76.1998111142004 5.508631874600209, 76.2535628778441 6.142236415667075 M33.68107625066585 6.884179747836001 C41.964063884986764 4.516273874190871, 55.968348260093556 3.7514863881861427, 65.7739957269446 4.623575385619144 C75.57964319379566 5.495664383052146, 85.31875967156755 8.35281734377653, 92.51496105177216 12.116713732434011 C99.71116243197677 15.880610121091491, 106.8887053880943 21.949375985455916, 108.95120400817225 27.206953717564023 C111.01370262825021 32.46453144967213, 108.58282557897643 38.64033266171355, 104.88995277223991 43.66218012508264 C101.19707996550339 48.684027588451734, 95.20958084708376 54.15326687478298, 86.79396716775318 57.338038497778555 C78.3783534884226 60.52281012077413, 64.60403991090293 62.82475922159758, 54.39627069625646 62.770809863056115 C44.18850148160999 62.71686050451465, 33.225632895402455 60.201689703567546, 25.547351879874352 57.01434234652975 C17.869070864346252 53.82699498949196, 11.816919246061067 48.8535517231941, 8.32658460308786 43.64672572082934 C4.836249960114651 38.439899718464574, 2.4229885430385436 31.022479655772635, 4.605344022035105 25.773386332341175 C6.787699501031666 20.524293008909716, 16.513668625126847 15.308520479606294, 21.420717477067228 12.15216578024057 C26.32776632900761 8.995811080874844, 31.77115302492386 7.426934810175043, 34.0476371336774 6.83525813614683 C36.324121242430934 6.243581462118618, 34.39340899437963 8.353167303475423, 35.07962212958846 8.602105736071294" stroke="#D1A836" stroke-width="1" fill="none"/></g><g style="transform-origin: 50% 50%; transform: rotate(1.09197deg);"><path d="M35.42605077910071 9.023012064551775 C43.72976379468653 6.73139807785099, 57.12842448277158 6.338463312004589, 66.89645946633317 7.351304621826959 C76.66449444989476 8.364145931649327, 87.34078091686587 11.479079392140067, 94.03426068047025 15.10005992348599 C100.72774044407464 18.721040454831915, 105.76163611800925 23.855415207575135, 107.05733804795952 29.0771878099025 C108.35303997790979 34.29896041222987, 106.25825349613694 41.681784925162546, 101.80847226017183 46.43069553745019 C97.3586910242067 51.179606149737836, 89.06124943362863 55.29259912832824, 80.35865063216883 57.570651483628374 C71.65605183070903 59.84870383892851, 59.356496422432315 60.78354205098252, 49.592879451413054 60.09900966925098 C39.829262480393794 59.414477287519446, 28.940893547789038 56.819900791468164, 21.776948806053255 53.463457193239165 C14.613004064317472 50.107013595010166, 8.532319298149067 45.04709996754281, 6.60921100099835 39.96034807987698 C4.6861027038476335 34.873596192211146, 6.373738080319356 27.947744120332757, 10.238299023148954 22.94294586724416 C14.102859965978553 17.93814761415556, 24.385258833082215 12.667204485578527, 29.79657665797594 9.931558561345401 C35.20789448286966 7.195912637112276, 39.27133068070897 7.117952501243322, 42.7062059725113 6.529070321845403 C46.14108126431363 5.940188142447483, 49.999307866464385 5.8378934791417825, 50.40582840878989 6.398265484957886 M67.04359868781103 7.91937053979856 C76.67515720995453 8.306824853338103, 89.29683411136524 10.790487642171056, 95.8189185386095 14.368337287579333 C102.34100296585375 17.946186932987608, 105.05954995802506 24.1056913021419, 106.17610525127652 29.386468412248217 C107.29266054452799 34.667245522354534, 107.05740478722905 41.458870879806966, 102.51825029811829 46.05299994821723 C97.97909580900753 50.64712901662749, 87.64139456889588 54.31952237108386, 78.94117831661197 56.951242822709766 C70.24096206432806 59.58296327433567, 59.68706225392474 62.361905543269856, 50.31695278441486 61.84332265797265 C40.946843314904974 61.32473977267544, 29.7585517696801 57.68788935027148, 22.72052149955266 53.839745510926534 C15.68249122942522 49.991601671581584, 10.319253368294202 44.03279892578851, 8.088771163650222 38.75445962190296 C5.8582889590062415 33.47612031801741, 5.67798476677163 26.87441829834334, 9.337628271688779 22.169709687613206 C12.997271776605928 17.465001076883073, 21.272252428140035 13.062887415892316, 30.046632193153116 10.526207957522153 C38.821011958166196 7.989528499151991, 55.75446934672714 7.832067805632405, 61.983906861767245 6.949632937392234 C68.21334437680736 6.067198069152064, 66.33899014346382 5.111322487614509, 67.42325728339375 5.231598748081133 C68.50752442332369 5.351875008547757, 68.6857334710258 6.978818154543259, 68.48950970134688 7.671290500191979" stroke="#D1A836" stroke-width="1" fill="none"/></g></svg>