<svg width="200" height="200" viewBox="0 0 200 200" fill="none" xmlns="http://www.w3.org/2000/svg">
<circle cx="100" cy="100" r="100" fill="#F7931A"/>
<path d="M138.38 117.28C137.68 109.16 129.38 103.73 129.38 103.73C129.38 103.73 139.96 100.86 141.05 88.32C141.74 80.32 136.7 71.97 124.05 68.25L128.41 51.78L118.03 49.03L113.68 65.46L105.07 63.18L109.42 46.75L99.02 44L94.67 60.43L77.95 56L75.2 66.37L85.38 69.06L72.1 119.23L61.92 116.52L59 127.52L75.72 131.95L71.37 148.41L81.81 151.22L86.17 134.76L94.78 137.04L90.38 153.52L100.81 156.25L105.17 139.79L107.58 140.42C127.9 145.52 139.58 131.28 138.38 117.28ZM102.59 73.62C102.59 73.62 106.81 74.71 112.87 76.34C118.62 77.89 123 82.97 121.65 88.7C120.3 94.43 114.31 98.08 108.02 96.52C102.25 95.08 97.28 93.68 97.28 93.68L102.59 73.62ZM103.06 127.43C97.06 125.97 89.31 123.79 89.31 123.79L94.81 102.96C94.81 102.96 101.81 104.96 108.04 106.46C115.49 108.3 120.04 113.19 118.4 119.74C116.76 126.29 111.15 129.4 103.06 127.43Z" fill="#FAFAFA"/>
</svg>
