<svg width="199" height="62" viewBox="0 0 199 62" fill="none" xmlns="http://www.w3.org/2000/svg">
<g clip-path="url(#clip0_11_36)">
<path d="M1.36136 3.17791C0.959739 2.24035 2.02349 1.35488 2.87025 1.92191L44.0328 29.4862C44.5293 29.8186 44.6371 30.5046 44.2666 30.9738L25.237 55.0779C24.7562 55.6871 23.7999 55.56 23.4943 54.8464L1.36136 3.17791Z" fill="#662483"/>
<path d="M6.98901 26.5324C7.24809 26.3556 7.60351 26.4517 7.73862 26.7351L16.3405 44.773C16.605 45.3275 15.8488 45.7933 15.4739 45.3069L3.40105 29.637C3.22116 29.4036 3.27469 29.0666 3.51805 28.9006L6.98901 26.5324Z" fill="#4D1761"/>
<path d="M46.6099 0.922614C47.0338 0.645991 47.5586 1.08775 47.3595 1.55361L39.3 20.4088C39.1786 20.6928 38.8357 20.8054 38.5699 20.6485L27.632 14.1905C27.305 13.9973 27.2945 13.5273 27.6125 13.3198L46.6099 0.922614Z" fill="#4D1761"/>
<path d="M197.082 24.7232L194.268 22.3534C194.268 22.3534 191.966 25.9795 187.106 25.8761C182.515 25.7784 178.787 22.4693 178.729 17.8699C178.71 16.3833 178.793 15.4969 179.432 14.155C180.96 10.9483 182.889 9.10163 187.106 9.28726C192.925 9.54344 193.756 14.3472 193.756 14.3472H179.432C178.601 15.8844 178.701 17.4856 178.831 17.8699H197.977C197.977 17.8699 198.488 5.57237 187.106 5.44428C179.816 5.36225 174.917 10.754 174.828 17.4216C174.739 24.1774 180.361 29.8345 187.106 29.7191C194.588 29.591 197.082 24.7232 197.082 24.7232Z" fill="#662483" stroke="#662483"/>
<path d="M159.162 8.90284L156.86 11.657C156.86 11.657 155.069 9.35703 151.041 9.41524C146.413 9.48208 142.776 13.3016 142.919 17.9338C143.059 22.4247 146.491 25.8474 150.977 25.8119C153.982 25.7882 156.86 23.4421 156.86 23.4421L159.162 26.4524C159.162 26.4524 156.796 29.719 150.977 29.719C144.478 29.719 139.209 24.4401 139.019 17.9338C138.822 11.2323 144.347 5.57227 151.041 5.57227C156.86 5.57227 159.162 8.90284 159.162 8.90284Z" fill="#662483" stroke="#662483"/>
<path d="M95.7911 29.3989V5.82861H106.534C106.534 5.82861 114.144 6.53316 114.144 14.4113C114.144 20.2398 108.389 22.2253 108.389 22.2253C110.755 26.0042 113.248 25.684 114.911 25.684V29.527C112.481 29.3989 107.046 29.3989 104.296 22.5456H98.926V18.5745H106.534C106.534 18.5745 110.115 18.1902 110.307 14.4113C110.512 10.3813 106.534 9.54349 106.534 9.54349H99.564V22.5456V29.3989H95.7911Z" fill="#662483" stroke="#662483"/>
<path d="M55.1854 5.70051H51.2208V29.3989H55.1854L55.0575 13.6427C55.0575 13.6427 56.5283 8.96704 61.0685 9.28729C64.2578 9.51226 64.6494 12.8741 64.6494 12.8741V29.3989H68.6141V13.6427C68.6141 13.6427 70.0848 8.45465 75.0726 9.41539C78.206 10.0189 78.0141 13.3224 78.0141 13.3224L78.0781 29.3989H81.9149V12.6179C81.9149 12.6179 81.5185 6.35787 75.0726 5.50836C70.2127 4.86787 67.2712 8.90299 67.2712 8.90299C67.2712 8.90299 65.2249 5.57241 61.0685 5.44432C57.6793 5.33986 55.1854 7.3658 55.1854 7.3658V5.70051Z" fill="#662483" stroke="#662483"/>
<path d="M90.4836 5.95654H87.0305V29.3987H90.4836V5.95654Z" fill="#662483" stroke="#662483"/>
<path d="M118.236 7.42953L119.707 10.7601C121.625 10.1837 123.608 9.54322 126.741 9.54322C128.02 9.54322 132.112 9.54322 132.56 14.1547V24.4026C132.56 24.4026 129.107 26.9646 125.718 26.6444C123.991 26.4813 121.178 25.7477 121.178 21.4563C121.178 17.165 127.481 15.6689 133.364 17.9746V14.58C133.364 14.58 117.341 10.1152 117.341 21.8406C117.341 27.1568 121.433 29.9749 125.718 29.9749C128.979 29.9749 132.432 28.3737 132.432 28.3737V29.4625H136.333V13.9625C136.333 11.4006 134.67 8.32628 131.985 6.78909C127.828 4.41012 119.451 6.91718 118.236 7.42953Z" fill="#662483" stroke="#662483"/>
<path d="M165.237 5.82861H161.528V29.3989H174.253L174.764 25.684L165.237 25.6199V5.82861Z" fill="#662483" stroke="#662483"/>
<path d="M162.423 39.4386L163.446 41.6964C165.364 41.1199 166.196 40.4794 169.905 40.4794C173.358 40.4794 176.107 41.4402 176.555 46.0518L176.619 56.4278C176.619 56.4278 173.294 59.246 169.905 58.9257C168.178 58.7625 164.213 58.0931 164.022 53.4815C163.83 48.8699 169.462 46.372 176.944 49.1261L176.88 46.8204C176.88 46.8204 161.272 41.7561 161.272 53.4815C161.272 58.7976 165.62 61.2956 169.905 61.2956C173.166 61.2956 176.619 59.1819 176.619 59.1819V60.7191H179.433V45.9237C179.433 44.0662 178.09 40.6876 175.852 39.3266C170.672 36.1769 163.638 38.9262 162.423 39.4386Z" fill="#0B0B0B" stroke="#0B0B0B"/>
<path d="M141.896 37.7891V60.6548H144.71V40.6713H152.767C152.767 40.6713 156.668 42.2692 156.668 45.9874C156.668 49.8304 152.767 50.8552 152.767 50.8552H144.359V53.6734H152.767C152.767 53.6734 159.354 52.3283 159.354 45.9874C159.354 39.3903 152.767 37.7891 152.767 37.7891H141.896Z" fill="#0B0B0B" stroke="#0B0B0B"/>
<path d="M184.165 37.8535H180.775L188.513 49.4465V60.7192H191.263V49.4465L198.808 37.8535H195.611L189.792 46.4362L184.165 37.8535Z" fill="#0B0B0B" stroke="#0B0B0B"/>
</g>
<defs>
<clipPath id="clip0_11_36">
<rect width="199" height="62" fill="white"/>
</clipPath>
</defs>
</svg>
