<svg width="200" height="200" viewBox="0 0 200 200" fill="none" xmlns="http://www.w3.org/2000/svg">
<circle cx="100" cy="100" r="100" fill="#02A57A"/>
<path d="M110.86 84.25V71.74H139.32V52H60.32V71.74H88.86V84.25C64.95 85.4 47 90.2 47 95.95C47 101.7 64.93 106.47 88.86 107.65V148.94H110.86V107.65C134.77 106.51 152.72 101.71 152.72 95.95C152.72 90.19 134.79 85.4 110.86 84.25ZM99.86 103.91C73.97 103.91 52.98 99.91 52.98 95.09C52.98 90.94 68.27 87.46 88.84 86.53V100.66C92.38 100.82 96.06 100.91 99.84 100.91C103.62 100.91 107.32 100.82 110.84 100.66V86.53C131.41 87.46 146.7 90.94 146.7 95.09C146.74 99.96 125.75 103.91 99.86 103.91Z" fill="#FAFAFA"/>
</svg>
