<svg width="222" height="199" viewBox="0 0 222 199" fill="none" xmlns="http://www.w3.org/2000/svg">
<path d="M38.5 108L110 65V26.5L38.5 108Z" fill="#FB8500"/>
<path d="M110 26.5V65L182 108L110 26.5Z" fill="#FB8500"/>
<path d="M137 0L191 108L109.5 146V198L221 108L137 0Z" fill="#FB8500"/>
<path d="M83.5 0L31 107L109.5 146V198L1 108L83.5 0Z" fill="#FB8500"/>
<path d="M110 65L38.5 108L110 26.5M110 65V26.5M110 65L182 108L110 26.5M109.5 146L31 107L83.5 0L1 108L109.5 198M109.5 146V198M109.5 146L191 108L137 0L221 108L109.5 198" stroke="#FB8500" stroke-width="0.01"/>
</svg>
