<svg xmlns="http://www.w3.org/2000/svg" width="200" height="42" viewBox="0 0 200 42">
    <g fill="#FEFEFE" fill-rule="evenodd">
        <path d="M6.452 12.923v17.77h14.516v-2.89H9.617l-.009-14.88zM59.613 27.803h11.355v2.89H56.452v-17.77h3.161zM46.769 30.692H30.645V12.923h16.13v2.878H34.052v4.348h8.705v2.872h-8.705v4.788h12.716zM82.618 21.083c0 4.376 3.16 6.705 7.04 6.705 3.905 0 7.044-2.329 7.044-6.705 0-4.36-3.139-6.696-7.044-6.696-3.88 0-7.04 2.335-7.04 6.696m17.507 0c0 6.225-4.667 9.61-10.467 9.61-5.801 0-10.461-3.385-10.461-9.61 0-6.207 4.66-9.593 10.46-9.593 5.801 0 10.468 3.386 10.468 9.593M128.754 28.743h1.74V13.438h-1.74v6.82h-11.197v-6.82h-1.742v15.305h1.742v-6.917h11.197zM144.34 28.743h14.33V26.91h-12.534V21.7h12.177v-1.246h-12.177v-5.157h12.534v-1.86h-14.33zM183.713 28.743h2.162l-7.832-7.722 7.568-7.583h-2.418l-6.16 6.374-6.253-6.374h-2.41l7.564 7.373-7.767 7.932h2.252l6.507-6.805zM192.774 13.486l-1.132 1.85-1.128-1.85h-.623v2.64h.592v-1.668l.909 1.43h.512l.897-1.43v1.668h.598v-2.64h-.625zm-3.113 0v.584h-1.147v2.052h-.595V14.07h-1.143v-.584h2.885z"/>
    </g>
</svg>
