<svg xmlns="http://www.w3.org/2000/svg" width="32" height="33" viewBox="0 0 32 33">
    <path fill="#FFF" fill-rule="evenodd" d="M15.413 4.406l3.712 3.725c.162.163.256.381.256.619 0 .231-.087.456-.256.619-.162.162-.381.256-.619.256-.237 0-.456-.094-.618-.256l-.007-.006-2.506-2.57v16.332c0 .825.325 1.613.919 2.206.594.594 1.375.919 2.206.919h3c.481 0 .875.394.875.875S21.981 28 21.5 28h-3c-1.3 0-2.519-.506-3.444-1.431-.925-.925-1.431-2.144-1.431-3.444V6.769L11.113 9.25c-.163.163-.382.256-.62.256-.23 0-.455-.087-.618-.256l-.006-.006c-.156-.169-.244-.388-.244-.613 0-.244.088-.456.256-.619l3.588-3.6c.262-.262.612-.406.981-.406.363-.006.706.138.963.4z"/>
</svg>
