<svg xmlns="http://www.w3.org/2000/svg" width="32" height="32" viewBox="0 0 32 32">
    <path fill="#FFF" fill-rule="evenodd" d="M27.144 2c.473 0 .856.38.856.85v25.3c0 .47-.383.85-.856.85H4.856A.853.853 0 0 1 4 28.15V2.85c0-.47.383-.85.856-.85h22.288zm-.857 1.701H5.712V27.3h20.575V3.701zM12.862 6.765v1.7h-.905v4.409c0 2.165 1.867 4.065 3.993 4.065 2.12 0 3.982-1.9 3.982-4.065V8.466h-.905V6.765h3.522v1.7h-.905v4.409c0 3.126-2.608 5.766-5.694 5.766-3.093 0-5.705-2.64-5.705-5.766V8.466H9.34V6.765h3.522z"/>
</svg>
